<svg id="logo" xmlns="http://www.w3.org/2000/svg" xmlns:xlink="http://www.w3.org/1999/xlink" width="140" height="30" viewBox="0 0 140 30">
  <defs>
    <clipPath id="clip-path">
      <path id="Clip_5" data-name="Clip 5" d="M31.762,14.4c0-4.741,4.543-8.95,1.068-11.576C30.478,1.052,17.294,0,14.144,0A14.282,14.282,0,0,0,0,14.4a14.282,14.282,0,0,0,14.144,14.4c5.364,0,14.129-3.049,16.526-7.536C31.76,19.231,31.762,16.891,31.762,14.4Z" fill="none"/>
    </clipPath>
  </defs>
  <path id="Fill_1" data-name="Fill 1" d="M66.389,30A2.647,2.647,0,1,1,69,27.353,2.632,2.632,0,0,1,66.389,30Zm-5.222,0a2.647,2.647,0,1,1,2.611-2.647A2.633,2.633,0,0,1,61.167,30Zm-5.223,0a2.647,2.647,0,1,1,2.611-2.647A2.632,2.632,0,0,1,55.944,30Zm-5.222,0a2.647,2.647,0,1,1,2.611-2.647A2.633,2.633,0,0,1,50.722,30ZM45.5,30a2.647,2.647,0,1,1,2.611-2.647A2.632,2.632,0,0,1,45.5,30Zm17.171-7.8H3.17A3.131,3.131,0,0,1,.928,21.26,3.218,3.218,0,0,1,0,18.987a3.257,3.257,0,0,1,.928-2.272,3.129,3.129,0,0,1,2.242-.941H33.954L30.543,9.783A3.807,3.807,0,0,1,31.906,4.63l6.177-3.615,1-.586A3.115,3.115,0,0,1,40.656,0a3.153,3.153,0,0,1,2.73,1.6l.009.016.009.017a3.251,3.251,0,0,1,.315,2.422,3.208,3.208,0,0,1-1.467,1.939L38.132,8.4l-.405.237a.463.463,0,0,0-.166.627l3.707,6.509,11.946,0a1.426,1.426,0,0,0,1.021-.428,1.466,1.466,0,0,0,.422-1.034V12.165a2.508,2.508,0,0,1,4.294-1.8,2.585,2.585,0,0,1,.737,1.8v2.151a1.456,1.456,0,0,0,1.442,1.463h1.394a1.428,1.428,0,0,0,1.021-.428,1.484,1.484,0,0,0,.423-1.035V12.165a2.508,2.508,0,0,1,4.294-1.8,2.585,2.585,0,0,1,.737,1.8v4.042h-.014a6.456,6.456,0,0,1-1.84,4.114A6.241,6.241,0,0,1,62.671,22.2Z" transform="translate(0 0)" fill="#09f"/>
  <path id="Fill_2" data-name="Fill 2" d="M5.686,30a3.188,3.188,0,0,1-1.6-.431,3.221,3.221,0,0,1-1.174-4.387l2.017-3.506a7.663,7.663,0,0,1-3.911-11,7.618,7.618,0,0,1,10.428-2.8A7.7,7.7,0,0,1,15.268,14.5V3.213a3.2,3.2,0,1,1,6.4,0V15.772a6.4,6.4,0,0,1-6.383,6.405h-3.25L8.46,28.394A3.21,3.21,0,0,1,5.686,30ZM7.636,11.861a2.648,2.648,0,1,0,1.317.355A2.649,2.649,0,0,0,7.636,11.861ZM27.806,22.176h-.021a3.165,3.165,0,0,1-2.256-.938,3.229,3.229,0,0,1-.934-2.264V3.2A3.2,3.2,0,0,1,27.786,0h.021A3.2,3.2,0,0,1,31,3.2V18.974a3.2,3.2,0,0,1-3.191,3.2Z" transform="translate(70.374 0)" fill="#09f"/>
  <path id="Fill_3" data-name="Fill 3" d="M27.53,20.657A14.462,14.462,0,1,1,14.448,0,14.381,14.381,0,0,1,24.831,4.421h8.38a.792.792,0,0,1,.7,1.162l-2.863,5.436a6.268,6.268,0,0,1-2.191,2.376q.041.547.041,1.105a14.54,14.54,0,0,1-.563,4.019h1.136a1.069,1.069,0,0,1,0,2.138Z" transform="translate(105.478)" fill="#09f"/>
  <g id="Group_6" data-name="Group 6" transform="translate(105.861 0.087)">
    <path id="Clip_5-2" data-name="Clip 5" d="M31.762,14.4c0-4.741,4.543-8.95,1.068-11.576C30.478,1.052,17.294,0,14.144,0A14.282,14.282,0,0,0,0,14.4a14.282,14.282,0,0,0,14.144,14.4c5.364,0,14.129-3.049,16.526-7.536C31.76,19.231,31.762,16.891,31.762,14.4Z" fill="none"/>
    <g id="Group_6-2" data-name="Group 6" clip-path="url(#clip-path)">
      <path id="Fill_4" data-name="Fill 4" d="M9.149,20.975H7.984a.386.386,0,0,1-.382-.389v-.008a.388.388,0,0,1,.382-.39H9.149a.387.387,0,0,1,.381.39v.008A.385.385,0,0,1,9.149,20.975ZM20.2,19.95H11.067a.386.386,0,0,1-.381-.39v-.008a.385.385,0,0,1,.381-.389H20.2a.386.386,0,0,1,.382.389v.008A.386.386,0,0,1,20.2,19.95ZM10.083,17.909h-7.1L0,17.906v-1.57H10.083a4.741,4.741,0,0,0,4.262-2.677l.591-1.2H7.7a.772.772,0,0,1-.763-.778v-.015a.772.772,0,0,1,.763-.778h9.321a4.74,4.74,0,0,0,4.262-2.677l.591-1.2H10.4a.772.772,0,0,1-.763-.778V6.224a.772.772,0,0,1,.763-.779H23.963a4.741,4.741,0,0,0,4.262-2.677l.591-1.2H0V0H30.166a.711.711,0,0,1,.606.345.729.729,0,0,1,.03.707L29.6,3.477a6.272,6.272,0,0,1-5.639,3.542H23.6l-.941,1.9a6.272,6.272,0,0,1-5.639,3.541h-.359l-.937,1.9h5.888a.387.387,0,0,1,.382.39v.008a.386.386,0,0,1-.382.389H15.268A6.283,6.283,0,0,1,10.083,17.909Zm8.7-1.173H16.08a.386.386,0,0,1-.382-.39V16.34a.386.386,0,0,1,.382-.39h2.707a.386.386,0,0,1,.382.39v.007A.386.386,0,0,1,18.788,16.736Zm9.9-2.727H19.551a.386.386,0,0,1-.382-.39v-.007a.386.386,0,0,1,.382-.39h9.132a.387.387,0,0,1,.382.39v.007A.387.387,0,0,1,28.683,14.009Z" transform="translate(0 5.833)" fill="#fff"/>
    </g>
  </g>
</svg>
