<svg xmlns="http://www.w3.org/2000/svg" viewBox="40 109 220 78" xmlns:v="https://vecta.io/nano"><path d="M47.24 108.39c-1.21 2.54-2.16 4.99-2.25 7.67-.18 5.09 1.7 9.3 5.39 12.74 1.02.95 1.88 2.74 3.07 2.65.89-.07 1.63-1.94 2.48-2.98 8.05-9.89 18.46-15 31.19-15.4 1.55-.05 3.1 0 4.65-.01 2.08-.02 2.56-.55 2.67-2.64.04-.65-.41-1.73.37-1.89 1.22-.25 2.55-.13 3.82.03.45.06.26.79.26 1.22l.03 44.14c0 1.15-.38 1.4-1.44 1.37-2.77-.07-5.55.02-8.32-.03-3.66-.07-6.31-2.65-6.54-6.3-.04-.58-.02-1.16-.01-1.74.03-2.19.47-4.26-2.66-5.18-2.27-.67-3.04-3.17-3.06-5.59-.02-2.06.05-4.13-.03-6.19-.04-1.14.25-1.72 1.49-1.56.51.07 1.04.06 1.55 0 1.16-.15 1.61.24 1.54 1.48-.1 1.93-.04 3.87-.02 5.81.02 2.1.55 2.63 2.61 2.67 3.16.06 3.16.06 3.16 3.31v6.58c-.01 1.43.69 2.08 2.12 2.17 5.11.32 5.11.34 5.11-4.68l.04-26.13c.02-1.77-.15-2.43-2.29-2.32-4.63.24-9.28-.01-13.82 1.29-8.72 2.48-15.6 7.47-20.69 14.98-.72 1.07-.67 1.68.24 2.59l15.74 15.74c8.44 8.51 8.5 20.9.16 29.44-.95.97-1.95 1.89-2.82 2.93-.88 1.06-1.48.94-2.42-.02l-18.31-18.38-8.21-8.22c-1.52-1.52-2-3.27-1.2-5.3.45-1.14.93-1.45 1.99-.38l20.9 20.98c1.64 1.64 3.35 3.23 4.9 4.95.9 1 1.43.81 2.27-.05 6.12-6.28 6.11-16.13-.17-22.47l-24.05-24.13c-5.71-5.81-7.47-12.7-5.36-20.63.52-1.95 1.34-2.9 3.42-2.52.77.11 1.55 0 2.5 0zm177.7 56.2h-25.16c-4.33-.01-6.82-2.51-6.83-6.86l-.05-17.81c-.04-1.8.8-1.82 2.06-1.72 1.11.09 2.4-.5 2.34 1.65-.15 5.54-.06 11.1-.05 16.65 0 2.82.99 3.79 3.86 3.79h48.78c3.54 0 5.22-1.66 5.26-5.19.03-2.13-.1-4.26.04-6.39.1-1.57-.47-1.93-1.96-1.92l-41.23.03h-.39c-2.26 0-3.28-1.61-2.44-3.8.27-.71.82-.5 1.28-.51l7.94-.01 39.3-.03c1.41-.01 1.91.28 1.86 1.79-.12 3.67-.01 7.35-.04 11.03-.04 5.61-3.76 9.28-9.38 9.29l-25.19.01zm-69.56 0H130.4c-4.48 0-6.98-2.45-7.01-6.9l-.06-17.81c-.05-2.12 1.2-1.62 2.35-1.67 1.22-.06 2.17-.16 2.12 1.7-.14 5.55-.06 11.1-.05 16.65.01 2.75.99 3.72 3.72 3.73h48.99c3.39 0 5.11-1.72 5.12-5.1l-.02-11.04c-.02-1.2.21-1.72 1.56-1.66 3.38.14 2.72-.35 2.76 2.75v10.46c-.06 5.17-3.78 8.87-8.96 8.89h-25.54z" fill="#1e4784"/><path d="M180.54 180.74l-.02-9.48c-.02-.99.25-1.34 1.29-1.33l17.22.06c4.04.07 7.01 3.17 7.07 7.21l.04 9.29c.04 1.3-.38 1.62-1.63 1.61-6.06-.06-12.13.02-18.19-.06-1.47-.02-2.2.31-1.89 1.88.34 1.73-.67 1.75-1.98 1.8-1.46.05-2.02-.28-1.94-1.88.14-3.03.04-6.07.03-9.1zm12.82 3.69c2.58 0 5.16-.06 7.74.02 1.22.04 1.56-.41 1.5-1.56-.08-1.8.02-3.61-.03-5.42-.08-2.5-1.52-3.95-4.01-3.98-4.26-.04-8.51.03-12.77-.04-1.15-.02-1.39.4-1.37 1.45.06 2.71.07 5.42 0 8.13-.03 1.08.29 1.45 1.4 1.42 2.51-.07 5.03-.02 7.54-.02zm-85.75-14.47l11.42-.04c1.55-.04 1.41.82 1.44 1.82.03 1.06.01 1.79-1.47 1.77-6.26-.08-12.52.01-18.78-.07-1.41-.02-1.96.29-1.83 1.79.14 1.73.01 3.48.04 5.22.04 2.58 1.35 3.93 3.95 3.95l16.07.01c1.81 0 2.72 1.5 1.95 3.15-.26.56-.71.48-1.14.48-5.87 0-11.75.12-17.62-.06-3.8-.11-6.63-3.13-6.77-6.92-.12-3.29 0-6.58-.06-9.87-.02-1.07.42-1.28 1.38-1.27l11.42.04zm15.62 7.32l-.04-9.29c-.07-1.61.73-1.62 1.86-1.52.98.08 2.42-.47 2.06 1.45-.33 1.77.44 2.13 2.1 2.08 4-.12 8-.05 12-.04 4.71.02 7.66 2.86 7.75 7.51.06 3.03-.06 6.07.04 9.1.05 1.42-.62 1.52-1.74 1.53-1.21.01-1.91-.12-1.85-1.63.11-2.9.06-5.81.02-8.71-.03-2.88-1.42-4.26-4.29-4.27-4.13-.02-8.26.06-12.39-.04-1.42-.03-1.69.45-1.67 1.75l.07 11.61c.06 1.81-1.08 1.34-2 1.36-.96.02-2.05.39-1.96-1.4.15-3.16.04-6.33.04-9.49z" fill="#d7292f"/><path d="M68.38 168.85l-1-.87-25.16-25.18c-1.5-1.49-2.19-3.16-1.46-5.24.45-1.29.94-1.79 2.18-.5l13.64 13.72 11.07 11.09c2.18 2.18 2.41 4.44.73 6.98zm35.86-4.26c-2.51 0-5.03-.11-7.54.04-1.61.1-2.04-.52-1.83-1.95a3.09 3.09 0 0 0 0-.96c-.21-1.27.41-1.47 1.53-1.46l14.5.02c3.51-.01 5.18-1.68 5.21-5.23.03-3.67.11-7.35-.04-11.02-.07-1.84 1.03-1.59 2.08-1.51.99.07 2.41-.66 2.34 1.45-.12 3.93.03 7.86-.05 11.79-.12 5.15-3.89 8.78-9.05 8.82l-7.15.01z" fill="#1e4784"/><path d="M222 188.07c-3.74 0-7.49-.04-11.23.02-1.19.02-1.78-.21-1.68-1.56.11-1.54.14-3.11-.01-4.64-.14-1.53.72-1.47 1.76-1.45.98.03 1.88-.17 1.85 1.41-.05 2.57.07 2.57 2.72 2.57l13.74.04c1.57.04 2.12-.48 1.86-1.95-.32-1.76.46-2.18 2.13-2.11 1.3.05 1.68.45 1.6 1.68-.09 1.41-.1 2.84 0 4.26.1 1.33-.31 1.8-1.71 1.77-3.67-.1-7.35-.04-11.03-.04zm-57.39 0c-3.61 0-7.23-.06-10.84.03-1.38.03-2.03-.25-1.87-1.79.13-1.28.02-2.58.03-3.87 0-1.79 1.51-2.74 3.12-1.94.85.42.49 1.28.43 1.9-.15 1.58.37 2.1 2.02 2.06 4.84-.11 9.68-.09 14.52-.01 1.45.02 2.08-.26 1.97-1.88-.14-1.99 1.05-2.72 2.96-2.12.75.24.55.78.55 1.24.03 1.55-.07 3.1.04 4.64.09 1.32-.3 1.79-1.7 1.75-3.74-.07-7.48-.01-11.23-.01zm87.19-18.11l6.38-.03c1.65-.08 1.27.99 1.33 1.91.06.99.04 1.7-1.35 1.67-3.93-.09-7.87-.04-11.8-.03-2.89.01-4.29 1.38-4.32 4.24-.03 2.97-.08 5.94.02 8.9.05 1.49-.75 1.47-1.81 1.47-1.05-.01-1.84.02-1.79-1.47.11-3.16-.03-6.32.06-9.48.12-4.22 3.07-7.08 7.29-7.17 1.99-.04 3.99-.01 5.99-.01z" fill="#d7292f"/><path d="M224.81 169.96l8.51-.03c1.13-.03 1.45.36 1.4 1.44v4.83c.1 1.48-.84 1.33-1.74 1.28-.87-.04-1.96.41-1.97-1.27-.03-2.74-.13-2.74-2.92-2.74-3.68 0-7.35-.01-11.03 0-2.58.01-3.54.71-4.37 3.17-.53 1.58-1.82.71-2.75.79-1.22.1-.78-.93-.7-1.54.42-3.31 3.45-5.87 7.06-5.94l8.51.01zm-57.21 0l8.51-.02c1.08-.03 1.48.27 1.42 1.39-.09 1.61-.11 3.23 0 4.83.11 1.43-.73 1.41-1.68 1.33-.85-.07-1.95.46-1.95-1.25.01-2.76-.1-2.76-2.87-2.76-3.68 0-7.35-.01-11.03 0-2.6.01-3.62.66-4.45 3.11-.6 1.77-1.96.79-2.91.82-1.21.04-.62-.99-.5-1.59.68-3.43 3.43-5.77 6.94-5.85 2.85-.06 5.69-.01 8.52-.01z" fill="#1e4784"/></svg>