<?xml version="1.0" encoding="UTF-8" standalone="no"?>
<svg xmlns="http://www.w3.org/2000/svg" version="1.1" viewBox="0 0 1626 1560">
  <path fill="#fcd603" d="   M 1329.25 218.43   Q 1329.32 218.03 1328.97 218.25   L 768.11 565.17   Q 767.94 565.28 767.84 565.11   L 711.57 474.15   Q 711.46 473.96 711.65 473.84   L 1477.10 0.36   Q 1477.76 -0.05 1477.54 0.67   Q 1477.52 0.71 1477.40 0.93   Q 1477.32 1.08 1477.29 1.20   Q 1464.07 75.94 1459.98 98.97   Q 1434.17 244.06 1408.34 377.05   Q 1406.90 384.45 1404.24 396.61   Q 1391.11 456.71 1371.34 511.58   C 1347.75 577.06 1314.68 640.06 1270.85 693.35   C 1247.71 721.48 1221.40 746.42 1192.04 767.14   Q 1185.88 771.49 1175.28 778.06   Q 1101.15 823.99 965.75 907.75   Q 954.51 914.71 948.44 917.75   Q 908.47 937.74 863.30 934.12   C 818.42 930.53 776.48 907.58 749.22 871.53   Q 746.91 868.47 737.73 855.11   Q 635.08 705.69 535.89 561.36   Q 528.64 550.80 524.23 545.39   Q 494.98 509.55 452.30 492.77   Q 417.07 478.92 378.99 480.84   Q 337.28 482.95 301.00 503.75   A 0.24 0.23 56.9 0 0 300.93 504.09   Q 511.28 810.27 634.44 989.56   Q 649.48 1011.45 672.81 1034.22   Q 679.82 1041.06 687.72 1047.56   Q 764.11 1110.48 863.53 1116.61   Q 870.48 1117.03 883.50 1117.03   Q 986.42 1116.97 1181.20 1117.01   A 0.24 0.24 0.0 0 0 1181.40 1116.63   L 1067.03 950.18   A 0.45 0.44 -34.2 0 1 1067.15 949.57   L 1155.00 889.21   A 0.34 0.34 0.0 0 1 1155.47 889.30   L 1385.36 1223.88   Q 1385.61 1224.24 1385.16 1224.24   Q 1177.14 1224.25 881.75 1224.24   Q 869.84 1224.24 861.76 1223.87   Q 794.28 1220.75 733.64 1197.32   Q 621.51 1153.99 549.46 1055.25   Q 546.15 1050.71 538.00 1038.84   Q 498.57 981.34 148.69 472.12   Q 148.45 471.77 148.81 471.54   Q 200.58 439.42 236.83 417.08   Q 247.78 410.33 254.09 406.96   Q 297.28 383.90 344.23 376.68   Q 397.80 368.43 451.14 380.36   C 515.37 394.72 571.11 430.98 611.40 482.47   Q 615.99 488.34 623.09 498.67   Q 739.25 667.69 828.08 797.01   Q 836.19 808.83 840.28 812.80   Q 851.97 824.12 869.19 826.82   Q 881.36 828.72 892.94 824.86   Q 898.78 822.92 910.59 815.62   Q 998.64 761.16 1120.00 685.99   Q 1138.69 674.42 1155.23 659.23   C 1183.01 633.72 1205.98 604.00 1225.00 571.79   Q 1243.46 540.55 1257.01 508.57   Q 1283.47 446.19 1298.59 377.12   Q 1303.54 354.53 1311.47 312.96   Q 1321.19 261.98 1329.25 218.43   Z"></path>
  <path fill="#1d4593" d="   M 1232.09 1393.41   A 0.22 0.22 0.0 0 0 1232.28 1393.75   Q 1284.13 1393.74 1293.49 1393.78   Q 1301.05 1393.81 1307.24 1396.07   C 1317.86 1399.95 1326.23 1409.22 1329.11 1420.17   Q 1330.27 1424.57 1330.26 1435.00   Q 1330.26 1440.06 1330.25 1450.02   Q 1330.24 1462.17 1328.71 1467.32   C 1325.42 1478.46 1316.12 1487.75 1304.72 1491.00   Q 1300.42 1492.23 1292.13 1492.24   Q 1198.22 1492.30 1174.53 1492.20   Q 1161.10 1492.14 1151.02 1481.30   Q 1150.69 1480.94 1150.34 1481.29   Q 1143.62 1488.21 1134.96 1490.94   Q 1130.78 1492.25 1120.93 1492.25   Q 1036.56 1492.26 955.30 1492.25   A 0.30 0.29 0.0 0 1 955.00 1491.96   L 955.00 1417.04   Q 955.00 1416.55 955.48 1416.40   L 977.68 1409.71   A 0.25 0.25 0.0 0 1 978.00 1409.95   L 978.00 1468.80   Q 978.00 1469.26 978.45 1469.26   Q 1054.13 1469.22 1120.51 1469.28   Q 1127.38 1469.28 1130.28 1467.86   Q 1134.65 1465.73 1136.23 1461.03   Q 1137.04 1458.63 1137.03 1452.42   Q 1136.97 1431.06 1137.02 1409.37   A 0.48 0.47 81.9 0 1 1137.36 1408.91   L 1159.50 1402.24   Q 1160.00 1402.09 1160.00 1402.60   Q 1160.01 1429.65 1159.99 1456.34   C 1159.99 1461.05 1159.47 1464.64 1158.05 1468.78   A 0.37 0.37 0.0 0 0 1158.40 1469.27   Q 1244.89 1469.19 1293.25 1469.33   Q 1302.37 1469.36 1305.84 1462.39   Q 1307.35 1459.34 1307.32 1452.84   Q 1307.30 1448.40 1307.29 1434.59   Q 1307.28 1426.68 1305.81 1423.69   Q 1303.87 1419.73 1299.63 1418.00   Q 1297.13 1416.98 1291.73 1416.99   Q 1241.36 1417.02 1191.11 1416.99   A 0.33 0.33 0.0 0 1 1190.83 1416.49   L 1238.32 1339.77   A 0.51 0.51 0.0 0 1 1239.19 1339.77   L 1252.01 1360.51   A 0.66 0.66 0.0 0 1 1252.01 1361.21   L 1232.09 1393.41   Z"></path>
  <path fill="#1d4593" d="   M 702.57 1492.87   Q 702.45 1494.73 702.49 1499.45   Q 702.51 1503.79 702.22 1506.03   C 699.30 1528.38 683.59 1545.94 661.90 1551.37   Q 655.98 1552.85 644.03 1552.81   Q 628.40 1552.76 624.59 1552.78   Q 610.87 1552.85 605.11 1551.50   C 585.40 1546.89 570.16 1531.47 565.41 1511.95   Q 563.89 1505.72 563.96 1494.39   Q 564.00 1487.82 564.01 1445.88   A 0.67 0.67 0.0 0 1 564.79 1445.22   L 586.50 1448.79   Q 586.99 1448.87 586.99 1449.37   Q 587.06 1466.07 586.94 1489.76   Q 586.86 1503.47 588.43 1508.61   C 591.37 1518.27 599.83 1526.32 609.87 1528.86   Q 613.27 1529.72 620.22 1529.74   Q 645.14 1529.81 650.00 1529.75   Q 654.61 1529.69 658.72 1528.23   Q 674.35 1522.68 678.75 1506.43   C 679.87 1502.32 679.51 1498.00 679.50 1492.78   Q 679.49 1492.25 678.96 1492.25   L 633.75 1492.25   Q 633.24 1492.25 633.24 1491.74   L 633.24 1469.55   A 0.30 0.29 -0.0 0 1 633.54 1469.26   Q 693.92 1469.21 718.13 1469.28   Q 724.43 1469.30 727.67 1468.05   Q 736.58 1464.63 739.92 1456.14   Q 741.29 1452.66 741.28 1441.21   Q 741.21 1400.39 741.27 1352.48   A 0.83 0.82 77.7 0 1 741.75 1351.73   L 763.79 1341.51   Q 764.24 1341.30 764.24 1341.79   Q 764.28 1398.19 764.22 1442.85   Q 764.21 1452.47 765.57 1456.05   Q 768.82 1464.63 777.98 1468.14   Q 781.23 1469.39 788.27 1469.33   Q 800.62 1469.22 814.70 1469.28   A 0.32 0.32 0.0 0 0 815.02 1468.96   Q 814.96 1440.04 815.05 1427.79   Q 815.08 1424.35 817.00 1418.78   C 820.74 1407.95 829.56 1399.88 840.46 1396.65   Q 845.49 1395.15 856.18 1395.21   Q 863.11 1395.25 911.49 1395.25   Q 912.01 1395.25 912.01 1395.76   Q 912.03 1420.10 912.01 1450.95   Q 912.00 1462.39 910.49 1467.43   C 907.18 1478.47 897.94 1487.68 886.70 1490.95   Q 882.33 1492.21 872.66 1492.27   Q 856.94 1492.37 851.26 1492.18   Q 838.27 1491.76 828.84 1481.66   Q 828.51 1481.31 828.16 1481.65   Q 821.46 1488.14 813.30 1490.73   Q 808.60 1492.22 799.50 1492.27   Q 795.36 1492.29 786.99 1492.27   Q 778.94 1492.26 774.60 1491.23   Q 762.39 1488.34 753.10 1478.84   Q 752.74 1478.48 752.38 1478.84   Q 743.15 1488.26 730.89 1491.20   Q 726.55 1492.24 717.04 1492.23   Q 704.74 1492.21 703.10 1492.33   Q 702.61 1492.37 702.57 1492.87   Z   M 841.69 1421.94   Q 838.11 1425.52 838.07 1429.84   Q 837.92 1449.38 838.03 1469.01   Q 838.03 1469.08 838.10 1469.16   Q 838.18 1469.23 838.25 1469.23   Q 857.88 1469.35 877.42 1469.20   Q 881.74 1469.17 885.32 1465.59   Q 888.90 1462.01 888.94 1457.69   Q 889.09 1438.15 888.98 1418.52   Q 888.98 1418.45 888.90 1418.38   Q 888.82 1418.30 888.75 1418.30   Q 869.12 1418.19 849.58 1418.33   Q 845.26 1418.37 841.69 1421.94   Z"></path>
  <path fill="#1d4593" d="   M 1553.37 1341.50   L 1575.64 1341.50   A 0.36 0.36 0.0 0 1 1576.00 1341.86   L 1576.00 1381.89   A 0.36 0.36 0.0 0 1 1575.64 1382.25   L 1517.86 1382.25   A 0.36 0.36 0.0 0 1 1517.50 1381.89   L 1517.50 1359.61   A 0.36 0.36 0.0 0 1 1517.86 1359.25   L 1552.64 1359.25   A 0.36 0.36 0.0 0 0 1553.00 1358.89   L 1553.01 1341.86   A 0.36 0.36 0.0 0 1 1553.37 1341.50   Z"></path>
  <path fill="#1d4593" d="   M 1388.87 1482.91   Q 1386.32 1515.11 1359.63 1532.61   Q 1342.15 1544.07 1338.45 1546.57   Q 1338.00 1546.87 1337.53 1546.62   L 1315.14 1534.60   Q 1314.63 1534.33 1315.12 1534.01   Q 1338.22 1518.92 1346.43 1513.67   Q 1360.26 1504.84 1364.46 1489.96   Q 1365.76 1485.38 1365.75 1475.44   Q 1365.75 1455.94 1365.75 1409.35   A 0.40 0.40 0.0 0 1 1366.03 1408.97   L 1388.53 1402.19   A 0.37 0.37 0.0 0 1 1389.00 1402.54   L 1389.00 1469.01   A 0.24 0.24 0.0 0 0 1389.24 1469.25   L 1471.51 1469.25   A 0.25 0.24 -90.0 0 0 1471.75 1469.00   L 1471.75 1417.06   Q 1471.75 1416.56 1472.22 1416.42   L 1494.23 1409.79   Q 1494.75 1409.63 1494.75 1410.18   L 1494.75 1468.75   Q 1494.75 1469.25 1495.25 1469.25   L 1537.26 1469.25   A 0.24 0.24 0.0 0 0 1537.50 1469.01   L 1537.50 1417.02   A 0.65 0.65 0.0 0 1 1537.96 1416.40   L 1560.06 1409.74   A 0.34 0.34 0.0 0 1 1560.50 1410.06   L 1560.50 1468.97   A 0.28 0.27 0.0 0 0 1560.78 1469.24   Q 1580.87 1469.24 1586.97 1469.33   Q 1593.09 1469.42 1595.81 1467.96   Q 1599.54 1465.96 1601.30 1462.33   Q 1602.50 1459.84 1602.50 1454.95   Q 1602.51 1412.44 1602.50 1399.39   Q 1602.50 1398.84 1603.02 1398.69   L 1625.17 1392.01   A 0.28 0.28 0.0 0 1 1625.53 1392.28   Q 1625.48 1451.83 1625.46 1458.02   C 1625.43 1473.47 1614.50 1486.79 1600.16 1490.96   Q 1595.69 1492.26 1586.20 1492.26   Q 1582.52 1492.25 1411.50 1492.25   Q 1399.25 1492.24 1389.27 1482.75   Q 1388.91 1482.41 1388.87 1482.91   Z"></path>
  <path fill="#1d4593" d="   M 204.01 1469.25   L 278.26 1469.25   A 0.24 0.24 0.0 0 0 278.50 1469.01   L 278.50 1416.92   Q 278.50 1416.59 278.82 1416.50   L 301.08 1409.79   Q 301.75 1409.58 301.75 1410.28   L 301.75 1468.75   Q 301.75 1469.25 302.25 1469.25   L 344.50 1469.25   A 0.25 0.25 0.0 0 0 344.75 1469.00   L 344.75 1417.05   Q 344.75 1416.56 345.22 1416.42   L 367.13 1409.81   Q 367.75 1409.63 367.75 1410.27   L 367.75 1468.70   Q 367.75 1469.20 368.25 1469.20   Q 382.51 1469.30 400.51 1469.28   Q 403.44 1469.28 404.70 1468.27   Q 406.49 1466.82 406.49 1463.75   Q 406.51 1431.13 406.50 1401.93   Q 406.50 1401.40 407.01 1401.25   L 428.94 1394.64   Q 429.49 1394.47 429.49 1395.04   L 429.49 1468.77   Q 429.49 1469.21 429.93 1469.21   Q 438.07 1469.25 491.01 1469.29   Q 500.69 1469.30 503.94 1462.25   Q 505.31 1459.27 505.28 1453.05   Q 505.24 1440.47 505.25 1409.29   A 0.36 0.36 0.0 0 1 505.52 1408.94   L 527.75 1402.23   Q 528.25 1402.08 528.25 1402.60   Q 528.28 1456.31 528.22 1458.99   Q 528.10 1463.76 526.17 1469.15   C 522.40 1479.60 513.64 1487.66 503.07 1490.87   Q 498.44 1492.28 489.82 1492.28   Q 456.63 1492.25 449.96 1492.23   Q 439.91 1492.19 435.71 1491.00   Q 428.43 1488.93 422.87 1483.88   Q 422.49 1483.54 422.12 1483.89   Q 417.02 1488.82 410.89 1490.92   Q 407.04 1492.25 399.90 1492.25   Q 312.27 1492.28 225.33 1492.24   Q 216.36 1492.24 212.32 1491.14   C 206.35 1489.52 200.44 1486.38 196.95 1481.49   A 0.78 0.78 0.0 0 0 195.76 1481.40   Q 189.15 1488.18 180.36 1490.84   Q 175.71 1492.25 166.48 1492.25   Q 81.62 1492.26 0.78 1492.25   A 0.28 0.28 0.0 0 1 0.50 1491.97   L 0.50 1417.04   Q 0.50 1416.53 0.99 1416.38   L 23.06 1409.73   A 0.34 0.34 0.0 0 1 23.50 1410.06   L 23.50 1468.97   A 0.29 0.29 0.0 0 0 23.79 1469.26   Q 112.39 1469.24 167.06 1469.27   Q 172.97 1469.27 175.72 1467.89   Q 179.73 1465.87 181.46 1461.67   Q 182.49 1459.17 182.50 1453.66   Q 182.53 1432.03 182.49 1409.70   Q 182.49 1409.00 183.16 1408.80   L 204.99 1402.22   A 0.39 0.39 0.0 0 1 205.49 1402.59   Q 205.52 1431.10 205.49 1459.72   Q 205.48 1462.09 203.64 1468.76   Q 203.50 1469.25 204.01 1469.25   Z"></path>
  <rect fill="#1d4593" x="72.25" y="1396.75" width="61.24" height="23.00" rx="0.36"></rect>
  <rect fill="#1d4593" x="1027.00" y="1396.75" width="61.00" height="23.00" rx="0.43"></rect>
  <path fill="#1d4593" d="   M 497.13 1542.00   L 462.63 1541.99   A 0.38 0.38 0.0 0 1 462.25 1541.61   L 462.24 1519.38   A 0.38 0.38 0.0 0 1 462.62 1519.00   L 520.38 1519.00   A 0.38 0.38 0.0 0 1 520.76 1519.38   L 520.76 1559.37   A 0.38 0.38 0.0 0 1 520.38 1559.75   L 497.87 1559.75   A 0.38 0.38 0.0 0 1 497.49 1559.37   L 497.51 1542.38   A 0.38 0.38 0.0 0 0 497.13 1542.00   Z"></path>
</svg>
