<?xml version="1.0" encoding="UTF-8" standalone="no"?>
<svg xmlns="http://www.w3.org/2000/svg" version="1.1" viewBox="0.00 0.00 1626.00 1724.00">
  <path fill="#fcd603" d="   M 1329.25 218.43   Q 1329.32 218.03 1328.97 218.25   L 768.11 565.17   Q 767.94 565.28 767.84 565.11   L 711.57 474.15   Q 711.46 473.96 711.65 473.84   L 1477.10 0.36   Q 1477.76 -0.05 1477.54 0.67   Q 1477.52 0.71 1477.40 0.93   Q 1477.32 1.08 1477.29 1.20   Q 1464.07 75.94 1459.98 98.97   Q 1434.17 244.06 1408.34 377.05   Q 1406.90 384.45 1404.24 396.61   Q 1391.11 456.71 1371.34 511.58   C 1347.75 577.06 1314.68 640.06 1270.85 693.35   C 1247.71 721.48 1221.40 746.42 1192.04 767.14   Q 1185.88 771.49 1175.28 778.06   Q 1101.15 823.99 965.75 907.75   Q 954.51 914.71 948.44 917.75   Q 908.47 937.74 863.30 934.12   C 818.42 930.53 776.48 907.58 749.22 871.53   Q 746.91 868.47 737.73 855.11   Q 635.08 705.69 535.89 561.36   Q 528.64 550.80 524.23 545.39   Q 494.98 509.55 452.30 492.77   Q 417.07 478.92 378.99 480.84   Q 337.28 482.95 301.00 503.75   A 0.24 0.23 56.9 0 0 300.93 504.09   Q 511.28 810.27 634.44 989.56   Q 649.48 1011.45 672.81 1034.22   Q 679.82 1041.06 687.72 1047.56   Q 764.11 1110.48 863.53 1116.61   Q 870.48 1117.03 883.50 1117.03   Q 986.42 1116.97 1181.20 1117.01   A 0.24 0.24 0.0 0 0 1181.40 1116.63   L 1067.03 950.18   A 0.45 0.44 -34.2 0 1 1067.15 949.57   L 1155.00 889.21   A 0.34 0.34 0.0 0 1 1155.47 889.30   L 1385.36 1223.88   Q 1385.61 1224.24 1385.16 1224.24   Q 1177.14 1224.25 881.75 1224.24   Q 869.84 1224.24 861.76 1223.87   Q 794.28 1220.75 733.64 1197.32   Q 621.51 1153.99 549.46 1055.25   Q 546.15 1050.71 538.00 1038.84   Q 498.57 981.34 148.69 472.12   Q 148.45 471.77 148.81 471.54   Q 200.58 439.42 236.83 417.08   Q 247.78 410.33 254.09 406.96   Q 297.28 383.90 344.23 376.68   Q 397.80 368.43 451.14 380.36   C 515.37 394.72 571.11 430.98 611.40 482.47   Q 615.99 488.34 623.09 498.67   Q 739.25 667.69 828.08 797.01   Q 836.19 808.83 840.28 812.80   Q 851.97 824.12 869.19 826.82   Q 881.36 828.72 892.94 824.86   Q 898.78 822.92 910.59 815.62   Q 998.64 761.16 1120.00 685.99   Q 1138.69 674.42 1155.23 659.23   C 1183.01 633.72 1205.98 604.00 1225.00 571.79   Q 1243.46 540.55 1257.01 508.57   Q 1283.47 446.19 1298.59 377.12   Q 1303.54 354.53 1311.47 312.96   Q 1321.19 261.98 1329.25 218.43   Z"></path>
  <path fill="#1d4593" d="   M 1232.09 1393.41   A 0.22 0.22 0.0 0 0 1232.28 1393.75   Q 1284.13 1393.74 1293.49 1393.78   Q 1301.05 1393.81 1307.24 1396.07   C 1317.86 1399.95 1326.23 1409.22 1329.11 1420.17   Q 1330.27 1424.57 1330.26 1435.00   Q 1330.26 1440.06 1330.25 1450.02   Q 1330.24 1462.17 1328.71 1467.32   C 1325.42 1478.46 1316.12 1487.75 1304.72 1491.00   Q 1300.42 1492.23 1292.13 1492.24   Q 1198.22 1492.30 1174.53 1492.20   Q 1161.10 1492.14 1151.02 1481.30   Q 1150.69 1480.94 1150.34 1481.29   Q 1143.62 1488.21 1134.96 1490.94   Q 1130.78 1492.25 1120.93 1492.25   Q 1036.56 1492.26 955.30 1492.25   A 0.30 0.29 0.0 0 1 955.00 1491.96   L 955.00 1417.04   Q 955.00 1416.55 955.48 1416.40   L 977.68 1409.71   A 0.25 0.25 0.0 0 1 978.00 1409.95   L 978.00 1468.80   Q 978.00 1469.26 978.45 1469.26   Q 1054.13 1469.22 1120.51 1469.28   Q 1127.38 1469.28 1130.28 1467.86   Q 1134.65 1465.73 1136.23 1461.03   Q 1137.04 1458.63 1137.03 1452.42   Q 1136.97 1431.06 1137.02 1409.37   A 0.48 0.47 81.9 0 1 1137.36 1408.91   L 1159.50 1402.24   Q 1160.00 1402.09 1160.00 1402.60   Q 1160.01 1429.65 1159.99 1456.34   C 1159.99 1461.05 1159.47 1464.64 1158.05 1468.78   A 0.37 0.37 0.0 0 0 1158.40 1469.27   Q 1244.89 1469.19 1293.25 1469.33   Q 1302.37 1469.36 1305.84 1462.39   Q 1307.35 1459.34 1307.32 1452.84   Q 1307.30 1448.40 1307.29 1434.59   Q 1307.28 1426.68 1305.81 1423.69   Q 1303.87 1419.73 1299.63 1418.00   Q 1297.13 1416.98 1291.73 1416.99   Q 1241.36 1417.02 1191.11 1416.99   A 0.33 0.33 0.0 0 1 1190.83 1416.49   L 1238.32 1339.77   A 0.51 0.51 0.0 0 1 1239.19 1339.77   L 1252.01 1360.51   A 0.66 0.66 0.0 0 1 1252.01 1361.21   L 1232.09 1393.41   Z"></path>
  <path fill="#1d4593" d="   M 702.57 1492.87   Q 702.45 1494.73 702.49 1499.45   Q 702.51 1503.79 702.22 1506.03   C 699.30 1528.38 683.59 1545.94 661.90 1551.37   Q 655.98 1552.85 644.03 1552.81   Q 628.40 1552.76 624.59 1552.78   Q 610.87 1552.85 605.11 1551.50   C 585.40 1546.89 570.16 1531.47 565.41 1511.95   Q 563.89 1505.72 563.96 1494.39   Q 564.00 1487.82 564.01 1445.88   A 0.67 0.67 0.0 0 1 564.79 1445.22   L 586.50 1448.79   Q 586.99 1448.87 586.99 1449.37   Q 587.06 1466.07 586.94 1489.76   Q 586.86 1503.47 588.43 1508.61   C 591.37 1518.27 599.83 1526.32 609.87 1528.86   Q 613.27 1529.72 620.22 1529.74   Q 645.14 1529.81 650.00 1529.75   Q 654.61 1529.69 658.72 1528.23   Q 674.35 1522.68 678.75 1506.43   C 679.87 1502.32 679.51 1498.00 679.50 1492.78   Q 679.49 1492.25 678.96 1492.25   L 633.75 1492.25   Q 633.24 1492.25 633.24 1491.74   L 633.24 1469.55   A 0.30 0.29 -0.0 0 1 633.54 1469.26   Q 693.92 1469.21 718.13 1469.28   Q 724.43 1469.30 727.67 1468.05   Q 736.58 1464.63 739.92 1456.14   Q 741.29 1452.66 741.28 1441.21   Q 741.21 1400.39 741.27 1352.48   A 0.83 0.82 77.7 0 1 741.75 1351.73   L 763.79 1341.51   Q 764.24 1341.30 764.24 1341.79   Q 764.28 1398.19 764.22 1442.85   Q 764.21 1452.47 765.57 1456.05   Q 768.82 1464.63 777.98 1468.14   Q 781.23 1469.39 788.27 1469.33   Q 800.62 1469.22 814.70 1469.28   A 0.32 0.32 0.0 0 0 815.02 1468.96   Q 814.96 1440.04 815.05 1427.79   Q 815.08 1424.35 817.00 1418.78   C 820.74 1407.95 829.56 1399.88 840.46 1396.65   Q 845.49 1395.15 856.18 1395.21   Q 863.11 1395.25 911.49 1395.25   Q 912.01 1395.25 912.01 1395.76   Q 912.03 1420.10 912.01 1450.95   Q 912.00 1462.39 910.49 1467.43   C 907.18 1478.47 897.94 1487.68 886.70 1490.95   Q 882.33 1492.21 872.66 1492.27   Q 856.94 1492.37 851.26 1492.18   Q 838.27 1491.76 828.84 1481.66   Q 828.51 1481.31 828.16 1481.65   Q 821.46 1488.14 813.30 1490.73   Q 808.60 1492.22 799.50 1492.27   Q 795.36 1492.29 786.99 1492.27   Q 778.94 1492.26 774.60 1491.23   Q 762.39 1488.34 753.10 1478.84   Q 752.74 1478.48 752.38 1478.84   Q 743.15 1488.26 730.89 1491.20   Q 726.55 1492.24 717.04 1492.23   Q 704.74 1492.21 703.10 1492.33   Q 702.61 1492.37 702.57 1492.87   Z   M 841.69 1421.94   Q 838.11 1425.52 838.07 1429.84   Q 837.92 1449.38 838.03 1469.01   Q 838.03 1469.08 838.10 1469.16   Q 838.18 1469.23 838.25 1469.23   Q 857.88 1469.35 877.42 1469.20   Q 881.74 1469.17 885.32 1465.59   Q 888.90 1462.01 888.94 1457.69   Q 889.09 1438.15 888.98 1418.52   Q 888.98 1418.45 888.90 1418.38   Q 888.82 1418.30 888.75 1418.30   Q 869.12 1418.19 849.58 1418.33   Q 845.26 1418.37 841.69 1421.94   Z"></path>
  <path fill="#1d4593" d="   M 1553.37 1341.50   L 1575.64 1341.50   A 0.36 0.36 0.0 0 1 1576.00 1341.86   L 1576.00 1381.89   A 0.36 0.36 0.0 0 1 1575.64 1382.25   L 1517.86 1382.25   A 0.36 0.36 0.0 0 1 1517.50 1381.89   L 1517.50 1359.61   A 0.36 0.36 0.0 0 1 1517.86 1359.25   L 1552.64 1359.25   A 0.36 0.36 0.0 0 0 1553.00 1358.89   L 1553.01 1341.86   A 0.36 0.36 0.0 0 1 1553.37 1341.50   Z"></path>
  <path fill="#1d4593" d="   M 1388.87 1482.91   Q 1386.32 1515.11 1359.63 1532.61   Q 1342.15 1544.07 1338.45 1546.57   Q 1338.00 1546.87 1337.53 1546.62   L 1315.14 1534.60   Q 1314.63 1534.33 1315.12 1534.01   Q 1338.22 1518.92 1346.43 1513.67   Q 1360.26 1504.84 1364.46 1489.96   Q 1365.76 1485.38 1365.75 1475.44   Q 1365.75 1455.94 1365.75 1409.35   A 0.40 0.40 0.0 0 1 1366.03 1408.97   L 1388.53 1402.19   A 0.37 0.37 0.0 0 1 1389.00 1402.54   L 1389.00 1469.01   A 0.24 0.24 0.0 0 0 1389.24 1469.25   L 1471.51 1469.25   A 0.25 0.24 -90.0 0 0 1471.75 1469.00   L 1471.75 1417.06   Q 1471.75 1416.56 1472.22 1416.42   L 1494.23 1409.79   Q 1494.75 1409.63 1494.75 1410.18   L 1494.75 1468.75   Q 1494.75 1469.25 1495.25 1469.25   L 1537.26 1469.25   A 0.24 0.24 0.0 0 0 1537.50 1469.01   L 1537.50 1417.02   A 0.65 0.65 0.0 0 1 1537.96 1416.40   L 1560.06 1409.74   A 0.34 0.34 0.0 0 1 1560.50 1410.06   L 1560.50 1468.97   A 0.28 0.27 0.0 0 0 1560.78 1469.24   Q 1580.87 1469.24 1586.97 1469.33   Q 1593.09 1469.42 1595.81 1467.96   Q 1599.54 1465.96 1601.30 1462.33   Q 1602.50 1459.84 1602.50 1454.95   Q 1602.51 1412.44 1602.50 1399.39   Q 1602.50 1398.84 1603.02 1398.69   L 1625.17 1392.01   A 0.28 0.28 0.0 0 1 1625.53 1392.28   Q 1625.48 1451.83 1625.46 1458.02   C 1625.43 1473.47 1614.50 1486.79 1600.16 1490.96   Q 1595.69 1492.26 1586.20 1492.26   Q 1582.52 1492.25 1411.50 1492.25   Q 1399.25 1492.24 1389.27 1482.75   Q 1388.91 1482.41 1388.87 1482.91   Z"></path>
  <path fill="#1d4593" d="   M 204.01 1469.25   L 278.26 1469.25   A 0.24 0.24 0.0 0 0 278.50 1469.01   L 278.50 1416.92   Q 278.50 1416.59 278.82 1416.50   L 301.08 1409.79   Q 301.75 1409.58 301.75 1410.28   L 301.75 1468.75   Q 301.75 1469.25 302.25 1469.25   L 344.50 1469.25   A 0.25 0.25 0.0 0 0 344.75 1469.00   L 344.75 1417.05   Q 344.75 1416.56 345.22 1416.42   L 367.13 1409.81   Q 367.75 1409.63 367.75 1410.27   L 367.75 1468.70   Q 367.75 1469.20 368.25 1469.20   Q 382.51 1469.30 400.51 1469.28   Q 403.44 1469.28 404.70 1468.27   Q 406.49 1466.82 406.49 1463.75   Q 406.51 1431.13 406.50 1401.93   Q 406.50 1401.40 407.01 1401.25   L 428.94 1394.64   Q 429.49 1394.47 429.49 1395.04   L 429.49 1468.77   Q 429.49 1469.21 429.93 1469.21   Q 438.07 1469.25 491.01 1469.29   Q 500.69 1469.30 503.94 1462.25   Q 505.31 1459.27 505.28 1453.05   Q 505.24 1440.47 505.25 1409.29   A 0.36 0.36 0.0 0 1 505.52 1408.94   L 527.75 1402.23   Q 528.25 1402.08 528.25 1402.60   Q 528.28 1456.31 528.22 1458.99   Q 528.10 1463.76 526.17 1469.15   C 522.40 1479.60 513.64 1487.66 503.07 1490.87   Q 498.44 1492.28 489.82 1492.28   Q 456.63 1492.25 449.96 1492.23   Q 439.91 1492.19 435.71 1491.00   Q 428.43 1488.93 422.87 1483.88   Q 422.49 1483.54 422.12 1483.89   Q 417.02 1488.82 410.89 1490.92   Q 407.04 1492.25 399.90 1492.25   Q 312.27 1492.28 225.33 1492.24   Q 216.36 1492.24 212.32 1491.14   C 206.35 1489.52 200.44 1486.38 196.95 1481.49   A 0.78 0.78 0.0 0 0 195.76 1481.40   Q 189.15 1488.18 180.36 1490.84   Q 175.71 1492.25 166.48 1492.25   Q 81.62 1492.26 0.78 1492.25   A 0.28 0.28 0.0 0 1 0.50 1491.97   L 0.50 1417.04   Q 0.50 1416.53 0.99 1416.38   L 23.06 1409.73   A 0.34 0.34 0.0 0 1 23.50 1410.06   L 23.50 1468.97   A 0.29 0.29 0.0 0 0 23.79 1469.26   Q 112.39 1469.24 167.06 1469.27   Q 172.97 1469.27 175.72 1467.89   Q 179.73 1465.87 181.46 1461.67   Q 182.49 1459.17 182.50 1453.66   Q 182.53 1432.03 182.49 1409.70   Q 182.49 1409.00 183.16 1408.80   L 204.99 1402.22   A 0.39 0.39 0.0 0 1 205.49 1402.59   Q 205.52 1431.10 205.49 1459.72   Q 205.48 1462.09 203.64 1468.76   Q 203.50 1469.25 204.01 1469.25   Z"></path>
  <rect fill="#1d4593" x="72.25" y="1396.75" width="61.24" height="23.00" rx="0.36"></rect>
  <rect fill="#1d4593" x="1027.00" y="1396.75" width="61.00" height="23.00" rx="0.43"></rect>
  <path fill="#1d4593" d="   M 497.13 1542.00   L 462.63 1541.99   A 0.38 0.38 0.0 0 1 462.25 1541.61   L 462.24 1519.38   A 0.38 0.38 0.0 0 1 462.62 1519.00   L 520.38 1519.00   A 0.38 0.38 0.0 0 1 520.76 1519.38   L 520.76 1559.37   A 0.38 0.38 0.0 0 1 520.38 1559.75   L 497.87 1559.75   A 0.38 0.38 0.0 0 1 497.49 1559.37   L 497.51 1542.38   A 0.38 0.38 0.0 0 0 497.13 1542.00   Z"></path>
  <path fill="#1d4593" d="   M 468.01 1639.22   L 470.32 1700.28   A 0.39 0.39 0.0 0 1 469.97 1700.68   L 460.34 1701.87   A 0.39 0.39 0.0 0 1 459.91 1701.51   L 456.48 1644.67   A 0.39 0.39 0.0 0 1 456.69 1644.29   L 467.45 1638.88   A 0.39 0.39 0.0 0 1 468.01 1639.22   Z"></path>
  <path fill="#1d4593" d="   M 561.99 1639.16   L 564.29 1700.32   A 0.34 0.34 0.0 0 1 563.99 1700.67   L 554.26 1701.87   A 0.34 0.34 0.0 0 1 553.88 1701.55   L 550.44 1644.64   A 0.34 0.34 0.0 0 1 550.63 1644.32   L 561.50 1638.87   A 0.34 0.34 0.0 0 1 561.99 1639.16   Z"></path>
  <path fill="#1d4593" d="   M 862.75 1639.19   L 865.05 1700.29   A 0.36 0.36 0.0 0 1 864.73 1700.66   L 855.04 1701.85   A 0.36 0.36 0.0 0 1 854.64 1701.52   L 851.19 1644.64   A 0.36 0.36 0.0 0 1 851.39 1644.29   L 862.23 1638.88   A 0.36 0.36 0.0 0 1 862.75 1639.19   Z"></path>
  <path fill="#1d4593" d="   M 715.25 1687.73   L 709.46 1652.42   A 0.69 0.64 73.9 0 1 709.83 1651.69   L 720.57 1646.70   A 0.18 0.17 74.8 0 1 720.81 1646.84   L 725.85 1686.76   Q 725.92 1687.34 726.50 1687.23   C 731.40 1686.28 737.16 1684.46 736.70 1678.71   Q 735.30 1661.20 734.12 1644.00   Q 734.08 1643.42 734.63 1643.26   L 745.18 1640.08   Q 745.50 1639.98 745.52 1640.31   Q 746.98 1667.92 747.44 1676.25   Q 747.62 1679.51 749.90 1683.57   Q 752.30 1687.84 758.02 1688.21   Q 762.70 1688.52 768.51 1687.81   C 772.25 1687.35 775.56 1686.04 775.40 1681.59   Q 775.35 1680.24 776.03 1672.47   Q 776.08 1672.00 776.55 1672.00   L 786.01 1672.00   Q 786.59 1672.00 786.58 1672.58   Q 786.40 1678.62 786.00 1683.82   Q 785.70 1687.64 788.82 1688.41   Q 794.35 1689.76 800.09 1687.84   Q 806.23 1685.77 805.77 1679.28   Q 805.66 1677.67 805.81 1672.26   Q 805.82 1671.87 806.22 1671.85   L 815.85 1671.49   Q 816.41 1671.47 816.43 1672.03   C 816.76 1678.94 814.54 1688.12 824.49 1688.65   Q 827.32 1688.81 828.64 1686.70   Q 829.43 1685.44 828.93 1682.72   Q 826.95 1671.88 826.23 1668.01   A 0.64 0.62 -21.5 0 1 826.52 1667.36   L 836.60 1661.13   A 0.38 0.38 0.0 0 1 837.18 1661.38   Q 838.73 1669.08 840.19 1679.59   Q 841.12 1686.28 839.87 1689.85   Q 836.54 1699.36 826.99 1701.43   Q 817.48 1703.49 810.57 1695.68   Q 810.20 1695.26 809.80 1695.65   Q 805.23 1700.17 798.24 1701.36   Q 786.83 1703.30 779.21 1697.32   Q 778.77 1696.97 778.26 1697.23   Q 772.91 1699.98 766.06 1700.67   C 756.25 1701.65 748.06 1700.82 742.42 1692.48   Q 742.26 1692.23 742.05 1692.44   C 734.79 1699.50 723.86 1700.89 713.88 1700.96   Q 713.42 1700.97 713.34 1700.51   L 711.41 1688.69   Q 711.33 1688.25 711.78 1688.25   L 714.81 1688.25   Q 715.33 1688.25 715.25 1687.73   Z"></path>
  <rect fill="#1d4593" x="-6.19" y="-6.19" transform="translate(417.65,1658.00) rotate(-44.9)" width="12.38" height="12.38" rx="0.52"></rect>
  <path fill="#1d4593" d="   M 1070.94 1708.75   Q 1071.22 1708.19 1072.95 1704.37   Q 1079.01 1690.96 1093.79 1688.59   Q 1096.07 1688.22 1099.23 1688.29   C 1105.22 1688.42 1109.61 1685.95 1112.69 1680.69   Q 1114.94 1676.85 1118.64 1670.14   C 1122.38 1663.34 1128.90 1656.54 1137.47 1658.01   C 1144.77 1659.26 1149.51 1666.87 1151.66 1673.69   Q 1152.37 1675.95 1153.96 1681.85   C 1155.44 1687.38 1159.59 1688.47 1165.12 1688.27   Q 1175.30 1687.90 1185.27 1684.50   Q 1195.44 1681.03 1206.30 1675.82   A 0.25 0.24 48.1 0 0 1206.32 1675.39   Q 1197.39 1670.00 1191.33 1666.68   Q 1184.97 1663.20 1179.92 1668.16   Q 1177.27 1670.76 1175.37 1673.14   A 0.49 0.49 0.0 0 1 1174.75 1673.26   L 1166.42 1668.79   A 0.68 0.67 -58.3 0 1 1166.19 1667.80   Q 1168.73 1664.25 1171.27 1661.28   Q 1179.76 1651.31 1191.28 1653.68   Q 1195.55 1654.55 1203.08 1659.04   Q 1211.30 1663.93 1214.45 1665.32   Q 1220.58 1668.04 1224.25 1668.28   Q 1230.84 1668.72 1233.73 1668.82   Q 1234.21 1668.84 1234.04 1669.29   L 1229.41 1681.48   Q 1229.21 1681.99 1228.66 1681.93   Q 1220.94 1681.02 1213.93 1684.62   Q 1197.26 1693.18 1180.70 1698.18   Q 1173.88 1700.24 1165.51 1700.91   Q 1157.04 1701.59 1150.16 1696.55   Q 1149.74 1696.25 1149.36 1696.59   C 1140.20 1704.91 1124.42 1705.09 1117.16 1694.01   Q 1116.87 1693.56 1116.48 1693.93   C 1110.84 1699.29 1104.69 1701.25 1097.04 1701.00   Q 1093.48 1700.89 1089.56 1701.34   Q 1084.13 1701.97 1083.07 1707.30   Q 1082.32 1711.13 1082.57 1715.21   Q 1082.60 1715.76 1082.15 1716.07   L 1071.37 1723.48   A 0.75 0.73 -48.3 0 1 1070.63 1723.53   Q 1055.57 1716.12 1050.36 1701.47   Q 1050.19 1701.00 1049.69 1701.00   L 1033.78 1701.00   A 0.61 0.60 6.6 0 0 1033.19 1701.46   C 1030.55 1712.34 1022.60 1720.93 1011.01 1721.64   Q 1004.86 1722.02 998.86 1720.91   A 0.95 0.95 0.0 0 1 998.09 1720.04   L 997.49 1709.95   A 0.54 0.54 0.0 0 1 998.10 1709.38   Q 1004.96 1710.32 1010.96 1709.17   Q 1018.53 1707.73 1022.46 1701.56   Q 1022.82 1701.00 1022.15 1701.02   Q 1016.86 1701.12 1012.01 1700.84   C 992.49 1699.71 993.05 1677.72 1000.28 1665.40   C 1004.94 1657.46 1012.53 1652.87 1021.54 1656.63   C 1028.72 1659.63 1032.84 1667.56 1034.31 1675.22   Q 1035.67 1682.26 1035.19 1687.66   Q 1035.14 1688.27 1035.75 1688.27   L 1049.47 1688.27   Q 1050.02 1688.27 1050.05 1687.73   Q 1051.19 1671.11 1061.96 1658.95   Q 1065.67 1654.76 1068.72 1654.16   Q 1072.11 1653.49 1075.33 1654.81   Q 1077.46 1655.69 1079.10 1658.92   Q 1082.73 1666.04 1084.07 1674.07   C 1086.40 1687.94 1075.77 1698.73 1062.55 1700.09   Q 1061.90 1700.16 1062.26 1700.70   Q 1065.22 1705.20 1070.33 1708.90   Q 1070.72 1709.18 1070.94 1708.75   Z   M 1060.99 1687.68   Q 1060.95 1688.12 1061.39 1688.09   C 1067.12 1687.76 1072.22 1685.30 1072.56 1678.74   Q 1072.76 1674.93 1069.88 1668.02   Q 1069.67 1667.51 1069.23 1667.84   Q 1067.75 1668.95 1065.73 1672.47   Q 1061.67 1679.53 1060.99 1687.68   Z   M 1024.56 1688.22   A 0.13 0.13 0.0 0 0 1024.69 1688.09   C 1025.06 1681.32 1024.05 1674.01 1018.25 1669.88   C 1010.76 1664.54 1006.10 1676.05 1005.79 1681.51   C 1005.51 1686.42 1010.21 1688.12 1014.29 1688.27   Q 1017.18 1688.38 1024.56 1688.22   Z   M 1133.95 1689.88   C 1138.00 1690.07 1143.73 1689.32 1142.97 1683.79   Q 1141.95 1676.29 1136.45 1671.08   Q 1135.90 1670.57 1134.85 1670.52   Q 1133.81 1670.47 1133.21 1670.93   Q 1127.25 1675.61 1125.54 1682.98   C 1124.27 1688.41 1129.90 1689.69 1133.95 1689.88   Z"></path>
  <path fill="#1d4593" d="   M 502.32 1698.88   Q 502.12 1699.51 501.32 1702.85   C 497.63 1718.28 483.69 1724.29 469.04 1720.85   Q 468.63 1720.76 468.57 1720.34   L 467.25 1709.84   Q 467.15 1709.08 467.91 1709.23   Q 471.53 1709.98 476.31 1709.60   C 486.88 1708.77 493.88 1701.63 492.30 1690.71   Q 490.87 1680.84 489.44 1673.88   A 1.07 1.06 -21.5 0 1 489.93 1672.76   L 500.12 1666.45   Q 500.57 1666.17 500.66 1666.70   Q 501.27 1670.40 502.37 1677.96   C 503.19 1683.57 504.66 1688.03 511.27 1688.23   Q 521.37 1688.53 527.02 1687.52   Q 530.15 1686.97 532.38 1685.38   C 535.00 1683.52 533.35 1678.06 532.21 1674.79   Q 529.90 1668.16 528.64 1664.92   Q 528.44 1664.40 528.86 1664.03   L 537.83 1656.34   Q 538.11 1656.10 538.26 1656.43   Q 543.24 1667.07 544.41 1678.34   Q 545.73 1691.11 536.69 1696.85   Q 531.82 1699.94 522.62 1700.76   Q 514.63 1701.47 507.78 1700.49   Q 506.12 1700.25 502.91 1698.63   Q 502.47 1698.41 502.32 1698.88   Z"></path>
  <path fill="#1d4593" d="   M 938.37 1701.61   A 0.35 0.35 0.0 0 0 938.19 1700.99   C 931.72 1700.15 927.43 1700.15 923.36 1697.78   Q 918.36 1694.86 917.85 1688.82   C 916.91 1677.83 923.64 1665.29 932.99 1659.50   C 937.35 1656.80 947.50 1655.57 947.19 1663.75   C 947.06 1667.23 945.73 1671.17 941.48 1670.92   C 939.02 1670.77 937.38 1670.35 934.89 1672.15   Q 929.94 1675.72 928.18 1681.97   Q 927.05 1686.00 931.11 1686.93   C 934.46 1687.69 939.79 1688.20 942.86 1689.79   Q 949.77 1693.37 948.92 1701.04   C 948.16 1707.98 942.17 1713.41 936.12 1716.85   Q 925.77 1722.73 914.50 1723.27   C 900.16 1723.95 889.41 1717.54 888.15 1702.41   Q 887.40 1693.41 890.94 1682.61   Q 891.14 1682.01 891.75 1682.11   L 900.94 1683.63   A 0.47 0.47 0.0 0 1 901.31 1684.26   Q 898.33 1692.51 898.63 1699.50   Q 898.80 1703.61 901.58 1706.49   C 904.90 1709.94 910.97 1710.23 916.03 1709.95   C 924.16 1709.52 932.12 1706.87 938.37 1701.61   Z"></path>
  <path fill="#1d4593" d="   M 645.67 1701.06   Q 648.91 1707.10 644.02 1712.30   Q 641.07 1715.45 636.71 1717.49   Q 626.57 1722.24 614.84 1723.20   Q 608.79 1723.69 604.18 1722.54   Q 588.54 1718.62 587.43 1702.53   Q 586.71 1692.10 590.47 1682.12   Q 590.53 1681.96 590.70 1681.98   L 600.34 1683.57   A 0.36 0.36 0.0 0 1 600.62 1684.04   Q 594.91 1700.47 600.89 1706.54   Q 604.98 1710.71 617.79 1709.92   Q 626.50 1709.39 635.26 1706.38   Q 636.14 1706.08 635.24 1705.84   L 622.35 1702.35   Q 621.80 1702.20 622.00 1701.67   L 626.92 1688.71   Q 627.10 1688.24 627.61 1688.24   Q 641.17 1688.22 651.28 1688.29   Q 659.88 1688.34 664.19 1680.92   Q 664.95 1679.61 670.45 1669.96   C 675.15 1661.70 683.12 1654.71 692.49 1659.14   C 700.43 1662.88 704.49 1673.44 705.23 1681.83   Q 705.84 1688.75 703.53 1692.98   C 696.88 1705.17 676.04 1706.08 668.80 1693.91   A 0.36 0.35 -37.7 0 0 668.25 1693.84   Q 658.94 1702.73 646.03 1700.57   Q 645.34 1700.45 645.67 1701.06   Z   M 687.52 1689.82   C 690.92 1689.64 695.33 1688.78 694.70 1684.33   C 694.10 1680.09 690.93 1670.93 686.19 1670.55   C 683.20 1670.31 679.57 1676.10 678.37 1678.75   C 674.52 1687.21 679.61 1690.23 687.52 1689.82   Z"></path>
  <path fill="#1d4593" d="   M 980.64 1662.85   Q 982.74 1667.85 984.40 1672.67   C 989.58 1687.64 991.10 1713.12 971.90 1719.86   Q 963.40 1722.85 953.97 1720.57   Q 953.76 1720.52 953.74 1720.31   L 952.41 1709.76   Q 952.30 1708.93 953.13 1709.06   C 963.53 1710.71 975.23 1708.29 977.37 1696.39   Q 978.21 1691.71 976.26 1685.60   Q 973.89 1678.20 970.84 1671.53   A 0.78 0.77 57.6 0 1 971.04 1670.61   L 980.20 1662.75   A 0.28 0.28 0.0 0 1 980.64 1662.85   Z"></path>
  <path fill="#1d4593" d="   M 436.60 1696.35   Q 435.55 1687.93 433.77 1673.65   A 0.29 0.29 0.0 0 1 433.93 1673.36   L 444.45 1668.49   Q 445.06 1668.20 445.15 1668.88   Q 446.71 1681.81 447.38 1689.65   Q 448.06 1697.50 446.24 1703.30   Q 445.34 1706.19 442.33 1709.06   Q 434.58 1716.46 420.55 1719.69   Q 411.36 1721.80 403.39 1718.46   C 393.28 1714.23 390.59 1701.79 392.17 1691.74   Q 393.16 1685.43 394.65 1681.40   Q 394.83 1680.91 395.35 1680.99   L 404.54 1682.51   A 0.47 0.46 -77.4 0 1 404.91 1683.10   C 402.03 1693.08 399.49 1707.47 415.33 1706.95   Q 425.97 1706.61 434.91 1700.44   Q 435.92 1699.74 436.42 1698.61   Q 436.78 1697.78 436.60 1696.35   Z"></path>
  <rect fill="#1d4593" x="-6.16" y="-6.16" transform="translate(1193.39,1713.03) rotate(-44.5)" width="12.32" height="12.32" rx="0.45"></rect>
  <path fill="#1d4593" d="   M 530.50 1712.18   Q 530.78 1712.18 531.30 1711.52   Q 531.88 1710.79 537.16 1705.91   Q 537.54 1705.56 537.92 1705.92   Q 541.57 1709.31 545.24 1713.16   Q 545.27 1713.19 545.27 1713.29   Q 545.27 1713.32 545.27 1713.35   Q 545.27 1713.39 545.27 1713.42   Q 545.27 1713.52 545.24 1713.55   Q 541.58 1717.40 537.93 1720.79   Q 537.55 1721.15 537.17 1720.80   Q 531.88 1715.93 531.30 1715.20   Q 530.78 1714.54 530.50 1714.54   Q 530.22 1714.54 529.70 1715.20   Q 529.12 1715.93 523.84 1720.81   Q 523.46 1721.16 523.08 1720.80   Q 519.43 1717.41 515.76 1713.56   Q 515.73 1713.53 515.73 1713.43   Q 515.73 1713.40 515.73 1713.36   Q 515.73 1713.33 515.73 1713.30   Q 515.73 1713.20 515.76 1713.17   Q 519.43 1709.31 523.07 1705.92   Q 523.45 1705.56 523.83 1705.91   Q 529.12 1710.79 529.70 1711.52   Q 530.22 1712.18 530.50 1712.18   Z"></path>
</svg>
