<?xml version="1.0" encoding="UTF-8"?><svg id="Layer_2" xmlns="http://www.w3.org/2000/svg" viewBox="0 0 1315.81 1315.82"><g id="Capa_1"><circle cx="657.91" cy="657.91" r="657.91" style="fill:#f4e842; stroke-width:0px;"/><path d="m1216.97,577.09c-4.15-14.93-10.45-29.25-13.64-44.41-6.96-33-3.86-65.03-14.61-97.48-10.68-32.24-27.03-61.07-45.76-89.6-47.06-71.68-114.9-127.42-186.86-174.05-46.16-29.91-94.98-56.77-147.92-71.71-38.26-10.79-78.07-15.18-117.79-16.91-104.56-4.55-212.48,10.05-303.94,60.94-24.6,13.69-47.77,29.85-69.98,47.15-40.64,31.65-78.33,67.29-110.49,107.53-128,160.17-156.53,392.18-76.24,580.85,19.72,46.32,45.4,90.1,76.23,129.91,77.37,99.91,186.84,173.41,306.76,213.25,28.53,9.48,57.86,17.16,87.84,19.47,41.41,3.18,82.83-3.96,123.74-11.06,50.98-8.86,102.42-17.85,150.38-37.29,56.77-23.01,106.68-59.83,155.92-96.27,14.48-10.72,29.02-21.49,41.76-34.24,24.63-24.65,41.59-55.75,58.2-86.37,19.51-35.96,39.02-71.93,58.53-107.89,31.06-57.25,29.02-137.75,33.61-201.61.2-2.8.38-5.62.55-8.43,1.59-27.49,1.09-55.32-6.27-81.79Z" style="fill:#fdfbe8; stroke-width:0px;"/><path d="m895.98,257.17c-25.91,10.9-43.03,63.69-56.61,88.22l-59.24,107.06c-21.42,38.72-42.85,77.43-64.27,116.15-3.3,5.97-6.41,12.16-9.44,18.45-6.11,17.95-14.92,35.22-21.23,52.91-1.52,4.25-2.9,9.3-.32,13,3.2,4.6,10.07,3.98,15.53,2.76,1.41-.31,2.81-.63,4.21-.96,47.41-14.91,94.75-30.1,141.99-45.55,61.2-20.03,122.64-40.67,179.1-71.63,26.86-14.73,54.56-34.57,61.69-64.37,12.26-51.23-44.32-114.36-74.48-151.76-25.27-31.35-70.74-83.69-116.95-64.26Z" style="fill:#f9d855; stroke-width:0px;"/><path d="m635.85,739.03c-1.12,1.23-2.28,2.41-3.47,3.56-6.22,8.89-12.91,17.5-19.58,25.94-42.6,53.92-86.82,106.56-132.58,157.83-24.28,27.2-49.12,54.07-70.86,83.39-7.52,10.14-26.58,29.35-23.28,43.24,3.22,13.54,35.42,25.76,46.69,31.69,40.64,21.39,117.53,60.37,165.08,52.14,23.51-4.22,20.26-12.56,46.24-2.9,6.19-76.96,10.71-154.06,13.56-231.21,1.42-38.58,2.43-77.17,3.02-115.77.18-12.09,1.88-25.11,3.54-38.26-1.42-12.57-2.84-25.13-4.26-37.7.41,3.63-20.84,24.47-24.1,28.06Z" style="fill:#f9d855; stroke-width:0px;"/><path d="m894.21,1003.39c-59.31-97.88-124.2-192.37-194.24-282.88-5.08-4.04-10.11-8.02-14.91-12.02-.99-.82-2.04-1.68-3.31-1.87-3.58-.54-5.54,3.99-6.18,7.55-1.6,8.86-3.31,18.1-4.69,27.47,6.94,80.47,13.87,160.93,20.81,241.4,2,23.12,3.99,46.23,5.98,69.35,1.61,18.61-2.57,57.07,7.23,73.01,14.37,23.35,59.31,4.11,82.6-2.37,30.71-8.54,70.33-20.58,95.83-40.38,15.3-11.88,26.52-30.98,23.62-50.14-1.6-10.55-7.19-20-12.72-29.12Z" style="fill:#f9d855; stroke-width:0px;"/><path d="m1053.97,843.6c-111.43-36.73-220-82.14-324.42-135.64-6.69-1.42-13.43-2.62-20.2-3.6-1.16-.17-2.51-.27-3.34.55-1.25,1.23-.34,3.32.61,4.79,4.81,7.41,9.64,14.64,14.58,21.76,22.28,23.64,43.12,48.62,62.37,74.79,52.35,71.14,93.18,151.19,154.08,215.16,46.49,48.75,132.15-111.91,138.71-144.2,1.3-6.42,2.19-13.37-.65-19.27-3.87-8.06-13.26-11.55-21.75-14.35Z" style="fill:#f9d855; stroke-width:0px;"/><path d="m749.29,645.43c-7.47,5.75-16.24,9.67-24.6,14.01-11.94,6.21-17.03,13.36-24.65,24.52-.52.76-1.05,1.56-1.21,2.47-.51,3.04,3.11,4.95,6.04,5.9,9.8,3.17,19.45,6.8,28.91,10.88,29.54,8.93,60.47,16.03,84.97,24.68,54.83,19.35,109.65,38.71,164.48,58.06,31.11,10.98,110.48,57.12,132.37,27.06,25.4-34.89,25.02-113.91,25.02-155.11,0-29.23,6.49-131.39-39.47-119.67-118.43,30.19-235.46,65.82-350.62,106.76l-1.24.44Z" style="fill:#f9d855; stroke-width:0px;"/><path d="m639.68,716.33c5.87-9.72,12.67-22.57,6.72-26.07-3.7-2.18-11.78-.99-19.24.47,3.63.08,7.26.15,10.89.22-128.74,16.98-259.01,22.38-388.72,16.11-30.42-1.47-69.58-.77-68.65,35.08.74,28.33,17.4,65.75,27.72,92.04,14.69,37.43,34.68,70.95,56.74,104.37,16.13,24.43,30.46,68.37,65.98,68.88,18.3.26,33.56-13.2,46.81-25.84,52.54-50.09,105.08-100.19,157.62-150.29,37.45-35.71,75.52-72.26,104.13-114.97Z" style="fill:#f9d855; stroke-width:0px;"/><path d="m806.91,363.87c15.16-30.74,66.64-98.98,55.13-133.3-10.47-31.23-57.88-33.63-84.25-40.37-39.12-10-79.51-15.01-119.88-15.01-27.02,0-58.24.65-70.66,29.44-8.11,18.81-5.95,40.27-3.43,60.59,14.91,120.45,36.91,240.03,65.86,357.9,1.94,3.55,4.08,6.98,6.48,10.26,2.69,3.68,6.73,7.5,11.16,6.4,2.73-.68,4.61-3.06,6.18-5.44,44.47-90.16,88.94-180.31,133.41-270.47Z" style="fill:#f9d855; stroke-width:0px;"/><path d="m336.84,405.44c80.8,75.97,167.21,145.67,255.27,213.15,16.41,10.26,33.44,19.53,50.97,27.73,1.67.78,3.79,1.51,5.22.36,1.16-.93,1.25-2.65,1.17-4.13-1.06-18.73-13.81-36.92-14.88-56.08-35.73-110.09-66.92-221.72-85.41-335.88-2.16-13.33-4.32-27.15-11.69-38.46-25.46-39.04-109.73,20-138.41,38.25-33.25,21.16-111.55,65.98-93.25,115.07,5.95,15.95,18.6,28.33,31,39.99Z" style="fill:#f9d855; stroke-width:0px;"/><path d="m602.98,690.23c6.17-1.91,12.26-4.13,18.26-6.73,14.5-6.28,29.58-14.55,11.04-28.1-5.34-3.91-10.54-7.99-15.62-12.24-88.61-53.69-173.31-113.84-253.19-179.83-29.47-24.35-58.82-49.83-93.7-65.48-62.57-28.06-96.74,225.28-98.71,260.25-.43,7.53-.12,16.39,6.01,20.78,3.73,2.67,8.64,2.86,13.22,2.96,137.56,2.8,275.12,5.6,412.67,8.4Z" style="fill:#f9d855; stroke-width:0px;"/></g></svg>