<?xml version="1.0" encoding="UTF-8"?><svg id="Layer_1" xmlns="http://www.w3.org/2000/svg" viewBox="0 0 1490 1267.55"><path d="m1353.37,1185.32c-3.11.72-6.23,1.33-9.34,1.89-28.36-26.41-34.2-52.38-48.71-88.69-6.84-17.14-29.61-15.83-36.66-4.33.91,10.13,3.45,19.96,4.84,30.03.66,2.03,1.35,4.1,1.95,6.07.21.53.46,1.04.6,1.59.28,1.11.58,2.22.88,3.32,5.7,19.1,10.31,35.71,25.22,53.46-26.52-3.17-52.21-12.29-74.68-27.19.28-1.67.44-3.34.56-5.12,0,0,0-.02,0-.03-.12-.34-.27-.66-.37-1.01,0,.06.02.12.02.17-.12-.66-.39-1.28-.61-1.92-.25-.47-.54-.92-.85-1.36,0-.01-.02-.03-.02-.04-5.15-1.07-10.04-3.18-15.32-3.17-7.53.01-16.18,4.37-22.98,10-.18.06-.34.15-.51.22-4.16,4.39-8.97,8.2-12.52,13.22-4.89,6.89-7.78,14.06-9.96,22.09-.49,1.8-1.26,3.28-2.14,4.59.03,1.93.29,3.88.82,5.84,1.06,3.91,3.39,6.79,6.31,8.68,0,.02.02.04.03.05.85.33,1.7.65,2.54.99.38-.12.77-.26,1.12-.39.85-.29,1.72-.56,2.59-.78,5.33-1.33,10.34-.46,14.75,2.16.78.29,1.58.52,2.33.96,1.14.68,2.15,1.48,3.06,2.39,55.14,33.93,119.7,45.32,184.72,30.23,41.54-9.62,23.97-73.57-17.63-63.95Z" style="fill:#40b049; stroke-width:0px;"/><path d="m1477,296.52c4.02-10.34,8.34-20.61,13-30.7-26.98,14.75-56.66,25.24-76.94,35.35-118.43,58.98-203.98,196.46-230.44,339.71-14.52,78.45-10.32,162.3,8.09,243.43,9.05,39.88,21.46,79.2,37.32,117.08,5.41,12.89,11.47,25.48,17.68,38,.64,6.22,3.13,11.77,4.38,18.29,1.59,8.31,2.26,16.81,3.5,25.18,2.09,14.15,4.27,29,10.81,41.85.18,1.42.27,2.84.5,4.26.49.92.9,1.89,1.16,2.91,1.19,4.67,2.48,9.32,3.55,14.02,4.31,10.14,11.29,18.25,22.32,21.08,7.38,1.89,13.85-2.43,16.35-9.28,6.52-17.85-6.75-35.48-6.65-54.03.05-10.03,2.65-18.81,6.01-27.32,1.8-2.44,3.58-4.96,5.22-7.52,47.6-35.63,87.68-82.83,113.26-140.72,34.75-78.57,36.97-162.51,26.49-252.99-10.45-90.12-19.62-177.17-3.95-264.3,7.03-39.26,14.23-78.09,28.37-114.29Z" style="fill:#40b049; stroke-width:0px;"/><path d="m1223.81,492.4c-20.19-97.37-56.61-192.68-115.05-274.08-40.81-56.83-89.08-118.22-147.25-160.81,6.23,5.06,12.29,10.4,18.02,16.18,1.84,1.84,3.63,3.71,5.4,5.6l-23.42-21.78L26.6,911.51c6.02,11.9,12.57,23.52,19.61,34.82-7.46-10.98-14-22.6-19.61-34.82,11.84,33.36,31.58,65.12,51.6,93.42,55.22,78.13,137.4,137.68,223.26,179.39,87.97,42.71,183.89,67.84,281.2,77.96,110.71,11.57,222.82,3.28,332.03-16.79,55.66-10.18,97.09-39.76,153.2-33.53,19.35,2.17,45.32,5.95,70.23,5.34,22.24-.56,43.65-4.67,58.78-16.63,2.95-2.39,5.67-5,8.12-8.01,7.17-8.9,11.9-20.69,13.01-36.31.39-5.84.44-12.57.33-19.68-.44-21.41-2.45-46.49-.33-63.72,3.45-28.41,6.01-57.27,9.23-85.69,6.56-57.11,12.46-114.38,15.51-171.77,5.89-107.88,2.95-216.98-18.96-323.07Z" style="fill:#fd0; stroke-width:0px;"/><path d="m1005.63,1123.89c-30.56-10.91-60.88-22.56-90.87-35.01-3.7-1.54-7.35-3.26-10.86-5.19-59.1-32.55-103.87-75.6-142.69-123.24-34.8-42.7-95.87-52.89-142.34-23.32h0c-209.8,133.51-430.12,157.48-545.22,42.37-19.74-19.74-35.37-42.59-47.04-68.01,11.84,33.36,31.58,65.12,51.6,93.42,55.22,78.13,137.4,137.68,223.26,179.39,87.97,42.71,183.89,67.84,281.2,77.96,110.71,11.57,222.82,3.28,332.03-16.79,55.66-10.18,97.09-39.76,153.2-33.53,40.26,4.45,109.27,16.13,137.63-19.96,1.33-1.72,2.61-3.5,3.73-5.45-65.86-17.47-129.4-42.56-195.19-60.04-2.84-.75-5.65-1.61-8.42-2.6Z" style="fill:#ffc20e; stroke-width:0px;"/><ellipse cx="526.61" cy="526.61" rx="640.55" ry="379.68" transform="translate(-218.13 526.61) rotate(-45)" style="fill:#ffc20e; stroke-width:0px;"/><ellipse cx="528.51" cy="525.21" rx="623.22" ry="367.64" transform="translate(-216.59 527.54) rotate(-45)" style="fill:#fff; stroke-width:0px;"/><g id="_Radial_Repeat_"><path d="m442.32,572.52l-260.67,151.03c-79.11,45.83-124.33,147.02-85,190.34l39.18,43.18c39.29,43.28,136.8-.28,183.36-81.89l153.51-269.13c23.97-41.99,10.23-57.01-30.4-33.44l.02-.09Z" style="fill:#fd0; stroke-width:0px;"/></g><g id="_Radial_Repeat_-2"><path d="m464.39,499.62l-181.1-82.05c-54.93-24.89-150.81,39.67-180.28,121.42l-29.38,81.5c-29.48,81.75,27.16,125.98,106.46,83.28l261.44-140.87c40.76-21.97,51-50.39,22.81-63.22l.06-.06Z" style="fill:#fd0; stroke-width:0px;"/></g><g id="_Radial_Repeat_-3"><path d="m531.33,443.41l34.88-253.36c10.56-76.86-63.73-97.62-139.82-38.96l-75.82,58.45c-76.03,58.6-102.93,157.43-50.56,185.74l172.5,93.43c26.89,14.59,53.35-5.85,58.79-45.32l.04.03Z" style="fill:#fd0; stroke-width:0px;"/></g><g id="_Radial_Repeat_-4"><path d="m592.87,446.19l224.54-233.86c68.12-70.95,71.33-161.35,5.96-169.96l-65.15-8.64c-65.38-8.61-155.51,70.27-169.55,148.34l-46.33,257.42c-7.2,40.13,15.54,43.12,50.51,6.67l.04.03Z" style="fill:#fd0; stroke-width:0px;"/></g><g id="_Radial_Repeat_-5"><path d="m602.52,505.93l245.13-38.25c74.4-11.59,152.7-103.62,147.24-173.03l-5.47-69.19c-5.46-69.41-90.95-69.81-160.84-.73l-230.27,227.52c-35.89,35.48-34.02,59.65,4.21,53.67Z" style="fill:#fd0; stroke-width:0px;"/></g><g id="_Radial_Repeat_-6"><path d="m553.1,577.6l81.17,186.12c24.64,56.45,119.08,32.14,177.64-45.75l58.39-77.7c58.56-77.88,42.06-157.3-31.04-149.29l-240.86,26.38c-37.55,4.1-57.92,31.22-45.29,60.24Z" style="fill:#fd0; stroke-width:0px;"/></g><g id="_Radial_Repeat_-7"><path d="m481.81,607.22l-143.94,270.38c-43.65,82.04-4.2,143.69,74.27,115.94l78.28-27.7c78.47-27.75,143.42-126.35,122.18-185.45l-70.04-194.69c-10.9-30.38-38.25-20.68-60.69,21.47l-.06.06Z" style="fill:#fd0; stroke-width:0px;"/></g></svg>