<?xml version="1.0" encoding="UTF-8"?><svg id="Layer_2" xmlns="http://www.w3.org/2000/svg" viewBox="0 0 940.96 1408.37"><g id="Layer_1-2"><path d="m766.26,374.33c-.17-.14-.34-.3-.51-.44v-.2l.51.64Z" style="fill:#f7ae0f; stroke-width:0px;"/><path d="m873.07,854.62c-2.1,11.02-4.16,22.01-6.25,33.03-3.52,1.99-2.91,5.65-3.52,8.82-8.72,46.01-21.37,90.61-46.96,130.54-2.1-7.44-4.6-4.06-7.1-.24-5.14,7.91-10.11,15.92-15.42,23.73-19.98,29.62-44.86,55.04-69.04,81.08-1.08,1.12-2.2,2.23-3.28,3.31-12.58,6.12-22.96,15.35-34.01,23.63-10.85,1.96-18.97,9.26-28.23,14.34-34.59,19.03-70.42,33.3-111.03,33.44-20.22.07-39.96-5.14-60.15-3.79,1.05-7.64,6.05-10.79,13.05-10.04,21.13,2.16,40.6-7.98,61.7-7.71,10.21.14,20.93-4.73,24.38-17.28,1.42-5.27,5.54-7.37,10.72-9.47,29.35-11.87,58.19-28.43,79.05-49.9,25.93-26.64,54.67-51.29,77.12-81.58,6.9-9.3,17.85-16.19,1.28-26.07-3.79-2.23-1.86-6.9-2.23-10.72-1.93-21.16,8.76-40.3,9.03-61.13.14-12.07-.74-23.87-12.98-28.2-10.55-3.72-18.97,4.73-26.27,11.66-15.11,14.34-27.69,30.87-40.33,47.37-34.11,44.43-66.77,89.36-120.46,114.45-51.8,24.17-104.84,32.02-160.43,24.38-21.47-2.94-42.19-11.06-63.46-15.99-12.1-2.81-27.49-5.92-35.13,4.5-13.69,18.66-26.24,11.12-39.83,2.81-7.07-4.29-15.96-9.4-21.33-3.14-5.44,6.39-.68,16.3,4.67,22.79,18.36,22.15,37.73,43.88,64.14,56.33,16.7,7.84,33,17.01,53.96,15.05,10.95-1.05,27.62,3.82,28.94,22.01-23.02,2.03-45.17-4.56-67.72-7.03-15.32-10.85-33.84-11.77-51.15-16.53-75.43-37.06-130.13-94.84-168.74-168.71,1.12-.17,2.3-.17,3.35-.54,8.49-2.94,12.92-17.48,26.27-8.15,2.74,1.93,4.67-5.07,1.01-8.22-5.58-4.77-11.83-9.09-14.34-16.23-2.13-6.05-9.77-9.91-6.96-17.95,2.87-8.25,12.04-2.81,16.57-6.73-1.69-9.37-14-11.7-12.98-23.36,9.64,5.31,15.52,11.39,18.49,20.45,1.76,5.31,4.06,10.41,10.28,12.48,12.31,4.02,19.1,11.77,19.81,25.63.37,7.47,3.41,16.16,15.01,10.62,6.83-3.28,11.26-.78,11.33,6.8.2,19,18.09,20.89,28.57,29.89,1.15,1.01,4.53.74,6.02-.24,2.27-1.49.95-3.92-.27-5.85-4.19-6.66-8.76-13.12-12.41-20.05-6.15-11.66-12.61-24.75-.68-35.53,11.73-10.58,23.7-1.52,33.4,5.38,31.75,22.58,66.88,36.18,104.98,43.11,54.74,9.97,109.91,9.67,160.36-13.63,75.4-34.76,122.8-97.68,152.99-173.58,9.37-23.6,7.44-24.34-17.28-32.25-1.01-.3-1.83-1.25-2.74-1.93,26.17-.44,53.22,3.58,76.48-13.05,26.34-18.87,33.54-41.86,12.44-62.75-9.33-9.3-21.5-13.39-34.92-12.81.71-6.9-.81-12.27-9.06-12.48-10.79-.27-10.95-6.02-8.42-14.4,1.22-4.06.47-8.69.64-13.08-.03-5.65-.1-11.29-.14-16.94-2.54-9.57-3.41-19.24-3.21-29.14.14-5.75,1.62-12.54-6.53-14.84-.03-2.23-.1-4.46-.14-6.69,3.04-15.45,2.16-30.29-6.63-43.92-.07-3.38-.14-6.76-.24-10.14-2.03-6.8-1.96-14.34-6.56-20.32-.34-9.5-1.28-19.03-1.66-28.43-1.18-28.13-9.37-55.14-11.87-82.97,3.75-3.41,3.85-6.8,0-10.18v-.03c-4.12-11.6-7.2-23.13-7.2-35.91,0-14.54-11.33-22.25-23.19-28.33,0-2.27.03-4.46.03-6.73,2.98-1.76,7.17-4.63,5.04-7.54-9.37-12.81-10.28-29.38-17.34-41.96-17.21-30.83-43.34-54.94-72.25-75.56-8.99-8.49-19.31-8.76-29.62-3.58-34.99,17.58-69.75,12.58-104.2-.95-14.81-5.82-29.41-11.02-45.64-8.66,1.28-2.3,2.57-4.56,3.82-6.86l.27-.3c37.46.03,74.89.2,112.31.07,2.4,0,5.04.41,7.51.27.3,0,.61-.03.91-.07.1,0,.17,0,.24-.03.24,0,.47-.07.68-.1.1,0,.2-.03.3-.07.2-.03.44-.1.68-.17.3-.07.57-.17.85-.3.27-.1.51-.24.74-.34.03,0,.07-.03.1-.07.27-.17.54-.34.81-.54.24-.2.51-.44.74-.68.1-.07.24-.2.34-.34.1-.14.2-.27.3-.37.2-.27.37-.54.57-.85.37-.61.68-1.28.98-2.1h.03c2.23-.41,4.5-.85,6.76-1.25.98.51,1.96,1.45,2.98,1.49,36.14,1.49,67.04,21.54,101.46,29.68,8.49,1.99,19.95,12.95,28.77,20.25,19.44,16.09,39.02,32.15,59.88,46.22,13.49,9.13,21.23,24.68,36.92,30.77,10.35,10.04,19.95,20.73,26.81,33.54-.17,1.52-.17,2.98-.03,4.29,0,.24.03.47.07.71.03.37.1.74.17,1.05.07.34.1.61.2.95.1.47.2.91.37,1.35.07.2.14.41.2.61.1.37.27.74.41,1.08.14.3.24.57.41.88.17.37.34.71.54,1.05.1.24.24.44.37.64.37.61.78,1.22,1.22,1.79.44.68.95,1.28,1.49,1.86.47.57.98,1.08,1.52,1.62.34.37.71.71,1.08,1.05.61.57,1.25,1.18,1.89,1.72.61.54,1.22,1.08,1.83,1.59,1.35,1.15,2.77,2.27,4.12,3.45.51.44,1.01.85,1.49,1.28-.34,6.83,3.89,11.97,6.53,17.65-4.56,2.1-5.61,6.12-7.07,10.65-4.56,14.23,2.4,26.44,6.36,38.91,13.02,41.18,29.41,81.45,39.93,123.2,17.95,71.44,25.76,144.47,24.75,218.27-.1,9.13-.37,18.6,6.59,25.36,7.37,7.17,5.92,13.35.74,20.69-4.94,7-7.44,16.09,1.56,20.35,9.13,4.29,14-4.7,17.28-11.73,3.96-8.45,6.25-17.72,13.63-24.21.27,1.25.57,2.5.85,3.75,1.49,12.92-2.57,25.22-3.82,37.83Z" style="fill:#f7ae0f; stroke-width:0px;"/><path d="m691.75,699.37c-10.79-.27-10.95-6.02-8.42-14.4,1.22-4.06.47-8.69.64-13.08-.03-5.65-.1-11.29-.14-16.94-2.54-9.57-3.41-19.24-3.21-29.14.14-5.75,1.62-12.54-6.53-14.84-.03-2.23-.1-4.46-.14-6.69,3.04-15.45,2.16-30.29-6.63-43.92-.07-3.38-.14-6.76-.24-10.14-2.03-6.8-1.96-14.34-6.56-20.32-.34-9.5-1.28-19.03-1.66-28.43-1.18-28.13-9.37-55.14-11.87-82.97v-10.21c-4.12-11.6-7.2-23.13-7.2-35.91,0-14.54-11.33-22.25-23.19-28.33,0-2.27.03-4.46.03-6.73,2.98-1.76,7.17-4.63,5.04-7.54-9.37-12.81-10.28-29.38-17.34-41.96-17.21-30.83-43.34-54.94-72.25-75.56-8.99-8.49-19.31-8.76-29.62-3.58-34.99,17.58-69.75,12.58-104.2-.95-14.81-5.82-29.41-11.02-45.64-8.66,1.28-2.3,2.57-4.56,3.82-6.86-45.64,11.5-86.11,32.9-121.78,63.49-29.38,21.67-53.22,48.62-74.14,78.3-4.36,5.14-8.76,10.28-13.12,15.42-.27,1.52-.54,3.11-.85,4.67.03-.03.1-.1.14-.14v.17s-.1.03-.14.03v-.07c-6.02,5.75-10.85,12.27-13.52,20.22.03-.03.07-.07.1-.1v.14s-.1.03-.14.03t.03-.07c-6.22,5.48-10.01,12.51-12.68,20.22-.95.61-1.25,1.45-.98,2.54-21.1,32.83-34.82,68.94-46.66,105.89-13.25,37.49-22.79,75.87-27.12,115.46-10.41,53.32-7.95,107.14-5.92,160.93,1.89,9.5,3.75,18.97,5.65,28.47.95,10.92,1.89,21.81,2.84,32.73,5.48,27.83,12.21,55.35,20.73,82.39,4.7,10.38,9.64,20.69,10.58,32.32,7.57,13.35,10.41,28.97,19.88,41.42,8.35,1.35,6.63,7.67,6.49,13.19l.17.51c1.12-.17,2.3-.17,3.35-.54,8.49-2.94,12.92-17.48,26.27-8.15,2.74,1.93,4.67-5.07,1.01-8.22-5.58-4.77-11.83-9.09-14.34-16.23-2.13-6.05-9.77-9.91-6.96-17.95,2.87-8.25,12.04-2.81,16.57-6.73-1.69-9.37-14-11.7-12.98-23.36,9.64,5.31,15.52,11.39,18.49,20.45,1.76,5.31,4.06,10.41,10.28,12.48,12.31,4.02,19.1,11.77,19.81,25.63.37,7.47,3.41,16.16,15.01,10.62,6.83-3.28,11.26-.78,11.33,6.8.2,19,18.09,20.89,28.57,29.89,1.15,1.01,4.53.74,6.02-.24,2.27-1.49.95-3.92-.27-5.85-4.19-6.66-8.76-13.12-12.41-20.05-6.15-11.66-12.61-24.75-.68-35.53,11.73-10.58,23.7-1.52,33.4,5.38,31.75,22.58,66.88,36.18,104.98,43.11,54.74,9.97,109.91,9.67,160.36-13.63,75.4-34.76,122.8-97.68,152.99-173.58,9.37-23.6,7.44-24.34-17.28-32.25-1.01-.3-1.83-1.25-2.74-1.93-9.47.47-18.56-1.89-23.9-9.6-7.17-10.35-16.53-12.1-27.66-10.89-34.49,3.79-66.1-6.19-96.83-20.35-.51-3.96-2.74-6.22-6.76-6.73h-.07c-2.16-2.16-4.36-4.29-6.56-6.46l-.37-.47c.1-2.2.2-4.36.3-6.53-.74-5,.88-9.33,3.55-13.42,34.59-25.36,74.75-28.13,115.49-28.37,6.76-.03,13.49.41,20.18.61,3.08.17,6.15.34,9.2.51,11.97,4.9,25.93,3.31,36.78,12.34,3.85,3.21,9.37-.54,13.93-2.3.98,1.05-.34,6.12.07,8.22.07.27.17.54.3.68.64,1.05,2.06.78,3.45.54,1.18-.24,2.37-.44,3.08.17.14.1.2.24.3.37,4.7-.2,6.42-4.5,9.5-6.93.71-6.9-.81-12.27-9.06-12.48Zm-467.75-98.99v-.03c4.16-8.99,8.35-17.95,12.54-26.95l.54-.2c15.59-23.67,30.16-48.11,52.17-66.77,3.41-2.91,6.49-6.19,9.94-9.06,28.91-24.14,31.07-24.11,59.64,1.86-10.99,6.25-24.88,5.88-33.78,15.69-45.61,24.34-75.02,65.25-103.46,107.21-1.28-1.15-2.54-2.3-3.82-3.45,2.06-6.09,4.12-12.21,6.22-18.29Zm115.36,206.58c-14.2-1.49-27.86,2.87-41.82,3.58-3.55.17-6.02,1.62-8.42,4.56-28.1,34.79-62.34,43.21-101.63,25.22-4.53-2.06-9.06-4.23-13.56-6.32-26.88-32.8-24.07-48.28,13.46-74.52,2.7.34,5.44.68,8.18,1.01,4.6.1,9.6,6.09,13.66-.1,3.41-5.17-3.45-8.49-3.58-15.86,17.38,11.09,31.95,5.44,47-4.63,12.68-8.45,28.91-8.49,43.28-13.22,2.13-.27,4.23-.57,6.36-.85,3.11-3.35,6.39-3.48,9.84-.54,26.57.61,53.32-1.05,79.18,7.54,7,2.33,13.42,5.41,19.1,10.04l1.12-.98c1.79.44,3.58.88,5.38,1.35.2,3.25.41,6.53.64,9.77-.1,2.16-.17,4.33-.27,6.46l-.27.44c-8.96,8.93-16.06,19.71-26.81,26.84h-.03c-5.34.54-9.97,2.57-13.52,6.69h-.07c-5.65-.14-10.62,1.15-13.49,6.69l-.07.03c-8.49,0-16.53,1.49-23.53,6.76h-.1Zm142.54,104.4c-18.16,1.59-36.62,1.49-54.64-2.91-1.08-1.08-2.16-2.13-3.25-3.18-2.87-2.3-2.94-4.63-.07-7,15.42-2.27,30.8-4.9,46.25-6.66,12.88-1.45,25.63.68,38.24,3.31-1.79,16.67-15.92,15.48-26.54,16.43Zm63.26-42.09c.24.03.51.14.74.2,4.29,1.79,8.96,2.7,13.79,3.96,5.92,1.56,3.82,10.58-2.16,9.23-6.36-1.42-12.21-3.89-18.09-5.95-4.94-2.7-10.24-2.5-15.55-2.13-.37.03-.78,0-1.12-.07-25.22-4.73-50.44-4.67-75.63.2-.14.03-.27.03-.41.03-23.63,1.99-46.35,7.2-67.11,19.1-.91.51-1.96.64-3.04.57-8.86-.71-13.9,9.53-23.26,8.79-4.19-.34-5.51-1.62-6.63-4.73.95-.47,1.89-.95,2.84-1.39.44-.24.91-.37,1.42-.44l52.34-22.21c.17-.54.34-1.05.57-1.52-.2.47-.37.98-.54,1.52,46.79-14.98,94.13-15.62,141.83-5.17Zm-30.02-623.14l.03.07h-.03v-.07Zm-3.35,53.99h.07v.07h-.07v-.07Zm145.62,280.48c0,.07,0,.14-.03.17-.14-.03-.24-.07-.37-.14-7.3-2.4-10.48-9.3-15.18-14.4-28.64-31.27-60.76-57.78-99.7-75.36-13.96-6.29-27.89-12.07-43.38-5.27q17.89-31.21,40.13-26.74c10.82,5.82,21.64,11.63,32.46,17.45,18.26,15.38,36.07,31.24,52.27,48.85v.2c0,.14.03.27.07.37.07.24.24.41.47.51.14.03.27.07.44.07.61,0,1.18.03,1.72.07-.54-.03-1.12-.03-1.69-.03,7,9.3,11.8,20.25,21.13,27.79,0,0,.24.41.27.41.78,1.25,1.56,2.54,2.37,3.79l-.27.85c1.56,7.81,11.43,12.04,9.3,21.37.17,0,.37,0,.51.03l-.51.03Z" style="fill:#ffcb31; stroke-width:0px;"/><path d="m755.48.16c-23.8,3.11-47.6,6.09-71.41,9.13-34.49,2.37-67.96,8.52-98.01,26.95-31.75,10.11-51.42,35.33-68.3,60.89-10.04,15.25-22.48,17.14-36.45,20.35-5.34,1.25-11.06,1.05-16.57,1.49-2.91,3.31-3.65,7.27-3.52,11.5,14.27,2.81,26.44-6.86,40.27-6.69.51-.03,1.01-.07,1.49-.14,9.47-1.28,14.71-10.14,22.42-14.54,1.25-.74,2.57-1.32,3.99-1.76.68-.24,1.42-.41,2.16-.54,10.75-3.14,21.44-6.32,32.15-9.43,10.72-3.14,21.47-6.22,32.25-9.13,3.96-1.08,12-5.58,10.72,5.51,7.71.1,15.45.2,25.22,6.22-11.26,1.45-18.63-1.18-25.63-5.71-10.51-1.28-19.68,3.72-29.11,6.9-14.47,4.87-29.21,7.34-44.46,7.07,16.6,22.45,38.68,33.94,66.54,29.21,52.98-8.99,101.36-27.62,135.85-71.98,1.66-2.13,4.36-3.45,6.56-5.14l.1-.14c.91-1.12,1.86-2.2,2.81-3.28,7.74-15.08,13.42-30.94,17.45-47.4,1.25-5.14,1.99-10.48-6.53-9.33Zm-114.48,103.32c-.1-.68-.2-1.39-.17-2.1,0-.07,1.05-.34,1.39-.14.61.41,1.05,1.08,1.66,1.72-1.08.2-1.99.37-2.87.51Zm13.63,3.04c2.57-3.69,5.51-2.87,8.66-.85-2.7,2.74-5.65,1.89-8.66.85Zm3.18-45.54c-2.23,1.15-4.46,2.3-6.66,3.45-2.06,2.3-4.33,4.12-6.76,5.58-4.06,2.43-8.66,3.85-13.59,4.53l-6.9,3.25c-1.56,1.22-2.98,3.38-5.14.85l3.75-2.54c2.23-1.18,4.46-2.33,6.69-3.48,5.68-5.68,12.58-8.82,20.52-9.84,2.16-1.22,4.33-2.47,6.53-3.69,2.23-2.37,4.26-5.04,8.05-4.56.41.07,1.12.91,1.01,1.18-1.08,3.75-4.33,4.46-7.51,5.27Zm16.97-10.11c-.78.27-1.59.54-2.37.81.3-.74.61-1.52.91-2.27,1.52-1.39,2.98-3.28,5.17-.95-1.22.81-2.47,1.59-3.72,2.4Z" style="fill:#95be61; stroke-width:0px;"/><path d="m347.2,101.25c-22.38.14-43.82-2.91-62.48-16.6-5.27-.85-10.41-1.89-13.59-6.9-.27-.74-.54-1.45-.81-2.2.74.24,1.52.47,2.3.71,5.51.24,10.11,2.33,13.46,6.8,31.88,13.19,68.57,6.63,99.33,24.31-14.84-35.26-43.65-55.24-76.98-70.22-.51-1.59-.57-4.09-1.59-4.6-35.4-16.8-72.49-10.41-109.24-7.61-1.25.1-2.2,3.48-3.31,5.34l-.81.57-.88-.47c-21.71.61-43.61-3.82-65.08,2.84-2.27,8.08,5.65,13.02,6.22,20.22.88,1.05,1.76,2.06,2.64,3.08,0,.03.81.44.81.44,14.61,1.72,23.33,13.08,32.76,21.91,33.78,31.54,72.66,48.89,119.04,53.18,23.94,2.2,44.49.64,62.61-15.65,3.28-2.94,9.2-5.14,8.25-9.77-1.18-6.05-7.88-5.41-12.64-5.38Zm-107.85-34.65c-.41-.71-.85-1.42-1.28-2.13,1.05-.1,2.1-.34,3.11-.27.37.03.71.78,1.08,1.18-.98.41-1.93.81-2.91,1.22Zm12.92,2.98c-.24-5.14,4.4-1.96,6.93-1.49,1.28.24,2.37,1.89,4.53,3.79-6.05,2.4-11.36.37-11.46-2.3Z" style="fill:#95be61; stroke-width:0px;"/><path d="m487.13,172.45c.57,6.86-3.72,8.76-9.4,9.13-26.84,1.66-53.62,4.97-80.64,3.92-4.83-.2-8.96-1.01-10.38-6.46,1.18-1.32,2.33-2.67,3.52-3.99,5.88-4.46,11.43-9.23,13.83-16.63,12.61-20.79,10.14-27.52-13.66-37.56,7.1-.03,14.23.34,21.27-.27,4.33-.37,5.38-3.21,1.89-6.59,3.89-24.75,3.31-49.73,3.92-74.65,9.2.17,8.62,21.57,22.96,10.55.85,1.08,1.72,2.06,2.64,2.91,11.5,11.19,26.81,5.78,40.57,6.96-9.77,12.78-18.56,26.03-21.54,42.26-1.12,5.98-3.04,12.04,2.64,16.94-2.91,3.31-3.65,7.27-3.52,11.5-3.21,21.3,14.2,29.89,25.9,41.99Z" style="fill:#72a82c; stroke-width:0px;"/><path d="m387.13,120.05c-10.75,1.79-16.43,11.53-25.02,16.13-30.33,16.16-62.34,26.07-97.51,21.81-20.35-2.5-39.93-6.76-56.39-20.08-11.43-9.91-22.89-19.81-34.32-29.72-14.17-15.69-29.35-30.67-36.72-51.22,14.61,1.72,23.33,13.08,32.76,21.91,33.78,31.54,72.66,48.89,119.04,53.18,23.94,2.2,44.49.64,62.61-15.65,3.28-2.94,9.2-5.14,8.25-9.77-1.18-6.05-7.88-5.41-12.64-5.38-22.38.14-43.82-2.91-62.48-16.6.44-.54.91-1.05,1.35-1.59,31.88,13.19,68.57,6.63,99.33,24.31,1.66,1.08,3.31,2.16,4.94,3.25-3.52,2.3-3.41,5.85-3.21,9.43Z" style="fill:#72a82c; stroke-width:0px;"/><path d="m816.34,1027.02c-1.93,4.8-3.82,9.6-5.75,14.4l-.3,1.05c-.61,1.35-1.22,2.74-1.83,4.12l.07-.3c-6.19,1.08-5.68,6.46-6.86,10.75-18.46,21.74-32.32,47.3-54.23,66.2-5,4.29-8.79,10.31-15.82,11.93-1.93,4.73-5.34,7.84-10.14,9.47-10.08,7-20.18,14.03-30.26,21.03-1.28,1.69-2.57,3.41-3.85,5.11-5.27,1.28-10.01,3.38-13.49,7.81-5.31.68-9.8,2.81-13.42,6.8l-.07.03c-21.5,9.03-43.04,17.99-64.54,27.01-15.59,4.46-32.36,4.8-46.62,13.73-18.97.85-37.93.71-56.94,2.47-19.24,1.79-39.12,3.52-58.29-2.67-1.05.88-2.06,1.79-3.11,2.7-17.68-4.87-35.74-7.71-53.99-9.09-1.12-.2-2.23-.41-3.31-.61-6.86-5.95-16.36-2.5-23.77-6.53l-.07-.03c-3.58-2.1-7.17-4.19-10.75-6.32-1.05.27-1.96.03-2.77-.68-13.66-4.53-27.28-9.09-40.91-13.63-5.92-5.75-15.28-5.85-20.52-12.71,17.31,4.77,35.84,5.68,51.15,16.53,22.55,2.47,44.7,9.06,67.72,7.03,31.48,6.19,62.95,4.4,94.43-.1,20.18-1.35,39.93,3.85,60.15,3.79,40.61-.14,76.44-14.4,111.03-33.44,9.26-5.07,17.38-12.37,28.23-14.34,11.06-8.28,21.44-17.51,34.01-23.63,1.08-1.08,2.2-2.2,3.28-3.31,24.17-26.03,49.06-51.46,69.04-81.08,5.31-7.81,10.28-15.82,15.42-23.73,2.5-3.82,5-7.2,7.1.24Z" style="fill:#ee7c10; stroke-width:0px;"/><path d="m673.96,1178.59l-.14.07s.03-.03.03-.07h.1Z" style="fill:#ee7c10; stroke-width:0px;"/><path d="m741.65,60.3c-16.36,48.62-50.98,78.4-98.22,95.24-10.85-3.82-18.12,6.53-28.67,6.83-21.84.61-42.33-3.25-62.41-11.06-16.36-9.4-26.78-29.82-49.36-27.69,9.47-1.28,14.71-10.14,22.42-14.54,1.25-.71,2.57-1.32,3.99-1.76.68-.2,1.42-.37,2.16-.51.41.47.78.91,1.15,1.39,16.6,22.45,38.68,33.94,66.54,29.21,52.98-8.99,101.36-27.62,135.85-71.98,1.66-2.13,4.36-3.45,6.56-5.14Z" style="fill:#72a82c; stroke-width:0px;"/><path d="m772.29,391.54c-2.67-5.77-6.98-10.93-6.53-17.84,10.63,8.84,15.97,21.38,22.72,32.87,39.75,67.66,64.32,141.03,81.3,217.23,8.23,54.04,12,108.37,10.77,163.03-1.22,9.98-2.44,19.97-3.66,29.95-.28-1.25-.56-2.51-.84-3.76,2.84-43.72-2.13-87.04-5.08-130.56-1.37-20.18-3.67-41.11-9.71-58.75-10.81-31.55-20.64-63.69-33.13-94.66-18.5-45.88-41.17-90.06-55.84-137.52Z" style="fill:#ffd044; stroke-width:0px;"/><path d="m372.89,1370.35c-2.37-12.54-11.12-27.76-18.49-38.98.14,2.91-3.31,6.29-6.83,9.84-.3-.95-.71-1.93-1.15-2.91-.95-.61-1.96-.88-3.04-.85-2.37-5.07-4.73-10.14-7.1-15.21-4.77,8.25-12.78,5.65-19.61,5.27-17.07-.91-33.4.95-48.38,9.87-11.87,1.25-21.03,6.59-26.47,17.51h-.03c-4.83-.37-7.03,1.93-6.76,6.73-3.01-.57-5.41.37-7.2,2.91-9.37,8.32-15.25,18.56-12.1,31.1,2.43,9.74,12.54,11.46,20.56,11.93,43.51,2.6,86.28-.78,126.51-19.78,7.57-3.58,11.63-9.37,10.11-17.45Zm-23.16,7.84c-8.18,3.11-9.43,2.47-14.13,4.26-19.14,7.2-36.75,9.13-59.27,11.36-15.72,1.56-24.95,1.62-34.69-5.75,33,2.98,62.99-3.28,91.15-16.9,6.42-3.11,11.46-7.2,14.17-12.37,21.06,9.97,5.71,15.99,2.77,19.41Z" style="fill:#0d0a1d; stroke-width:0px;"/><path d="m940.79,820.31c-2.43-.17-2.98,1.56-3.38,3.45-2.13,2.54-4.23,5.04-6.36,7.57.34.81.54,1.69.64,2.57-15.32,24.14-37.29,41.72-58.59,59.98-2.1-2.06-4.19-4.12-6.29-6.22,2.1-11.02,4.16-22.01,6.25-33.03,1.99,1.45.57,8.96,3.79,5.27,7.44-8.62,19.34-12.85,23.67-24.24,1.15-1.59,2.27-3.14,3.38-4.73,1.18-1.18,2.37-2.4,3.55-3.58,1.12-1.15,2.23-2.27,3.35-3.38l-.1.2c16.09-14.4-2.2-21.13-6.86-30.9-6.53-7.84-13.02-15.69-19.51-23.53-.1-9.67-4.19-19.64,2.2-28.81,3.45,8.15,7.3,15.25,17.75,16.6,11.12,1.42,3.41,16.77,13.32,19.78,8.66,1.96,8.45,11.02,12.95,16.3,4.67,8.45,11.22,16.16,10.24,26.71Z" style="fill:#72a82c; stroke-width:0px;"/><path d="m721.61,313.35c-15.71-6.06-23.43-21.63-36.93-30.73-20.87-14.07-40.42-30.13-59.89-46.25-8.82-7.3-20.27-18.23-28.74-20.23-34.42-8.15-65.33-28.19-101.46-29.69-1.01-.04-1.99-.97-2.99-1.48,3.86-2.01,7.73-4.03,11.6-6.04,79.7,10.94,142.55,52.45,196.9,109.04,7.64,7.96,16.44,15.16,21.52,25.39Z" style="fill:#f7ae0f; stroke-width:0px;"/><path d="m38.82,938.64h.07s.03.07.03.1c-.07-.03-.14-.07-.2-.1h.1Z" style="fill:#72a82c; stroke-width:0px;"/><path d="m79.49,955.24c-13.49,1.39-22.21-9.8-34.01-12.95-1.59-2.37-3.62-3.89-6.59-3.65-.98-2.37-2.37-4.36-3.99-6.15-.27-.3-.54-.57-.81-.88s-.54-.57-.85-.85c-.2-.2-.41-.41-.64-.61-.1-.1-.2-.24-.34-.3-.41-.37-.81-.74-1.22-1.08-.54-.47-1.08-.91-1.62-1.39-.54-.47-1.08-.91-1.62-1.35-.03,0-.03-.03-.07-.07-.57-.47-1.15-.95-1.72-1.45-.57-.47-1.12-.98-1.69-1.45-.37-.34-.74-.71-1.12-1.08-.37-.37-.74-.74-1.08-1.12-.51-.51-.95-1.01-1.35-1.56-.27-.3-.51-.61-.71-.91-.68-.91-1.28-1.89-1.83-2.94-4.4-5.14-8.82-10.28-13.22-15.42-10.41-28.37-4.97-46.83,19.85-67.28,9.2-16.63,17.34-33.54,14.84-53.42,1.89,9.5,3.75,18.97,5.65,28.47.95,10.92,1.89,21.81,2.84,32.73-3.48.41-1.76-13.12-9.4-2.84-25.86,34.89-23.19,54.6,11.97,80.5,4.5,3.28,8.55,7.34,13.39,9.94,6.19,3.31,3.01-3.55,4.77-5.21,4.7,10.38,9.64,20.69,10.58,32.32Z" style="fill:#72a82c; stroke-width:0px;"/><path d="m503.19,178.91c-3.85,2.03-7.74,4.06-11.6,6.05-2.27.41-4.53.85-6.76,1.25h-.03c-32.42,2.84-64.91,4.29-97.34,1.45-11.02-.98-20.96-.78-30.73,4.23l-.27.3c-45.64,11.5-86.11,32.9-121.78,63.49-29.38,21.67-53.22,48.62-74.14,78.3-4.36,5.14-8.76,10.28-13.12,15.42-.71-5.68-.41-10.75,3.45-15.79,44.16-57.81,94.8-107.68,164.28-134.53,17.95-6.93,35.67-16.36,54.33-19.1,16.19-2.37,21.13-17.85,34.59-21.57-2.4,7.4-7.95,12.17-13.83,16.63-1.18,1.32-2.33,2.67-3.52,3.99,1.42,5.44,5.54,6.25,10.38,6.46,27.01,1.05,53.79-2.27,80.64-3.92,5.68-.37,9.97-2.27,9.4-9.13,5,3.01,9.7,6.8,16.06,6.46Z" style="fill:#442f10; stroke-width:0px;"/><path d="m133.15,374.19v.14s-.1.03-.14.03t.03-.07s.07-.07.1-.1Z" style="fill:#ffcb31; stroke-width:0px;"/><path d="m146.71,353.94v.17s-.1.03-.14.03l.14-.2Z" style="fill:#ffcb31; stroke-width:0px;"/><path d="m433.98,1225.95c19.16,6.2,39.04,4.49,58.29,2.69,19.02-1.78,37.96-1.61,56.93-2.48-27.26,24.04-57.57,33.88-92.98,19.96-8.45-5.82-16.89-11.64-25.33-17.46,1.03-.9,2.06-1.8,3.1-2.7Z" style="fill:#ffd044; stroke-width:0px;"/><path d="m483.65,59.76c-13.76-1.18-29.08,4.23-40.57-6.96-.88-.88-1.76-1.83-2.6-2.91h-.03c-14.34,11.02-13.76-10.38-22.96-10.55,1.86-4.36,5.34-6.12,9.91-6.02,22.79-15.99,37.63-5.98,53.62,8.42,4.83,4.36,6.86,11.26,2.64,18.02Z" style="fill:#95be61; stroke-width:0px;"/><path d="m810.6,1041.43c1.91-4.8,3.81-9.6,5.72-14.41,25.62-39.93,38.24-84.54,46.97-130.54.61-3.19,0-6.82,3.53-8.82,2.09,2.08,4.18,4.16,6.27,6.23-12.55,46.81-25.31,93.53-50.16,135.84-3.11,5.3-4.85,11.31-12.33,11.7Z" style="fill:#442f10; stroke-width:0px;"/><path d="m348.5,1344.37c-.95-.61-4.05-6.95-5.13-6.92-2.37-5.07-4.73-10.14-7.1-15.21,2.16-11.02-3.11-20.69-5.68-30.8-1.15-8.42-2.3-16.84-3.45-25.29v-.03c-5.31-10.62-3.48-50.34-4.26-61.57,36.18,1.93,25.53,30.02,21.27,66.47,1.86,5.11,2.94,10.51,3.92,15.99,1.93,13.25,3.48,26.54,5.92,39.73,1.25,6.93,1.88,16.96-5.49,17.64Z" style="fill:#72a82c; stroke-width:0px;"/><path d="m886.53,740.91c-6.4,9.17-2.3,19.14-2.22,28.81-1.16,5.73,1.22,12.23-3.77,17.12,1.23-54.66-2.54-108.99-10.77-163.03,4.85,1.72,6.88,5.19,6.94,10.3.37,29.67,10.43,58.53,7.23,88.58-.63,5.91,1.65,12.14,2.59,18.22Z" style="fill:#442f10; stroke-width:0px;"/><path d="m599.88,1213.79c4.35-.73,5.79,1.78,6.13,5.51-3.27,3.4-3.27,6.8-.04,10.23.17,7.79.34,15.59.51,23.39,1.34,24.69,5.93,49.27,2.28,74.11-7.12-4.46-2.47-10.67-2.62-16.28-.22-8.01,2.43-16.49-3.05-23.85-2.47-24.31-4.48-48.64-3.21-73.11Z" style="fill:#0d0a1d; stroke-width:0px;"/><path d="m552.36,151.3c20.07,7.83,40.58,11.68,62.42,11.07,10.54-.29,17.8-10.64,28.67-6.84-.73,5.04-3.55,8.89-8.61,8.79-26-.48-52.6,5.61-77.61-6.7-2.85-1.41-4.15-3.52-4.86-6.32Z" style="fill:#0d0a1d; stroke-width:0px;"/><path d="m376.88,1219.56c18.28,1.4,36.31,4.22,54.01,9.09,8.44,5.82,16.89,11.64,25.33,17.46-8.62.98-15.64-1.04-22.85-6.93-12.21-9.99-28.92-7.83-43.17-12.89-4.85-1.72-11.59,1.05-13.32-6.73Z" style="fill:#442f10; stroke-width:0px;"/><path d="m937.41,823.76s.07-.07.1-.1l-.14.3c0-.07.03-.14.03-.2Z" style="fill:#95be61; stroke-width:0px;"/><path d="m940.96,820.31l-.2.27c0-.1,0-.17.03-.27.03-.03.1,0,.17,0Z" style="fill:#95be61; stroke-width:0px;"/><path d="m295.31,1191.76c13.63,4.55,27.26,9.1,40.89,13.66.82.7,1.75.93,2.79.67,3.6,2.12,7.2,4.23,10.8,6.35-21.16,1-40.86-1.82-54.48-20.68Z" style="fill:#442f10; stroke-width:0px;"/><path d="m5.02,900.04c4.4,5.13,8.81,10.26,13.21,15.4,4.81,9.62,16.52,13.11,20.69,23.29l-33.9-38.69Z" style="fill:#0d0a1d; stroke-width:0px;"/><path d="m173.88,108.17c11.44,9.91,22.89,19.83,34.33,29.74-18.57-1.69-27.81-14.15-34.33-29.74Z" style="fill:#0d0a1d; stroke-width:0px;"/><path d="m387.11,120.04c-.18-3.57-.29-7.12,3.23-9.42,7.71,1.35,15.04,5.26,23.22,3.39,3.47,3.38,2.44,6.19-1.88,6.57-7.05.62-14.19.23-21.29.26-1.09-.27-2.19-.54-3.28-.81Z" style="fill:#95be61; stroke-width:0px;"/><path d="m766.25,374.34c-8.37-7.56-19.24-13.49-17.84-27.42,7.63,8.04,14.69,16.45,17.84,27.42Z" style="fill:#ffd044; stroke-width:0px;"/><path d="m133.15,374.19v.14s-.1.03-.14.03t.03-.07s.07-.07.1-.1Z" style="fill:#ffd044; stroke-width:0px;"/><path d="m146.71,353.94v.17s-.1.03-.14.03v-.07s.1-.1.14-.14Z" style="fill:#ffd044; stroke-width:0px;"/><path d="m133.15,374.19v.14s-.1.03-.14.03t.03-.07s.07-.07.1-.1Z" style="fill:#ffd044; stroke-width:0px;"/><path d="m146.71,353.94v.17s-.1.03-.14.03v-.07s.1-.1.14-.14Z" style="fill:#ffd044; stroke-width:0px;"/><path d="m349.72,1212.39c7.42,4.08,16.94.56,23.84,6.55-8.23-1.16-18.58,5.43-23.84-6.55Z" style="fill:#442f10; stroke-width:0px;"/><path d="m105.86,1009.84c-4.16-3.41-6.42-7.74-6.49-13.19,8.35,1.35,6.63,7.67,6.49,13.19Z" style="fill:#f7ae0f; stroke-width:0px;"/><path d="m801.66,1057.04c1.19-4.29.67-9.67,6.87-10.76,1.06,5.72-.04,10.07-6.87,10.76Z" style="fill:#442f10; stroke-width:0px;"/><path d="m660.38,1185.43c3.64-4.05,8.22-6.21,13.58-6.85-1.43,8.43-7.88,6.89-13.58,6.85Z" style="fill:#442f10; stroke-width:0px;"/><path d="m673.83,1178.65c3.44-4.45,8.22-6.6,13.51-7.87-.78,9-7.38,8.04-13.51,7.87Z" style="fill:#442f10; stroke-width:0px;"/><path d="m38.71,938.64c3.08-.29,5.16,1.25,6.78,3.66-2.26-1.22-4.52-2.44-6.78-3.66Z" style="fill:#0d0a1d; stroke-width:0px;"/><path d="m808.45,1046.58c.61-1.37,1.23-2.74,1.84-4.12-.61,1.37-1.23,2.74-1.84,4.12Z" style="fill:#442f10; stroke-width:0px;"/><path d="m660.44,1185.38c-.3,1.08-.3,2.87-.91,3.11-27.22,11.06-28.97,33.44-26.07,57.98-.98,0-1.96-.03-2.91-.07-.37,21.87-1.56,43.82-.71,65.66.41,11.19-6.93,52.74-17.28,56.7-2.7-2.43-6.29-38.91-9.03-41.38,3.62-24.82,4.29-49.77,2.94-74.48-.17-7.78-.34-15.59-.51-23.36,0-3.41.03-6.83.03-10.24-.34-3.72-1.79-6.22-6.12-5.51-1.35-.44-2.7-.91-4.06-1.35,21.54-9.03,43.07-18.02,64.61-27.05Z" style="fill:#72a82c; stroke-width:0px;"/><path d="m739.15,1386.21c1.89-5.85-1.83-11.46-5.88-16.53-7.4,8.05-14.4,2.87-20.73-1.08-8.05-28.1-21.23-20.05-42.63-38.64-.98-.27-1.96-.57-2.91-.85h-.03c-34.22-9.91-34.18-10.75-33.17-42.03-.14-13.56-.24-27.08-.34-40.61-.98,0-1.96-.03-2.91-.07-.37,21.87-1.56,43.82-.71,65.66l-.68,2.16-24.38,8.01c-6.36,10.62-2.87,32.8-5.85,42.8-4.5,15.18,3.18,25.59,15.28,29.58,36.45,12.04,73.81,19.54,112.08,8.01,12.31-3.69,15.62-7.2,12.85-16.43Zm-80.57,11.66c-16.57-2.1-33.51-3.99-47.81-14.1-4.16-2.91-4.19-13.05,1.79-15.01,13.56,2.91,24.65,19.44,38.48,21.98,21.67,3.99,43.61.51,65.05,4.43,1.66.3,3.28.51,4.9.61-20.08,9.26-41.42,4.73-62.41,2.1Z" style="fill:#0d0a1d; stroke-width:0px;"/><path d="m739.15,1386.21c-.37,1.15-.95,2.3-1.79,3.48-3.89,5.41-9.94,6.63-16.36,6.09,2.43-1.12,4.83-2.43,7.24-3.99l.2.1c8.25-.95,5.34-8.62,7.81-13.19,1.28,2.87,2.27,5.34,2.91,7.51Z" style="fill:#0d0a1d; stroke-width:0px;"/><path d="m624.57,526.3c-.17,0-.3-.03-.44-.07.14.03.27.1.44.1h.03c.57,0,1.15,0,1.69.03-.54-.03-1.12-.07-1.72-.07Z" style="fill:#ffcc35; stroke-width:0px;"/><path d="m488.08,1202.54c-31.47,4.47-62.95,6.27-94.43.09-1.33-18.2-17.98-23.06-28.95-22.03-20.97,1.98-37.27-7.17-53.96-15.04-26.41-12.44-45.76-34.18-64.13-56.33-5.37-6.47-10.13-16.4-4.66-22.79,5.34-6.25,14.26-1.14,21.33,3.17,13.59,8.29,26.13,15.83,39.81-2.81,7.64-10.41,23.03-7.3,35.13-4.51,21.26,4.92,41.99,13.04,63.47,15.99,55.58,7.64,108.63-.2,160.42-24.39,53.7-25.08,86.37-70.01,120.46-114.44,12.66-16.49,25.22-33.04,40.34-47.37,7.3-6.92,15.72-15.38,26.25-11.67,12.26,4.32,13.13,16.14,12.99,28.2-.25,20.84-10.96,39.96-9,61.12.35,3.83-1.56,8.49,2.22,10.74,16.55,9.86,5.63,16.77-1.27,26.07-22.46,30.27-51.2,54.92-77.12,81.57-20.89,21.47-49.71,38.03-79.07,49.91-5.15,2.08-9.28,4.17-10.72,9.44-3.42,12.55-14.17,17.43-24.37,17.3-21.09-.27-40.56,9.86-61.69,7.69-7.01-.72-12.01,2.42-13.06,10.06Z" style="fill:#f7ae0f; stroke-width:0px;"/><path d="m515.13,246.12v.07h.03l-.03-.07Zm-3.35,53.99v.07h.07v-.07h-.07Z" style="fill:#ffd044; stroke-width:0px;"/><path d="m772.29,391.54c14.66,47.45,37.33,91.64,55.84,137.52,12.49,30.97,22.32,63.11,33.13,94.66,6.04,17.64,8.34,38.57,9.71,58.75,2.96,43.52,7.92,86.85,5.08,130.56-7.38,6.49-9.66,15.76-13.62,24.21-3.3,7.04-8.16,16.04-17.27,11.72-8.99-4.26-6.5-13.35-1.58-20.34,5.18-7.35,6.63-13.51-.73-20.68-6.96-6.79-6.71-16.23-6.58-25.37,1.01-73.8-6.8-146.84-24.76-218.26-10.51-41.78-26.91-82.05-39.94-123.22-3.94-12.46-10.91-24.68-6.34-38.91,1.45-4.51,2.47-8.54,7.06-10.64Z" style="fill:#ffca2d; stroke-width:0px;"/><path d="m723.29,787.41c-23.26,16.63-50.31,12.61-76.48,13.05-9.47.47-18.56-1.89-23.9-9.6-7.17-10.35-16.53-12.1-27.66-10.89-34.49,3.79-66.1-6.19-96.83-20.35-.51-3.96-2.74-6.22-6.76-6.73h-.07c-2.16-2.16-4.36-4.29-6.56-6.46l-.37-.47c.1-2.2.2-4.36.3-6.53,8.32,5.82,18.16,5.34,27.49,5.85,45.34,2.43,90.64,3.55,135.78-2.91,12.54-4.9,27.01-3.72,38.37-12.21.14-.17.24-.34.3-.54.07-.14.14-.27.2-.41.71-1.76.41-3.92.64-5.92,0-.24.07-.51.1-.74.07-.3.17-.64.27-.95.1-.24.2-.47.34-.68.14-.24.3-.47.47-.64.2-.24.41-.44.64-.61.24-.2.47-.34.74-.47.3-.17.61-.3.98-.44,4.7-.2,6.42-4.5,9.5-6.93,13.42-.57,25.59,3.52,34.92,12.81,21.1,20.89,13.9,43.88-12.44,62.75Z" style="fill:#f7ae0f; stroke-width:0px;"/><path d="m657.4,580.53v.07c0,.07,0,.14-.03.17l-.2-.14-.14-.14c.14,0,.24,0,.37.03Z" style="fill:#ffcb31; stroke-width:0px;"/><path d="m356.74,191.89c9.77-4.99,19.72-5.21,30.73-4.23,32.42,2.86,64.93,1.4,97.35-1.45-2.97,8.11-10.04,5.73-15.76,5.75-37.44.13-74.88-.01-112.32-.06Z" style="fill:#f7ae0f; stroke-width:0px;"/><path d="m647.02,418.48v-10.18c3.85,3.38,3.75,6.76,0,10.18Z" style="fill:#ffcb31; stroke-width:0px;"/><path d="m417.52,753.03c-.1,2.16-.17,4.33-.27,6.46l-.27.44c-8.96,8.93-16.06,19.71-26.81,26.84h-.03c-5.34.54-9.97,2.57-13.52,6.69h-.07c-5.65-.14-10.62,1.15-13.49,6.69l-.07.03c-8.49,0-16.53,1.49-23.53,6.76h-.1c-14.2-1.49-27.86,2.87-41.82,3.58-3.55.17-6.02,1.62-8.42,4.56-28.1,34.79-62.34,43.21-101.63,25.22-4.53-2.06-9.06-4.23-13.56-6.32-26.88-32.8-24.07-48.28,13.46-74.52,2.7.34,5.44.68,8.18,1.01,11.19,12.58,25.09,21.91,41.89,21.37,54.5-1.83,108.46-8.45,161.68-21,11.83-2.77,15.42-7,11.26-17.99l1.12-.98c1.79.44,3.58.88,5.38,1.35.2,3.25.41,6.53.64,9.77Z" style="fill:#ee7c10; stroke-width:0px;"/><path d="m403.29,874.44h.03c46.93-15.01,94.36-15.62,142.2-5.11,9.91,4.26,21.74,3.58,33.37,13.29-16.13,3.85-27.69-1.76-39.46-5.92-5.11-2.81-10.62-2.47-16.13-2.1-25.46-4.83-50.92-4.8-76.38.14-24.24,2.03-47.54,7.4-68.73,19.91-9.91-2.2-14.98,9.33-24.88,8.55-4.19-.34-5.51-1.62-6.63-4.73,1.15-.57,2.33-1.15,3.52-1.72l53.08-22.31Z" style="fill:#442f10; stroke-width:0px;"/><path d="m508.43,894.92c-1.79,16.67-15.92,15.48-26.54,16.43-18.16,1.59-36.62,1.49-54.64-2.91-1.08-1.08-2.16-2.13-3.25-3.18-2.87-2.3-2.94-4.63-.07-7,15.42-2.27,30.8-4.9,46.25-6.66,12.88-1.45,25.63.68,38.24,3.31Z" style="fill:#f7ae0f; stroke-width:0px;"/><path d="m606.68,93.74l-.41.51c-10.51-1.28-19.68,3.72-29.11,6.9-14.47,4.87-29.21,7.34-44.46,7.07-.37-.47-.74-.91-1.15-1.39,10.75-3.14,21.44-6.36,32.15-9.47,10.72-3.14,21.47-6.22,32.25-9.13,3.96-1.08,12-5.58,10.72,5.51Z" style="fill:#72a82c; stroke-width:0px;"/><path d="m651.14,64.43c-2.06,2.3-4.33,4.12-6.76,5.58-4.06,2.43-8.66,3.85-13.59,4.5-.54-.61-1.08-1.25-1.59-1.89,5.68-5.68,12.58-8.82,20.52-9.84.47.57.95,1.12,1.42,1.66Z" style="fill:#72a82c; stroke-width:0px;"/><path d="m631.91,99.96c-11.26,1.45-18.63-1.18-25.63-5.71l.41-.51c7.71.1,15.45.2,25.22,6.22Z" style="fill:#72a82c; stroke-width:0px;"/><path d="m663.28,105.68c-2.7,2.74-5.65,1.89-8.66.85,2.57-3.69,5.51-2.87,8.66-.85Z" style="fill:#72a82c; stroke-width:0px;"/><path d="m665.31,55.71c-1.08,3.75-4.33,4.46-7.51,5.27-.54-.64-1.05-1.25-1.56-1.89,2.23-2.37,4.26-5.04,8.05-4.56.41.07,1.12.91,1.01,1.18Z" style="fill:#72a82c; stroke-width:0px;"/><path d="m643.87,102.97c-1.08.2-1.99.37-2.87.51-.1-.68-.2-1.39-.17-2.1,0-.07,1.05-.34,1.39-.14.61.41,1.05,1.08,1.66,1.72Z" style="fill:#72a82c; stroke-width:0px;"/><path d="m657.8,60.98c-2.23,1.15-4.46,2.3-6.66,3.45-.47-.54-.95-1.08-1.42-1.66,2.16-1.22,4.33-2.47,6.53-3.69.51.64,1.01,1.25,1.56,1.89Z" style="fill:#72a82c; stroke-width:0px;"/><path d="m630.79,74.5c-2.3,1.12-4.6,2.2-6.9,3.28-.47-.57-.91-1.12-1.39-1.69,2.23-1.18,4.46-2.33,6.69-3.48.51.64,1.05,1.28,1.59,1.89Z" style="fill:#72a82c; stroke-width:0px;"/><path d="m623.89,77.78c-1.56,1.22-2.98,3.38-5.14.85l3.75-2.54c.47.57.91,1.12,1.39,1.69Z" style="fill:#72a82c; stroke-width:0px;"/><path d="m678.49,48.47c-1.22.81-2.47,1.59-3.72,2.4-.47-.51-.98-.98-1.45-1.45,1.52-1.39,2.98-3.28,5.17-.95Z" style="fill:#72a82c; stroke-width:0px;"/><path d="m674.78,50.87c-.78.27-1.59.54-2.37.81.3-.74.61-1.52.91-2.27.47.47.98.95,1.45,1.45Z" style="fill:#72a82c; stroke-width:0px;"/><path d="m263.72,71.87c-6.05,2.4-11.36.37-11.46-2.3-.24-5.14,4.4-1.96,6.93-1.49,1.28.24,2.37,1.89,4.53,3.79Z" style="fill:#72a82c; stroke-width:0px;"/><path d="m286.07,83.06c-.44.54-.91,1.05-1.35,1.59-5.27-.85-10.41-1.89-13.59-6.9.51-.47,1.01-.98,1.49-1.49,5.51.24,10.11,2.33,13.46,6.8Z" style="fill:#72a82c; stroke-width:0px;"/><path d="m242.25,65.38c-.98.41-1.93.81-2.91,1.22-.41-.71-.85-1.42-1.28-2.13,1.05-.1,2.1-.34,3.11-.27.37.03.71.78,1.08,1.18Z" style="fill:#72a82c; stroke-width:0px;"/><path d="m272.61,76.26c-.47.51-.98,1.01-1.49,1.49-.27-.74-.54-1.45-.81-2.2.74.24,1.52.47,2.3.71Z" style="fill:#72a82c; stroke-width:0px;"/><path d="m386.73,179.03c1.17-1.32,2.33-2.64,3.5-3.97-1.17,1.32-2.33,2.64-3.5,3.97Z" style="fill:#202136; stroke-width:0px;"/><path d="m903.89,830.92c1.18-1.19,2.37-2.38,3.55-3.57-1.18,1.19-2.37,2.38-3.55,3.57Z" style="fill:#0d0a1d; stroke-width:0px;"/><path d="m907.25,827.53c1.18-1.19,2.37-2.38,3.55-3.57-1.18,1.19-2.37,2.38-3.55,3.57Z" style="fill:#0d0a1d; stroke-width:0px;"/><path d="m900.54,835.65c1.17-1.64,2.34-3.29,3.5-4.93-1.17,1.64-2.34,3.29-3.5,4.93Z" style="fill:#0d0a1d; stroke-width:0px;"/><path d="m605.97,1229.52c-3.23-3.42-3.23-6.83.04-10.23-.02,3.41-.03,6.82-.04,10.23Z" style="fill:#202136; stroke-width:0px;"/><path d="m511.78,300.12v.07h.07v-.07h-.07Zm3.35-53.99v.07h.03l-.03-.07Zm109.44,280.18v.03h.03c.57,0,1.15,0,1.69.03-.54-.03-1.12-.07-1.72-.07Zm32.59,54.33h-.17c.14.07.24.1.37.14.03-.03.03-.1.03-.17l-.24.03Z" style="fill:#ffcb31; stroke-width:0px;"/><path d="m358.83,499.22c-10.99,6.25-24.88,5.88-33.78,15.69-45.61,24.34-75.02,65.25-103.46,107.21-1.28-1.15-2.54-2.3-3.82-3.45,2.06-6.09,4.12-12.21,6.22-18.29v-.03c4.16-8.99,8.35-17.95,12.54-26.95l.54-.2c15.59-23.67,30.16-48.11,52.17-66.77,3.41-2.91,6.49-6.19,9.94-9.06,28.91-24.14,31.07-24.11,59.64,1.86Z" style="fill:#442f10; stroke-width:0px;"/><path d="m657.4,580.53v.07c0,.07,0,.14-.03.17-.14-.03-.24-.07-.37-.14-7.3-2.4-10.48-9.3-15.18-14.4-28.64-31.27-60.76-57.78-99.7-75.36-13.96-6.29-27.89-12.07-43.38-5.27q17.89-31.21,40.13-26.74c10.82,5.82,21.64,11.63,32.46,17.45,18.26,15.38,36.07,31.24,52.27,48.85v.2c0,.14.03.27.07.37.07.24.24.41.47.51.14.03.27.07.44.07v.03h.03c7,9.3,11.8,20.25,21.13,27.79,0,0,.24.41.27.41.78,1.25,1.56,2.54,2.37,3.79l-.27.85c1.56,7.81,11.43,12.04,9.3,21.37Z" style="fill:#442f10; stroke-width:0px;"/><path d="m657.36,580.77c-.14-.03-.24-.07-.37-.14.03-.03.03-.1.03-.14l.14.14.2.14Z" style="fill:#ffd044; stroke-width:0px;"/><path d="m511.85,300.18h-.07v-.07l.07.07Z" style="fill:#ffd044; stroke-width:0px;"/><path d="m511.85,300.12v.07l-.07-.07h.07Z" style="fill:#ffd044; stroke-width:0px;"/><path d="m515.16,246.19h-.03v-.07l.03.07Z" style="fill:#ffd044; stroke-width:0px;"/><path d="m691,718.41c-.71-.61-1.89-.41-3.08-.17-1.39.24-2.81.51-3.45-.54-.17-.14-.24-.41-.3-.68-.41-2.1.91-7.17-.07-8.22-4.56,1.76-10.08,5.51-13.93,2.3-10.85-9.03-24.82-7.44-36.78-12.34-3.04-.17-6.12-.34-9.2-.51-6.69-.2-13.42-.64-20.18-.61-40.74.24-80.91,3.01-115.49,28.37-2.67,4.09-4.29,8.42-3.55,13.42,8.32,5.82,18.16,5.34,27.49,5.85,45.34,2.43,90.64,3.55,135.78-2.91,12.54-4.9,27.01-3.72,38.37-12.21.14-.17.24-.34.3-.54.07-.14.14-.27.2-.41.71-1.76.41-3.92.64-5.92,0-.24.07-.51.1-.74.07-.3.17-.64.27-.95.1-.24.2-.47.34-.68.14-.24.3-.47.47-.64.2-.24.41-.44.64-.61.24-.2.47-.34.74-.47.3-.17.61-.3.98-.44-.1-.14-.17-.27-.3-.37Z" style="fill:#0d0a1d; stroke-width:0px;"/><path d="m399.13,760.87c-53.22,12.54-107.18,19.17-161.68,21-16.8.54-30.7-8.79-41.89-21.37,4.6.1,9.6,6.09,13.66-.1,3.41-5.17-3.45-8.49-3.58-15.86,17.38,11.09,31.95,5.44,47-4.63,12.68-8.45,28.91-8.49,43.28-13.22,2.13-.27,4.23-.57,6.36-.85,3.28-.17,6.56-.37,9.84-.54,26.57.61,53.32-1.05,79.18,7.54,7,2.33,13.42,5.41,19.1,10.04,4.16,10.99.57,15.21-11.26,17.99Z" style="fill:#0d0a1d; stroke-width:0px;"/><path d="m312.1,725.3c-3.28.17-6.56.37-9.84.54,3.11-3.35,6.39-3.48,9.84-.54Z" style="fill:#ffcb31; stroke-width:0px;"/><path d="m434.1,256.21c-1.13-1.13-2.25-2.25-3.38-3.38,1.13,1.13,2.25,2.25,3.38,3.38h0Z" style="fill:#ffd044; stroke-width:0px;"/></g></svg>