<?xml version="1.0" encoding="UTF-8"?><svg id="Layer_1" xmlns="http://www.w3.org/2000/svg" viewBox="0 0 361.72 364.22"><path d="m214.34,315.18c-4.89,3.95-9.75,7.86-14.9,11.4-9.06,6.24-18.96,10.9-28.88,15.51-4.04,1.88-7.3,4.47-10.3,7.82-8.7,9.74-19.65,15.12-32.88,14.21-9.03-.62-17.03-4.42-23.81-10.53-2.71-2.45-5.39-4.93-8.02-7.47-1.58-1.52-3.46-2.46-5.44-3.28-11.72-4.84-22.96-10.52-32.94-18.52-28.06-22.5-47.11-50.59-54.26-86.28-2.52-12.58-3.5-25.24-2.56-37.94,2.13-28.71,11.91-54.81,28.32-78.42,12.93-18.61,29.07-33.8,48.68-45.24,5.6-3.27,12-4.96,17.29-8.86,2.58-1.9,4.71-4.18,6.85-6.77-6.91-2.71-13.44-5.78-19.32-10.02-9.65-6.95-15.24-16.63-18.32-27.91-1.09-4.01-2.58-7.88-3.04-12.1C59.7.79,64.82-.92,72.49.38c15.18,2.56,27.25,10.62,36.94,22.37,3.98,4.82,7.69,9.87,11.53,14.81.56.72,1,1.56,2.13,2.02,3.25-7.4,7.06-14.45,11.05-21.45,5.08-8.91,12.86-6.87,18.76-2.79,3.98,2.75,3.82,8.45-.08,12.55-4.91,5.15-9.52,10.52-12.86,16.85-.91,1.72-1.55,3.58-2.48,5.28-.9,1.65-.14,1.71,1.28,1.91,9.15,1.32,17.11,4.91,22.86,12.49.94,1.24,2.21,1.97,3.49,2.73,9.67,5.71,20.02,10.21,29.18,16.81,29.41,21.19,49.83,48.83,59.89,83.78,3.55,12.35,5.53,25.05,6.65,37.87.13,1.48.44,2.95.69,4.55,24.11-6.41,46.82-3.25,67.51,10.74,15.39,10.4,25.63,24.93,30.19,42.98,10.26,40.68-12.06,79.46-47.73,92.78-35.08,13.1-79.01-.23-97.14-41.45Zm-2.9-207.52c-.06-.1-.14-.18-.24-.24,0-.16-.08-.25-.23-.29-1.06-1.06-2.13-2.11-3.19-3.17l-.19-.18c-1.2-1.39-2.55-2.62-4.12-3.59l.04.05c-.21-.2-.43-.39-.64-.59l.05.03-.75-.8-.2-.17c-.82-.62-1.64-1.25-2.45-1.87l.03.03c-1.32-1.39-2.82-2.56-4.53-3.45l.05.05c-1.11-1.26-2.46-2.18-4-2.85l.05.04c-6.23-4.86-13.31-8.22-20.43-11.51-.09-.13-.2-.17-.35-.12-.82-.42-1.63-.85-2.46-1.25-4.81-2.34-10.47-3.54-12.54-9.5-.1-.29-.56-.45-.85-.68l.02.02-.71-.8c-.04-.11-.12-.17-.23-.21-13.53-10.86-32.54-11.56-46.09-1.68-.12.03-.2.1-.24.21-1.68.97-3.05,2.28-4.28,3.77,0,0-.17.17-.17.17-.7.87-1.39,1.74-2.09,2.61-.1.04-.16.12-.2.22-1.45,1.76-3.27,3.04-5.26,4.11l.04-.04c-6.18,2.25-12.12,4.98-17.6,8.65-.12.01-.21.07-.26.18l-1.47.96-.22.17c-.41.28-.82.57-1.23.85-7.61,4.79-14.43,10.59-20.84,16.85-10.3,10.07-19.47,21.07-26.4,33.79-1.62,3.02-3.24,6.05-4.86,9.07-.12.07-.17.18-.15.32-.74,1.49-1.53,2.96-2.22,4.48-6.37,14.11-10.1,28.97-11.85,44.27-1.65,14.52-.31,28.97,2.72,43.22,4.59,21.56,13.66,41.05,27.67,58.16.03.1.1.17.2.21,1.76,1.95,3.21,4.18,5.31,5.82.72.72,1.44,1.45,2.16,2.17,2.19,2.56,4.69,4.78,7.38,6.81l-.03-.03c1.83,2.1,4.11,3.67,6.34,5.3.05.11.13.17.24.2,2.45,1.94,4.9,3.89,7.62,5.45.06.1.15.16.26.17,3.71,2.62,7.69,4.79,11.7,6.9,6.61,3.48,13.8,5.77,20.15,9.78.05.09.12.15.21.18,1.01.81,2.01,1.62,3.02,2.42l-.03-.04.62.61-.04-.03c.43.45.86.91,1.29,1.36.04.09.11.16.21.19,1.05,1.16,2.21,2.2,3.58,2.99l-.03-.03c7.22,7.2,16.04,9.82,25.97,8.69,5.64-.64,11.09-2.15,15.29-6.43,0,0-.05.04-.05.04.22-.2.43-.4.65-.59l-.04.05c2.2-1.6,4.12-3.48,5.69-5.71.15-.17.29-.33.44-.5,1.56-1.19,3.13-2.37,4.69-3.56.13,0,.23-.07.28-.19,1.84-1.04,3.66-2.14,5.54-3.12,4.57-2.38,9.47-4.12,13.87-6.85.11,0,.2-.05.26-.14,4.01-2.13,7.8-4.62,11.56-7.15.13-.01.21-.08.26-.19,1.28-.69,2.54-1.4,3.55-2.48l-.03.03c1.53-.67,2.87-1.59,3.98-2.84l-.05.04c1.93-1.04,3.66-2.33,5.11-3.98l-.03.03c1.19-.59,2.14-1.47,3.01-2.45l.2-.18c.44-.45.87-.9,1.31-1.35l-.03.03c1.48-.74,1.06-1.82.71-3.08-4.09-14.66-3.13-29.31.41-43.9,1.42-5.88,4.43-11.15,6.78-16.67l-.04.04c2.25-2.37,3.77-5.27,5.68-7.89,0,0-.03.03-.03.03,1.57-1.75,3.15-3.5,4.72-5.25l.19-.2c.31-.31.62-.62.93-.92.09-.04.16-.11.2-.2l3.02-3.05c.16-.16.32-.31.48-.47,1.77-1.39,3.54-2.79,5.3-4.18,0,0,.18-.16.18-.16,3.81-2.52,7.63-5.04,11.44-7.56l-.04.04c2.6-.38,3.52-1.68,3.47-4.48-.16-9.46-1.16-18.82-2.93-28.09-3.98-20.81-11.91-39.97-24.3-57.23-.03-.1-.09-.18-.18-.23-1.65-2.49-3.42-4.88-5.42-7.1-.03-.12-.1-.2-.22-.24-.95-1.23-1.69-2.63-3.02-3.53l.03.03c-1.39-2.26-3.3-4.06-5.24-5.83-.04-.17-.14-.25-.31-.25-.06-.09-.14-.17-.24-.24,0-.21-.12-.32-.33-.33Zm72.6,246.01c37.94,1.05,72.74-31.14,70.16-74.53-2.11-35.52-30.87-64.97-70.56-64.73-36.43.22-69.08,30.19-68.37,71.15.65,38.07,31.28,68.57,68.77,68.1ZM67.68,9.01c.03.58.01.96.08,1.33,3.26,18.73,12.47,33.09,30.44,40.76,5.67,2.42,11.52,5.24,17.83,1.55.3-.18.73-.16,1.1-.2,2.25-.27,2.65-1.11,1.44-3.19-6.1-10.5-13.2-20.28-22.12-28.51-7.41-6.84-16.4-11-26.28-13.13-1.24-.27-2.82-.74-2.49,1.39Zm79.59,13.51c.02-.62-.35-1.03-.74-1.44-2.27-2.35-4.12-2.08-6.04.86-5.52,8.41-9.96,17.33-12.97,26.94-.22.69-1.43,1.77.08,2.32,1.21.44,1.79-.45,2.21-1.55,3.64-9.46,8.74-17.98,16.15-25.01.6-.57,1.17-1.22,1.31-2.11Z" style="fill:#131415; stroke-width:0px;"/><path d="m233.24,227.03c-.16.16-.32.31-.48.47-1.68.35-2.87,1.19-3.02,3.05-.04.1-.1.16-.2.2-.95-.33-1.26-.03-.93.92,0,0-.19.2-.19.19-2.82.63-3.67,3.04-4.72,5.25,0,0,.03-.03.03-.03-3.09,1.77-4.53,4.72-5.68,7.89,0,0,.04-.04.04-.04-.83.22-1.1.94-1.45,1.6-2.16,4.04-4.05,8.19-5.47,12.55-1.99,6.12-2.99,12.43-3.52,18.84-.46,5.58-.38,11.14-.03,16.73.3,4.78,2.87,9.09,2.57,13.94,0,0,.03-.03.03-.03-.86.04-1.74.06-1.31,1.35,0,0-.2.18-.2.18-1.63.05-2.61.9-3.01,2.45,0,0,.03-.03.03-.03-2.27.6-3.95,1.95-5.11,3.98,0,0,.05-.04.05-.04-1.79.29-3.31.98-3.98,2.84,0,0,.03-.03.03-.03-1.54.32-3.1.6-3.55,2.48-.05.12-.14.18-.27.19-.34-.09-.79-.36-1-.23-3.46,2.12-6.88,4.3-10.32,6.46-.37.23-.46.53-.25.92-.06.09-.15.14-.26.14-.4-.32-.85-.4-1.3-.16-5.09,2.74-10.63,4.57-15.54,7.66-.98.61-2.56.78-2.57,2.47-.05.12-.15.18-.28.19-2.48-.03-3.72,1.59-4.69,3.56-.15.17-.29.33-.44.5-2.68,1.12-4.23,3.37-5.69,5.71,0,0,.04-.05.04-.05-.22.2-.43.4-.65.59,0,0,.05-.04.05-.04-.85-.15-1.35.49-1.99.85-11.58,6.58-23.09,6.7-34.59-.26-1.56-.95-2.71-2.58-4.68-2.84,0,0,.03.03.03.03-.71-1.57-1.7-2.82-3.58-2.99-.1-.04-.16-.1-.21-.19.44-1.29-.44-1.31-1.29-1.36,0,0,.04.03.04.03-.21-.2-.41-.41-.62-.61,0,0,.03.04.03.04-.23-1.78-1.45-2.31-3.02-2.42-.1-.03-.17-.09-.21-.18.29-.49.16-.92-.3-1.18-2.11-1.18-4.16-2.5-6.37-3.45-7.7-3.28-15.3-6.74-22.41-11.21-.8-.5-1.62-1.37-2.78-.85-.12-.01-.2-.07-.26-.18-1.95-2.65-4.36-4.64-7.62-5.45-.11-.03-.19-.09-.24-.2-1.36-2.66-3.78-4.07-6.34-5.3,0,0,.03.03.03.03-1.64-3.16-4.42-5.08-7.38-6.81-.72-.72-1.44-1.45-2.16-2.17-1.26-2.4-2.37-4.94-5.31-5.82-.1-.04-.17-.11-.2-.21.46-.97-.18-1.62-.71-2.23-8.77-10.32-14.52-22.36-19.72-34.69-5.83-13.8-8.36-28.4-9.38-43.22-.64-9.3-.6-18.72,1.13-27.94,2.34-12.46,5.32-24.76,10.56-36.42.79-1.75,2.38-3.39,1.78-5.64-.02-.14.02-.25.15-.32.79.42.96-.26,1.21-.71,1.26-2.29,2.49-4.6,3.73-6.9.27-.51.55-1.01-.08-1.47,6.94-12.72,16.1-23.72,26.4-33.79,6.4-6.26,13.23-12.06,20.84-16.85.23.35.56.51.93.3.46-.26.62-.66.3-1.15,0,0,.22-.17.22-.17.83.2,1.65.38,1.47-.97.05-.11.14-.17.26-.18.51.45.99.3,1.52-.02,4.39-2.66,8.99-4.91,13.76-6.8.91-.36,2.02-.62,2.31-1.83,0,0-.04.04-.04.04,2.77-.07,4.48-1.49,5.26-4.11.03-.1.1-.17.2-.22,1.86.06,2.14-1.15,2.09-2.61,0,0,.17-.17.17-.17,1.9-.73,3.94-1.28,4.28-3.77.04-.11.13-.18.24-.21,1.27.49,2.11-.48,3.04-.99,12.29-6.77,24.58-6.46,37.04-.38,2.02.99,3.43,3.2,6.01,3.06.11.03.19.1.23.21-.36.8.23.75.71.8,0,0-.02-.02-.02-.02,1.37,3.15,2.58,6.42,6.09,7.92,2.65,1.14,5.31,2.27,7.96,3.41.59.25,1.17.67,1.8.1.15-.05.27-.02.35.12-.29,1.44,1.05,1.34,1.74,1.68,5.59,2.81,11.21,5.57,16.36,9.15.73.51,1.43.86,2.33.68,0,0-.05-.04-.05-.04.82,1.67,2.08,2.72,4,2.85,0,0-.05-.05-.05-.05,1,1.81,2.33,3.2,4.53,3.45,0,0-.03-.03-.03-.03.25,1.37,1.05,2.01,2.45,1.87,0,0,.2.17.2.17-.33.81.25.77.75.8,0,0-.05-.03-.05-.03.21.2.43.39.64.59,0,0-.04-.05-.04-.05,1.05,1.57,1.83,3.44,4.12,3.59,0,0,.19.18.19.18.26,1.87,1.29,2.96,3.19,3.17.15.04.23.14.23.29-.03.11-.06.22-.08.33.11-.03.22-.06.33-.09.21,0,.32.12.33.33-.03.11-.06.22-.09.32.11-.03.22-.06.32-.09.17,0,.27.08.31.25,1.14,2.48,2.56,4.72,5.24,5.83,0,0-.03-.03-.03-.03.61,1.52.73,3.45,3.02,3.53.11.04.19.12.21.24.78,3.15,2.86,5.31,5.42,7.1.1.05.16.12.18.23-.45.96.23,1.58.69,2.25,8.9,13.08,15.36,27.3,19.73,42.48,1.72,5.99,3.19,12.05,3.93,18.27.71,6.01,1.53,11.98,1.79,18.06.14,3.36,1.18,6.55-2.38,8.74,0,0,.04-.04.04-.04-4.36,1-7.58,4.01-11.18,6.34-.41.26-.54.73-.26,1.21,0,0-.18.16-.18.16-2.69.23-4.02,2.17-5.3,4.19Zm-58.93-62.09c-.11-.03-.22-.05-.33-.08.03.11.05.22.08.33,0,.15-.08.24-.22.29-.79-.34-.76.23-.8.72l.02-.03c-1.52.14-2.16.94-1.83,2.46-.01.12-.07.21-.17.27-1.67.29-2.01,1.47-1.96,2.92l.04-.05c-1.7,1.79-2.37,3.97-2.31,6.37.02.91-.12,2.14,1.43,2.1.08.07.13.15.15.26-.09,2.12,1.62,2.29,2.98,2.44,1.69.19,3.1-.62,3.79-2.29.46-1.12.82-2.28,1.15-3.45,2.66-9.18,13.25-13.29,21.56-7.96.53.34,1.1.77,1.8.34.1.03.18.1.22.2-.32.83.29.76.78.81.16.15.31.3.47.45,1.32,3.46,3.3,6.6,4.78,10,1.38,3.19,4.36,3.25,6.85.72,2.58-2.62,1.12-9.79-2.4-11.76-.11-.06-.16-.15-.17-.27.22-2.28-1.48-3.14-3.04-4.1l.04.06c.2-1-.44-1.6-1.09-2.13-6.04-4.92-12.68-7.95-20.65-5.77-3.66,1-7.43,2.03-9.61,5.65l.06-.07c-.22.19-.44.38-.67.57l.04-.03c-.49.04-1.06.01-.72.8-.05.14-.14.21-.28.22Zm-5.83,41.14c-.7.04-1.08.41-1.14,1.11-1.06.14-1.86.79-2.75,1.32-8.82,5.29-18.4,6.41-28.39,5.08-5.34-.71-10.25-2.73-14.96-5.26-.84-.71-1.62-1.52-2.79-1.71-1.5-1.76-2.9-3.62-4.53-5.25-2.11-2.1-3.93-1.95-6.21.21-1.45,1.07-1.7,2.44-1.16,4.11.83,2.54,1.77,5.02,3.4,7.17,1.39,3.46,3.52,6.42,6.2,9,.92,1.33,2.04,2.46,3.38,3.37,2.19,2.84,5.29,4.28,8.48,5.66,11.09,4.81,22.13,4.81,32.85-.82,3.78-1.98,7.7-4.16,9.92-8.21.94-.56,1.69-1.31,2.24-2.25.19-.19.38-.37.56-.56,1.09-.61,1.46-1.67,1.71-2.79.77-.05,1.09-.63,1.4-1.22,1.6-3.06,3.09-6.15,3.75-9.59.45-2.36-.61-4.57-2.75-5.38-2.3-.87-4-.02-5.28,2.61-1.3.21-2.06.95-2.25,2.26-.8.02-1.35.41-1.68,1.13Zm-91.73-38.83c-.73.33-1.1.89-1.13,1.69-2.37,2.55-3.32,5.83-4.34,9.01-.46,1.46-.51,3.23,1.5,3.98,2.21,2.81,5.79,2.3,7.02-1.26.95-2.76,2.45-5.19,3.71-7.76.29-.23.63-.42.85-.7,3.5-4.58,8.04-6,13.72-5.15,2.82.42,4.88,2.11,7.34,3.05,2.38,3.3,4.34,6.73,5.57,10.72.93,3.01,4.69,2.83,6.87-.02,1.68-.47,1.89-1.88,1.57-3.14-1.46-5.7-3.53-11.07-8.91-14.35-.24-.44-.66-.54-1.11-.57-3.08-3.37-7.29-4.64-11.48-5.28-6.76-1.03-12.94.68-17.82,5.85-1.34,1.13-2.93,2.04-3.37,3.94Zm-17.22,108.79c-.29-2.32-.23-4.45-2.76-4.37-2.22.07-2.94,1.9-2.94,3.77,0,1.63.88,2.88,2.83,2.72,1.64-.14,2.95-.65,2.86-2.12Zm5.16-169.51c-1.68.49-3.11,1.2-3.14,3.29-.02,1.64.65,2.83,2.37,2.74,2.04-.11,3.12-1.47,3.24-3.49.09-1.66-1.11-2.17-2.47-2.54Zm1.4,193.7c.09-1.6-.55-2.51-2.26-2.46-1.8.06-2.88.93-2.75,2.78.11,1.43.51,2.89,2.4,2.88,2.09-.01,2.69-1.36,2.61-3.2Zm-31.51-81.58c-1.22.22-2.2.97-2.08,2.18.15,1.58.26,3.56,2.48,3.77,1.54.15,2.2-1.13,2.17-2.36-.04-1.61-.7-3.08-2.57-3.59Zm-17.54-18.43c.02,1.39-.24,3,1.87,3.04,1.92.04,2.59-1.29,2.65-2.92.07-1.63-.79-2.65-2.49-2.74-1.87-.09-2.06,1.19-2.03,2.62Zm32.75-69.07c-.08-1.52-.71-2.72-2.12-2.53-1.54.2-2.68,1.45-2.89,3.01-.18,1.38.78,2.41,2.17,2.33,1.69-.09,2.51-1.36,2.84-2.81Zm-14.43,114.93c-1.6.39-2.53,1.37-2.51,3.14.02,1.42.77,2.05,2.15,1.91,1.7-.17,2.87-1.03,2.83-2.84-.03-1.42-.98-2.14-2.48-2.22Zm.11-68.65c-.31-1.2-.74-2.23-2.13-2.25-1.84-.03-3.02.95-3.24,2.74-.14,1.13.73,2.11,1.8,2.09,1.66-.03,2.92-.99,3.57-2.58Zm-14.23,59.11c1.39.08,2.4-.9,2.45-2.47.05-1.41-1.06-2.14-2.46-2.09-1.59.05-2.81.88-2.84,2.5-.03,1.42,1.12,2.03,2.85,2.06Zm17.07,34.46c-1.36.55-2.79,1.04-2.62,2.84.13,1.31.9,2.46,2.32,2.31,1.44-.15,2.75-.97,2.61-2.72-.11-1.31-1-2.14-2.31-2.44Zm54.74,47.43c-.39-1.36-.83-2.92-2.76-2.78-1.51.11-1.89,1.26-1.76,2.64.16,1.77,1.01,2.77,2.86,2.63,1.48-.11,1.74-1.15,1.66-2.5Zm-55.42-161.79c1.49,0,2.63-.42,2.55-2.19-.06-1.45-.92-2.3-2.31-2.28-1.62.02-2.63,1.03-2.74,2.63-.12,1.76,1.22,1.82,2.5,1.85Z" style="fill:#ffd129; stroke-width:0px;"/><path d="m67.68,9.01c-.33-2.13,1.25-1.66,2.49-1.39,9.88,2.13,18.87,6.29,26.28,13.13,8.92,8.24,16.02,18.01,22.12,28.51,1.21,2.08.8,2.92-1.44,3.19-.37.04-.8.03-1.1.2-6.31,3.69-12.15.87-17.83-1.55-17.97-7.67-27.18-22.03-30.44-40.76-.06-.37-.05-.75-.08-1.33Z" style="fill:#38844a; stroke-width:0px;"/><path d="m22.27,146.82c.6,2.24-1,3.89-1.78,5.64-5.24,11.65-8.22,23.96-10.56,36.42-1.73,9.22-1.77,18.64-1.13,27.94,1.02,14.81,3.55,29.41,9.38,43.22,5.2,12.33,10.95,24.38,19.72,34.69.53.62,1.17,1.27.71,2.23-14.01-17.11-23.08-36.59-27.67-58.16-3.03-14.25-4.38-28.7-2.72-43.22,1.74-15.31,5.48-30.16,11.85-44.27.69-1.52,1.48-2.99,2.22-4.48Z" style="fill:#efdb30; stroke-width:0px;"/><path d="m147.27,22.51c-.14.89-.71,1.54-1.31,2.11-7.41,7.03-12.51,15.55-16.15,25.01-.42,1.09-1,1.99-2.21,1.55-1.51-.55-.3-1.63-.08-2.32,3.01-9.61,7.45-18.53,12.97-26.94,1.93-2.94,3.77-3.21,6.04-.86.4.41.77.82.74,1.44Z" style="fill:#38844a; stroke-width:0px;"/><path d="m250.12,215.17c3.56-2.19,2.52-5.38,2.38-8.74-.26-6.07-1.08-12.05-1.79-18.06-.74-6.23-2.2-12.28-3.93-18.27-4.37-15.18-10.83-29.4-19.73-42.48-.46-.67-1.14-1.29-.69-2.25,12.39,17.26,20.32,36.42,24.3,57.23,1.78,9.27,2.77,18.63,2.93,28.09.05,2.8-.87,4.1-3.47,4.48Z" style="fill:#efdb30; stroke-width:0px;"/><path d="m210.2,308.6c.3-4.85-2.26-9.16-2.57-13.94-.36-5.59-.43-11.14.03-16.73.53-6.41,1.52-12.71,3.52-18.84,1.42-4.36,3.32-8.51,5.47-12.55.35-.66.62-1.38,1.45-1.6-2.35,5.52-5.35,10.8-6.78,16.67-3.53,14.59-4.5,29.23-.41,43.9.35,1.26.77,2.34-.71,3.08Z" style="fill:#efdb30; stroke-width:0px;"/><path d="m153.55,66.61c-2.58.15-3.99-2.07-6.01-3.06-12.46-6.08-24.75-6.39-37.04.38-.92.51-1.76,1.48-3.04.99,13.55-9.88,32.55-9.18,46.09,1.68Z" style="fill:#efdb30; stroke-width:0px;"/><path d="m108.76,347.4c1.97.26,3.12,1.9,4.68,2.84,11.5,6.97,23.01,6.84,34.59.26.64-.36,1.14-1,1.99-.85-4.2,4.28-9.65,5.78-15.28,6.43-9.93,1.13-18.76-1.48-25.97-8.69Z" style="fill:#efdb30; stroke-width:0px;"/><path d="m68.08,323.07c1.16-.52,1.98.35,2.78.85,7.11,4.47,14.71,7.93,22.41,11.21,2.21.94,4.26,2.27,6.37,3.45.46.26.6.68.3,1.18-6.35-4.02-13.54-6.3-20.15-9.78-4.02-2.11-7.99-4.28-11.7-6.9Z" style="fill:#efdb30; stroke-width:0px;"/><path d="m191.1,90.66c-.9.18-1.59-.17-2.33-.68-5.16-3.58-10.77-6.34-16.36-9.15-.69-.34-2.03-.24-1.74-1.68,7.12,3.29,14.2,6.65,20.43,11.51Z" style="fill:#efdb30; stroke-width:0px;"/><path d="m161.67,339.2c.01-1.69,1.6-1.85,2.57-2.47,4.91-3.09,10.45-4.92,15.54-7.66.45-.24.9-.17,1.3.16-4.41,2.73-9.3,4.47-13.87,6.85-1.88.98-3.69,2.08-5.54,3.12Z" style="fill:#efdb30; stroke-width:0px;"/><path d="m170.32,79.02c-.64.56-1.21.15-1.8-.1-2.65-1.14-5.3-2.28-7.96-3.41-3.51-1.5-4.73-4.77-6.09-7.92.29.22.75.39.85.68,2.07,5.97,7.74,7.17,12.54,9.5.83.4,1.64.84,2.46,1.25Z" style="fill:#efdb30; stroke-width:0px;"/><path d="m95.28,75.98c-.29,1.21-1.4,1.47-2.31,1.83-4.78,1.89-9.37,4.13-13.76,6.8-.53.32-1.01.47-1.52.02,5.48-3.67,11.42-6.4,17.6-8.65Z" style="fill:#efdb30; stroke-width:0px;"/><path d="m238.73,222.69c-.28-.48-.15-.95.26-1.21,3.6-2.34,6.82-5.35,11.18-6.34-3.81,2.52-7.63,5.04-11.44,7.56Z" style="fill:#efdb30; stroke-width:0px;"/><path d="m181.35,329.09c-.21-.39-.12-.69.25-.92,3.43-2.16,6.86-4.33,10.32-6.46.21-.13.66.14,1,.23-3.76,2.53-7.56,5.01-11.56,7.15Z" style="fill:#efdb30; stroke-width:0px;"/><path d="m27.27,137.43c.62.46.35.96.08,1.47-1.24,2.3-2.47,4.61-3.73,6.9-.24.44-.42,1.13-1.21.71,1.62-3.02,3.24-6.05,4.86-9.07Z" style="fill:#efdb30; stroke-width:0px;"/><path d="m218.06,244.99c1.14-3.17,2.59-6.12,5.68-7.89-1.91,2.62-3.42,5.52-5.68,7.89Z" style="fill:#efdb30; stroke-width:0px;"/><path d="m46.27,305.16c2.96,1.73,5.74,3.65,7.38,6.81-2.69-2.02-5.18-4.25-7.38-6.81Z" style="fill:#efdb30; stroke-width:0px;"/><path d="m60.2,317.44c3.26.81,5.68,2.8,7.62,5.45-2.73-1.56-5.17-3.51-7.62-5.45Z" style="fill:#efdb30; stroke-width:0px;"/><path d="m226.18,125.14c-2.56-1.79-4.64-3.95-5.42-7.1,2,2.22,3.78,4.61,5.42,7.1Z" style="fill:#efdb30; stroke-width:0px;"/><path d="m150.58,349.16c1.45-2.35,3.01-4.59,5.69-5.71-1.56,2.24-3.48,4.11-5.69,5.71Z" style="fill:#efdb30; stroke-width:0px;"/><path d="m53.62,311.94c2.56,1.23,4.97,2.63,6.34,5.3-2.22-1.63-4.5-3.2-6.34-5.3Z" style="fill:#efdb30; stroke-width:0px;"/><path d="m217.55,114.3c-2.67-1.11-4.09-3.34-5.24-5.83,1.94,1.77,3.84,3.57,5.24,5.83Z" style="fill:#efdb30; stroke-width:0px;"/><path d="m38.8,297.17c2.93.88,4.04,3.42,5.31,5.82-2.1-1.64-3.54-3.87-5.31-5.82Z" style="fill:#efdb30; stroke-width:0px;"/><path d="m107.22,65.13c-.33,2.5-2.38,3.05-4.28,3.77,1.22-1.49,2.6-2.8,4.28-3.77Z" style="fill:#efdb30; stroke-width:0px;"/><path d="m233.24,227.03c1.28-2.01,2.62-3.95,5.3-4.19-1.77,1.4-3.54,2.79-5.3,4.19Z" style="fill:#efdb30; stroke-width:0px;"/><path d="m223.71,237.13c1.05-2.22,1.9-4.62,4.72-5.25-1.57,1.75-3.15,3.5-4.72,5.25Z" style="fill:#efdb30; stroke-width:0px;"/><path d="m100.5,71.9c-.78,2.62-2.49,4.04-5.26,4.11,1.99-1.07,3.81-2.35,5.26-4.11Z" style="fill:#efdb30; stroke-width:0px;"/><path d="m200.62,316.5c1.16-2.03,2.85-3.37,5.11-3.98-1.46,1.65-3.19,2.94-5.11,3.98Z" style="fill:#efdb30; stroke-width:0px;"/><path d="m207.58,103.77c-2.29-.15-3.07-2.02-4.12-3.59,1.57.97,2.92,2.2,4.12,3.59Z" style="fill:#efdb30; stroke-width:0px;"/><path d="m156.7,342.95c.97-1.97,2.2-3.59,4.69-3.56-1.56,1.19-3.12,2.37-4.69,3.56Z" style="fill:#efdb30; stroke-width:0px;"/><path d="m199.53,96.86c-2.19-.25-3.52-1.64-4.53-3.45,1.71.89,3.2,2.06,4.53,3.45Z" style="fill:#efdb30; stroke-width:0px;"/><path d="m196.69,319.3c.67-1.86,2.19-2.55,3.98-2.84-1.11,1.25-2.45,2.17-3.98,2.84Z" style="fill:#efdb30; stroke-width:0px;"/><path d="m195.05,93.46c-1.92-.12-3.18-1.18-4-2.85,1.53.67,2.88,1.59,4,2.85Z" style="fill:#efdb30; stroke-width:0px;"/><path d="m220.54,117.8c-2.29-.07-2.42-2.01-3.02-3.53,1.34.89,2.07,2.3,3.02,3.53Z" style="fill:#efdb30; stroke-width:0px;"/><path d="m210.97,107.13c-1.9-.21-2.93-1.31-3.19-3.17,1.06,1.06,2.13,2.11,3.19,3.17Z" style="fill:#efdb30; stroke-width:0px;"/><path d="m105.21,344.44c1.88.17,2.87,1.42,3.58,2.99-1.37-.79-2.53-1.83-3.58-2.99Z" style="fill:#efdb30; stroke-width:0px;"/><path d="m205.71,312.55c.41-1.55,1.38-2.41,3.01-2.45-.87.98-1.83,1.86-3.01,2.45Z" style="fill:#efdb30; stroke-width:0px;"/><path d="m193.17,321.75c.44-1.88,2.01-2.16,3.55-2.48-1,1.09-2.27,1.8-3.55,2.48Z" style="fill:#efdb30; stroke-width:0px;"/><path d="m229.75,230.55c.15-1.86,1.34-2.7,3.02-3.05-1.01,1.02-2.01,2.04-3.02,3.05Z" style="fill:#efdb30; stroke-width:0px;"/><path d="m102.78,69.08c.05,1.47-.22,2.67-2.09,2.61.69-.87,1.39-1.74,2.09-2.61Z" style="fill:#efdb30; stroke-width:0px;"/><path d="m100.15,339.94c1.57.11,2.79.64,3.02,2.42-1.01-.81-2.01-1.62-3.02-2.42Z" style="fill:#efdb30; stroke-width:0px;"/><path d="m201.96,98.7c-1.4.14-2.2-.5-2.45-1.87.82.62,1.64,1.25,2.45,1.87Z" style="fill:#efdb30; stroke-width:0px;"/><path d="m75.74,85.94c.32.49.16.89-.3,1.15-.38.21-.7.05-.93-.3.41-.28.82-.57,1.23-.85Z" style="fill:#efdb30; stroke-width:0px;"/><path d="m208.92,309.92c-.43-1.29.45-1.31,1.31-1.35-.44.45-.87.9-1.31,1.35Z" style="fill:#efdb30; stroke-width:0px;"/><path d="m103.71,342.89c.85.05,1.74.07,1.29,1.36-.43-.45-.86-.91-1.29-1.36Z" style="fill:#efdb30; stroke-width:0px;"/><path d="m77.43,84.81c.18,1.35-.64,1.16-1.47.97.49-.32.98-.64,1.47-.97Z" style="fill:#efdb30; stroke-width:0px;"/><path d="m228.62,231.68c-.33-.95-.02-1.26.93-.92-.31.31-.62.62-.93.92Z" style="fill:#efdb30; stroke-width:0px;"/><path d="m154.5,67.61c-.48-.04-1.07,0-.71-.8.24.27.48.53.71.8Z" style="fill:#efdb30; stroke-width:0px;"/><path d="m202.91,99.68c-.5-.03-1.08,0-.75-.8.25.27.5.53.75.8Z" style="fill:#efdb30; stroke-width:0px;"/><path d="m203.5,100.24c-.21-.2-.43-.39-.64-.59.21.2.43.39.64.59Z" style="fill:#efdb30; stroke-width:0px;"/><path d="m149.97,349.7c.22-.2.43-.4.65-.59-.22.2-.43.4-.65.59Z" style="fill:#efdb30; stroke-width:0px;"/><path d="m212,108.23c-.11.03-.22.06-.32.09.03-.11.06-.22.09-.32.1.06.17.14.24.24Z" style="fill:#efdb30; stroke-width:0px;"/><path d="m211.44,107.66c-.11.03-.22.06-.33.09.03-.11.05-.22.08-.33.1.06.18.15.24.24Z" style="fill:#efdb30; stroke-width:0px;"/><path d="m103.14,342.32c.21.2.41.4.62.61-.21-.2-.41-.41-.62-.61Z" style="fill:#efdb30; stroke-width:0px;"/><path d="m201.17,171.06c-.16-.15-.31-.3-.47-.45-.26-.27-.52-.54-.78-.81-.04-.1-.12-.17-.22-.2-1.44-1.37-3.09-2.41-5.01-2.89-8.17-2.04-16.78.82-19.89,12.01-1.08,3.88-3.1,4.43-6.39,1.8-.02-.1-.06-.19-.15-.26-1.34-2.99.49-5.66.88-8.47,0,0-.04.05-.04.05,1.11-.67,1.36-1.91,1.96-2.92.1-.06.16-.15.17-.27.61-.82,1.22-1.64,1.83-2.46,0,0-.02.03-.02.03.27-.24.53-.48.8-.72.14-.04.22-.14.22-.29.1-.07.19-.15.25-.25.14,0,.24-.08.28-.22.24-.27.48-.53.72-.8,0,0-.04.03-.04.03.22-.19.44-.38.67-.57,0,0-.06.07-.06.07,1.09-.7,2.16-1.43,3.27-2.09,6.02-3.56,12.33-4.3,18.92-1.82,3.53,1.33,6.31,3.8,9.16,6.15,0,0-.04-.06-.04-.06,1.01,1.37,2.03,2.73,3.04,4.1.01.12.07.21.18.27,1.32,2.34,2.32,4.8,2.95,7.42.57,2.41-.57,4.02-2.64,4.89-2.02.85-3.56-.28-4.53-2.81-1.19-3.09-2.33-6.24-5.01-8.46Z" style="fill:#131415; stroke-width:0px;"/><path d="m170.78,221.86c-2.21,4.05-6.14,6.22-9.92,8.21-10.73,5.63-21.76,5.63-32.85.82-3.18-1.38-6.29-2.82-8.48-5.66.13-.13.26-.27.39-.4,9.83,8.12,21.01,9.96,33.23,7.32,7.03-1.52,12.35-5.77,17.46-10.44l.16.15Z" style="fill:#efdb30; stroke-width:0px;"/><path d="m121.24,208.33c4.71,2.53,9.62,4.55,14.96,5.26,10,1.33,19.58.21,28.39-5.08.89-.53,1.69-1.18,2.75-1.32,0,0,.12.13.12.13-.32.33-.6.72-.97.98-12.87,8.94-32.55,9.14-45.66.47.14-.15.27-.29.41-.44Z" style="fill:#efdb30; stroke-width:0px;"/><path d="m168.42,180.51c3.28,2.63,5.31,2.07,6.39-1.8,3.12-11.19,11.73-14.05,19.89-12.01,1.91.48,3.57,1.53,5.01,2.89-.7.44-1.27,0-1.8-.34-8.31-5.33-18.9-1.22-21.56,7.96-.34,1.16-.7,2.33-1.15,3.45-.68,1.67-2.09,2.48-3.79,2.29-1.36-.15-3.07-.32-2.98-2.44Z" style="fill:#efdb30; stroke-width:0px;"/><path d="m207.23,165.7c-2.85-2.35-5.64-4.83-9.16-6.15-6.59-2.48-12.9-1.74-18.92,1.82-1.11.66-2.18,1.39-3.27,2.09,2.18-3.62,5.95-4.65,9.61-5.65,7.97-2.18,14.61.85,20.65,5.77.65.53,1.29,1.13,1.09,2.13Z" style="fill:#efdb30; stroke-width:0px;"/><path d="m59.54,276.04c.09,1.47-1.22,1.98-2.86,2.12-1.95.16-2.83-1.09-2.83-2.72,0-1.87.71-3.7,2.94-3.77,2.53-.08,2.47,2.05,2.76,4.37Z" style="fill:#b7942f; stroke-width:0px;"/><path d="m80.13,163.31c4.88-5.17,11.06-6.88,17.82-5.85,4.19.64,8.4,1.91,11.48,5.28l-.15.17c-.89-.48-1.79-.96-2.67-1.45-9.14-5.07-18.78-4.24-26.06,2.25l-.42-.4Z" style="fill:#efdb30; stroke-width:0px;"/><path d="m64.7,106.54c1.35.37,2.56.88,2.47,2.54-.11,2.02-1.19,3.38-3.24,3.49-1.72.09-2.4-1.1-2.37-2.74.03-2.09,1.47-2.8,3.14-3.29Z" style="fill:#b7942f; stroke-width:0px;"/><path d="m201.17,171.06c2.69,2.22,3.83,5.36,5.01,8.46.97,2.53,2.5,3.66,4.53,2.81,2.07-.87,3.21-2.48,2.64-4.89-.62-2.61-1.62-5.08-2.95-7.42,3.52,1.97,4.98,9.14,2.4,11.76-2.49,2.53-5.47,2.47-6.85-.72-1.48-3.4-3.46-6.54-4.78-10Z" style="fill:#efdb30; stroke-width:0px;"/><path d="m66.11,300.23c.07,1.84-.52,3.18-2.61,3.2-1.89.01-2.29-1.45-2.4-2.88-.14-1.85.94-2.72,2.75-2.78,1.71-.06,2.35.86,2.26,2.45Z" style="fill:#b7942f; stroke-width:0px;"/><path d="m34.6,218.65c1.87.51,2.52,1.98,2.57,3.59.03,1.23-.62,2.51-2.17,2.36-2.23-.21-2.33-2.19-2.48-3.77-.12-1.21.86-1.96,2.08-2.18Z" style="fill:#b7942f; stroke-width:0px;"/><path d="m17.06,200.22c-.03-1.42.16-2.71,2.03-2.62,1.7.09,2.55,1.11,2.49,2.74-.07,1.62-.73,2.96-2.65,2.92-2.11-.04-1.85-1.65-1.87-3.04Z" style="fill:#b7942f; stroke-width:0px;"/><path d="m172.41,202.69c1.28-2.64,2.98-3.48,5.28-2.61,2.14.8,3.19,3.02,2.75,5.38-.65,3.44-2.15,6.53-3.75,9.59-.31.59-.62,1.16-1.4,1.22l-.12-.11c1.9-3.29,3.4-6.76,4.36-10.45.78-3-.85-5.01-3.81-4.9-1.54.05-2.17,1.26-3.16,2.03l-.15-.14Z" style="fill:#efdb30; stroke-width:0px;"/><path d="m105.44,170.1c-2.47-.95-4.52-2.63-7.34-3.05-5.68-.85-10.21.57-13.72,5.15-.22.28-.56.47-.85.7-.14-.14-.29-.27-.43-.41,4.33-8.33,18.09-8.16,22.48-2.54l-.14.15Z" style="fill:#efdb30; stroke-width:0px;"/><path d="m49.81,131.15c-.33,1.45-1.15,2.72-2.84,2.81-1.39.07-2.36-.95-2.17-2.33.21-1.56,1.35-2.81,2.89-3.01,1.41-.18,2.05,1.01,2.12,2.53Z" style="fill:#b7942f; stroke-width:0px;"/><path d="m35.37,246.08c1.49.08,2.45.8,2.48,2.22.04,1.8-1.14,2.67-2.83,2.84-1.38.14-2.13-.49-2.15-1.91-.03-1.78.91-2.75,2.51-3.14Z" style="fill:#b7942f; stroke-width:0px;"/><path d="m35.49,177.42c-.65,1.59-1.91,2.55-3.57,2.58-1.07.02-1.94-.96-1.8-2.09.21-1.79,1.39-2.77,3.24-2.74,1.39.02,1.83,1.05,2.13,2.25Z" style="fill:#b7942f; stroke-width:0px;"/><path d="m21.26,236.53c-1.73-.03-2.88-.64-2.85-2.06.03-1.62,1.26-2.44,2.84-2.5,1.4-.05,2.51.68,2.46,2.09-.05,1.57-1.06,2.55-2.45,2.47Z" style="fill:#b7942f; stroke-width:0px;"/><path d="m38.33,271c1.31.3,2.2,1.13,2.31,2.44.14,1.75-1.17,2.57-2.61,2.72-1.42.15-2.19-1-2.32-2.31-.18-1.8,1.26-2.3,2.62-2.84Z" style="fill:#b7942f; stroke-width:0px;"/><path d="m93.07,318.43c.09,1.35-.18,2.39-1.66,2.5-1.86.14-2.7-.87-2.86-2.63-.12-1.38.25-2.53,1.76-2.64,1.93-.14,2.37,1.41,2.76,2.78Z" style="fill:#b7942f; stroke-width:0px;"/><path d="m37.65,156.63c-1.28-.03-2.62-.08-2.5-1.85.11-1.6,1.12-2.62,2.74-2.63,1.39-.01,2.25.83,2.31,2.28.07,1.78-1.07,2.2-2.56,2.19Z" style="fill:#b7942f; stroke-width:0px;"/><path d="m110.55,163.31c5.38,3.28,7.45,8.66,8.91,14.35.32,1.26.11,2.67-1.57,3.14l-.11-.11c.97-1.45.83-2.99.4-4.56-1.36-4.99-3.88-9.22-8.02-12.41.13-.14.26-.27.39-.41Z" style="fill:#efdb30; stroke-width:0px;"/><path d="m117.88,180.8c-2.17,2.84-5.94,3.03-6.87.02-1.23-3.98-3.19-7.42-5.57-10.72,0,0,.14-.15.14-.15,2.89,1.87,4.38,4.73,5.36,7.85,1.45,4.66,2.66,5.22,6.84,2.88l.11.11Z" style="fill:#efdb30; stroke-width:0px;"/><path d="m83.53,172.9c-1.26,2.57-2.76,5-3.71,7.76-1.23,3.56-4.82,4.08-7.02,1.26l.12-.12c4.11,1.92,4.77,1.67,6.5-2.61.96-2.38,2.12-4.65,3.69-6.7.14.14.29.27.43.41Z" style="fill:#efdb30; stroke-width:0px;"/><path d="m72.79,181.93c-2.01-.75-1.96-2.52-1.5-3.98,1.02-3.18,1.96-6.46,4.34-9.01.14.13.28.26.42.39-.94,1.87-2.03,3.65-2.74,5.65-.8,2.27-1.8,4.46-.39,6.83l-.12.12Z" style="fill:#efdb30; stroke-width:0px;"/><path d="m107.71,201.58c2.29-2.16,4.11-2.31,6.21-.21,1.63,1.63,3.03,3.49,4.53,5.25l-.15.16c-1.73-.85-2.82-2.37-3.98-3.82-1.92-2.39-3.47-2.63-6.19-.99-.14-.13-.28-.26-.42-.39Z" style="fill:#efdb30; stroke-width:0px;"/><path d="m109.95,212.86c-1.63-2.16-2.57-4.63-3.4-7.17-.55-1.67-.29-3.04,1.16-4.11.14.13.28.26.42.39-1.18,1.48-1.18,3.06-.4,4.71.9,1.92,1.77,3.86,2.66,5.8-.14.13-.29.25-.43.38Z" style="fill:#efdb30; stroke-width:0px;"/><path d="m116.15,221.87c-2.68-2.58-4.8-5.54-6.2-9,.14-.13.29-.25.43-.38,1.74,3.2,3.74,6.24,6.15,8.98-.13.13-.26.27-.38.4Z" style="fill:#efdb30; stroke-width:0px;"/><path d="m169.15,171.78c-.39,2.82-2.22,5.48-.88,8.47-1.55.04-1.41-1.2-1.43-2.1-.07-2.4.6-4.59,2.31-6.37Z" style="fill:#efdb30; stroke-width:0px;"/><path d="m76.75,167.25c.44-1.9,2.03-2.81,3.37-3.94.14.13.28.26.42.4-1.13,1.3-2.26,2.61-3.4,3.91-.13-.12-.26-.25-.4-.37Z" style="fill:#efdb30; stroke-width:0px;"/><path d="m210.23,169.75c-1.01-1.37-2.03-2.73-3.04-4.1,1.56.96,3.26,1.82,3.04,4.1Z" style="fill:#efdb30; stroke-width:0px;"/><path d="m119.53,225.23c-1.34-.9-2.46-2.04-3.38-3.37.13-.13.25-.27.38-.4,1.13,1.12,2.26,2.24,3.39,3.37-.13.13-.26.27-.39.4Z" style="fill:#efdb30; stroke-width:0px;"/><path d="m170.16,204.95c.19-1.31.95-2.05,2.25-2.26,0,0,.15.14.15.14-.58.93-1.3,1.72-2.27,2.26l-.13-.14Z" style="fill:#efdb30; stroke-width:0px;"/><path d="m171.07,168.91c-.6,1.01-.85,2.25-1.96,2.92-.05-1.45.29-2.63,1.96-2.92Z" style="fill:#efdb30; stroke-width:0px;"/><path d="m173.07,166.18c-.61.82-1.22,1.64-1.83,2.46-.33-1.52.31-2.32,1.83-2.46Z" style="fill:#efdb30; stroke-width:0px;"/><path d="m175.29,216.26c-.25,1.12-.62,2.18-1.71,2.79-.14-.13-.28-.27-.43-.4.67-.83,1.35-1.67,2.02-2.5l.12.11Z" style="fill:#efdb30; stroke-width:0px;"/><path d="m173.02,219.61c-.55.95-1.3,1.7-2.24,2.25,0,0-.16-.15-.16-.15.67-.84,1.35-1.67,2.02-2.51.13.14.25.27.38.41Z" style="fill:#efdb30; stroke-width:0px;"/><path d="m118.45,206.62c1.17.18,1.95.99,2.79,1.71-.14.15-.27.29-.41.44-.99-.48-1.88-1.08-2.53-1.98l.15-.16Z" style="fill:#efdb30; stroke-width:0px;"/><path d="m75.63,168.94c.02-.8.4-1.36,1.13-1.69.13.12.26.25.4.37-.37.57-.73,1.14-1.1,1.71-.14-.13-.28-.26-.42-.39Z" style="fill:#efdb30; stroke-width:0px;"/><path d="m168.48,206.08c.33-.72.88-1.11,1.68-1.13,0,0,.13.14.13.14-.47.46-.94.92-1.41,1.38-.13-.13-.27-.26-.4-.39Z" style="fill:#efdb30; stroke-width:0px;"/><path d="m167.34,207.19c.06-.7.44-1.07,1.14-1.11.13.13.27.26.4.39-.47.28-.95.57-1.42.85,0,0-.12-.13-.12-.13Z" style="fill:#efdb30; stroke-width:0px;"/><path d="m199.93,169.79c.26.27.52.54.78.81-.49-.05-1.1.02-.78-.81Z" style="fill:#efdb30; stroke-width:0px;"/><path d="m173.84,165.48c-.27.24-.53.48-.8.72.04-.49,0-1.06.8-.72Z" style="fill:#efdb30; stroke-width:0px;"/><path d="m109.43,162.74c.45.03.87.13,1.11.57-.13.14-.26.27-.39.41-.29-.27-.58-.54-.87-.82l.15-.17Z" style="fill:#efdb30; stroke-width:0px;"/><path d="m175.32,163.93c-.24.27-.48.53-.72.8-.34-.79.24-.75.72-.8Z" style="fill:#efdb30; stroke-width:0px;"/><path d="m173.58,219.05c-.19.19-.38.37-.56.56-.13-.13-.25-.27-.38-.41.17-.19.34-.37.52-.56.14.13.28.27.43.4Z" style="fill:#efdb30; stroke-width:0px;"/><path d="m174.31,164.94c-.06.1-.15.19-.25.25-.03-.11-.05-.22-.08-.33.11.03.22.05.33.08Z" style="fill:#efdb30; stroke-width:0px;"/><path d="m175.94,163.39c-.22.19-.44.38-.67.57.22-.19.44-.38.67-.57Z" style="fill:#efdb30; stroke-width:0px;"/><path d="m331.75,252.98c.03,4.28-1.22,6.85-3.08,9.14-11.67,14.39-23.36,28.78-35.06,43.14-3.49,4.28-7.07,8.49-10.6,12.74-3.57,4.29-7.34,5.63-10.94,3.83-1.69-.85-3.02-2.22-4.32-3.54-8.03-8.14-16.06-16.29-24.01-24.5-1.99-2.05-3.71-4.36-5.62-6.51-3.9-4.38-1.45-11.94,4.28-13.63,4.54-1.34,8.64-.52,12.14,2.92,6.15,6.04,12.03,12.35,18.44,18.12,1.49,1.34,2.22,1.19,3.48-.26,12.64-14.45,24.79-29.31,36.92-44.18.83-1.01,1.71-1.99,2.64-2.91,2.86-2.79,6.22-3.25,9.82-1.81,3.86,1.55,5.92,4.7,5.89,7.44Z" style="fill:#38844a; stroke-width:0px;"/><path d="m173.15,218.65c-.17.19-.34.37-.52.56-.67.84-1.35,1.67-2.02,2.51-5.11,4.67-10.44,8.92-17.46,10.44-12.22,2.64-23.41.8-33.23-7.32-1.13-1.12-2.26-2.24-3.39-3.37-2.41-2.75-4.4-5.78-6.15-8.98-.89-1.93-1.76-3.87-2.66-5.8-.78-1.66-.78-3.23.4-4.71,2.72-1.64,4.27-1.4,6.19.99,1.16,1.45,2.25,2.97,3.98,3.82.66.9,1.55,1.5,2.53,1.98,13.11,8.67,32.79,8.47,45.66-.47.37-.26.65-.65.97-.98.47-.28.95-.57,1.42-.85.47-.46.94-.92,1.41-1.38.97-.54,1.68-1.33,2.27-2.26.99-.76,1.62-1.97,3.16-2.03,2.95-.1,4.58,1.9,3.81,4.9-.95,3.69-2.46,7.15-4.36,10.45-.67.83-1.35,1.67-2.02,2.5Z" style="fill:#131415; stroke-width:0px;"/><path d="m109.28,162.9c.29.27.58.54.87.82,4.14,3.19,6.66,7.43,8.02,12.41.43,1.57.56,3.11-.4,4.56-4.17,2.34-5.39,1.77-6.84-2.88-.97-3.13-2.47-5.99-5.36-7.85-4.39-5.62-18.15-5.78-22.48,2.54-1.57,2.05-2.72,4.32-3.69,6.7-1.73,4.28-2.39,4.54-6.5,2.61-1.4-2.37-.41-4.56.39-6.83.71-2,1.8-3.78,2.74-5.65.37-.57.73-1.14,1.1-1.71,1.13-1.3,2.26-2.61,3.4-3.91,7.28-6.49,16.92-7.32,26.06-2.25.89.49,1.78.97,2.67,1.45Z" style="fill:#131415; stroke-width:0px;"/></svg>