<?xml version="1.0" encoding="utf-8"?>
<!-- Generator: Adobe Illustrator 28.0.0, SVG Export Plug-In . SVG Version: 6.00 Build 0)  -->
<svg version="1.1" id="Layer_1" xmlns="http://www.w3.org/2000/svg" xmlns:xlink="http://www.w3.org/1999/xlink" x="0px" y="0px"
	 viewBox="0 0 466.9 484.6" style="enable-background:new 0 0 466.9 484.6;" xml:space="preserve">
<style type="text/css">
	.st0{fill:#FACB32;}
	.st1{fill:#DC3B29;}
	.st2{fill:#E1E0DA;}
	.st3{fill:#426F3C;}
	.st4{fill:#EDB320;}
	.st5{fill:#F1B920;}
	.st6{fill:#30372C;}
	.st7{fill:#233820;}
	.st8{fill:#262B27;}
	.st9{fill:#222222;}
	.st10{fill:#32582E;}
	.st11{fill:#FBFBF7;}
	.st12{fill:#F4DC31;}
	.st13{fill:#232424;}
	.st14{fill:#F6F5F3;}
</style>
<g>
	<path class="st0" d="M303.2,261.7c0.1,1.1,0.1,2.2-0.5,3.2c-0.1-0.6-0.2-1.1-0.4-2.4c-0.4,2-0.8,3.3,0.3,4.4
		c0.1,0.2,0.1,0.4,0.1,0.6c-0.2,0.6-0.6,1.1-0.7,1.7c-0.8,12-5,23.2-8.3,34.6c-8.3,23.4-20.8,44.1-38.7,61.5
		c-10.5,10.2-22.1,18.7-35.2,25.3c-0.9,0.4-1.7,1-2.5,1.5c-1.7,0.3-3.1,1.2-4.5,2.1c-1.1,0.2-2.1,0.7-2.9,1.5
		c-1.5,0.5-2.8,1.2-3.9,2.3c-6.4,4.2-10.7,10.4-15.7,16c-7.9,8.7-17.5,13.4-29.5,11.5c-8.9-1.4-16-6.1-21.1-13.6
		c-3.7-5.5-7.8-10.4-14-13.2c-1.1-1-2.5-1.5-3.8-2.1c-0.1-0.2-0.3-0.2-0.5-0.1c-0.6-0.9-1.6-0.6-2.4-0.8l0,0
		c-1.4-0.9-2.7-2.1-4.5-2.3c-9.7-5.3-19.6-10.3-28.3-17.1c-24.4-19.1-41.9-43.1-51.9-72.4c-0.1-0.2-0.3-0.4-0.4-0.6
		c1.4-6.2,4.2-11.9,7-17.6l0,0c0.1-0.3,0.2-0.6,0.3-0.8c4.3-7.2,8.9-14.1,15.1-19.8c1-0.9,1.2-2.1,1.3-3.3c1.3-2.8-0.8-4.5-2.6-5.4
		c-1.7-0.9-4.2-1.6-5.6,1.2l0.1-0.1c-0.3,0.2-0.6,0.5-0.9,0.7l0.1-0.1c-0.3,0.3-0.5,0.5-0.8,0.8l0.1,0c-0.6,0.1-1.4,0-1,1.1
		l-0.2,0.2c-1.1-0.4-1,0.4-1.1,1l0,0c-1.1,0-1.6,0.6-1.5,1.6c-3.1,4.7-7.2,8.7-9.6,13.9c-0.8,0.8-1.4,1.8-1.6,2.9l0,0
		c-0.2,0.3-0.4,0.5-0.6,0.8c-0.2,0.1-0.3,0.3-0.2,0.5c-0.7,0.4-0.7,1-0.9,1.7l0-0.1c-0.7,1.1-1.4,2.2-2.1,3.3
		c-3.1-7.9-4-16.2-5-24.5c-1.5-12.5-1.5-25.1,0-37.6c2.7-22.8,9.4-44.4,20.7-64.4c15.8-28.1,37.6-50,66.7-64.5
		c9.5-4.7,17.8-10.9,24.2-19.6c5.5-7.5,12.4-12.9,21.7-14.9c4.2,0,8.4,0,12.6,0c10.3,2.5,17.9,8.7,23.9,17.4
		c5.8,8.3,14.2,13.6,23,18.1c30.6,15.5,53.5,38.6,69.1,69c8.8,17.2,14.4,35.4,16.6,54.7c0.4,3.5,0.4,7.1,1.1,10.6
		c-1.8,0.5-1.3,2-1.1,3.1c1,6.6,0.8,13.1,0.1,19.7C302.3,255.6,301.9,258.7,303.2,261.7z M205.8,258.3l0.2,0.2
		c-0.2,0.6,0,0.8,0.6,0.5l0.2,0.2c-0.3,2,1.3,2.5,2.6,3.2l-0.1-0.1c0.2,1.2,0,2.6,1.8,2.6l0,0.3c-0.2,0.5,0,0.8,0.5,0.9l-0.1,0
		c0.5,2.7-0.1,5.8,2.9,7.5l-0.1,0c0.3,0.3,0.5,0.5,0.8,0.8c0.2,0.2,0.5,0.4,0.7,0.6c2.4,2.6,4.7,2.3,6.6-0.6l0,0
		c2-0.6,2.8-1.7,1.7-3.7c-0.8-8.1-4.3-14.8-10.5-20c-0.8-1.1-1.7-1.8-2.9-2.3l0.1,0.1c-0.3-0.2-0.6-0.5-0.8-0.7l0,0
		c-1-0.7-2-1.4-3-2.2c0,0,0,0,0,0l0-0.3c-0.1-0.5-0.3-0.9-0.9-0.8c-0.1,0.2-0.2,0.2-0.4,0.1c0.3-1.8-1.4-1.8-2.4-2.3
		c-9.1-4.6-18.8-5.1-28.6-3.7c-1.8,0.3-4.1,0-5.4,1.9c-1.6,0.1-3.5-0.6-4.4,1.5c-2.4,0.1-4.4,1-6,2.9c-0.6,0-1.2,0.1-1.4,0.8
		c-2,0.4-3.7,1.1-4.4,3.3c0,0.1,0,0.3-0.1,0.4c-6.9,4.8-11.6,11.2-14.1,19.2c-1.3,4.1,0.1,6.7,3.4,7.7c3.2,0.9,5.5-0.7,7-4.6
		c1.9-5,4.6-9.4,9.1-12.6c0.4-0.3,0.7-0.6,1.1-0.9l-0.1,0c0.7,0,1.5,0.1,1.2-1l0.2,0c1.5,0.1,2.6-0.5,3.1-2l-0.1,0.1
		c0.7,0.1,1.3,0,1.5-0.8l-0.1,0.1c1,0.2,1.9-0.1,2.8-0.5c7.3-3,14.8-4,22.6-2.4c2.7,0.6,5.2,2.3,8.1,2.1l-0.1-0.1
		c0.6,1.8,1.9,2.6,3.7,2.3l-0.1-0.1c0.5,1,0.9,2.3,2.5,1.8l0.2,0.2C205.1,258.3,205.2,258.5,205.8,258.3z M226.4,175
		c-0.3-0.3-0.6-0.5-0.8-0.8c-0.3-0.2-0.5-0.5-0.8-0.7c-1.2-1.3-2.4-2.5-3.6-3.8l0,0c-0.2-0.3-0.5-0.6-0.7-0.9
		c-0.2-0.4-0.5-0.8-0.7-1.3c-0.6-1.6-0.9-3.3-2.2-4.6c0-0.2,0-0.4-0.1-0.6c0.7-0.7,0-1.1-0.4-1.4c-2.9-1.8-5.9-1.1-8.4,2.1
		c-1.8,3.7-0.9,7.6,2.4,10.3l-0.1-0.1c0,1.5,0.2,2.9,2.2,3l-0.1,0c0.3,0.3,0.6,0.6,0.8,0.8c0.9,0.9,1.9,1.9,2.8,2.8
		c0.2,0.3,0.5,0.6,0.7,0.9c5.4,6.8,20.2,11.6,28.3,9.2c1.2-0.4,2.8-0.3,3.2-2c0,0,0.1,0.1,0.1,0.1c0.3-0.2,0.6-0.5,0.9-0.7
		c0-0.2,0.1-0.4,0.1-0.5c0,0,0,0,0,0c0.4-0.3,0.7-0.6,1.1-0.9c2.9-3.1,1.5-6.7-3.1-8c-5.7,0.9-11.4,1.9-17.1-0.4l-0.1,0
		c-0.8-0.4-1.6-0.8-2.4-1.3l0.1,0.1C227.9,176,227.1,175.5,226.4,175L226.4,175z M121.1,222.4c0.5,0.3,0.9,0.6,1.4,0.9
		c0.2,0.6,0.7,0.7,1.3,0.7c8.1,4.3,16.2,4.5,24.4,0c5.5-2,9.3-5.9,11.6-11.1c1.4-3.3-0.5-6.5-3.6-6.4c-1.9,0-3.1,1.3-4.3,2.6
		c-3.1,3.2-6.3,6.4-10.8,7.4c-7.8,1.8-14.2-1.2-19.6-6.7c-2-2-4.3-3.2-6.8-1.2c-2.7,2.1-2.1,4.8-0.4,7.2
		C116,218.6,118.4,220.7,121.1,222.4z M121.5,189.7c14.6-0.7,25-7.1,31.1-20c1.8-3.8,1-6.8-2-8.2c-3-1.4-5.6-0.1-7.5,3.8
		c-5.6,11.5-14.4,16-26.8,13.2c-3.2-0.7-5,0.6-6.1,3.2c-1.1,2.6,0.3,5.6,3.1,6.6C116,189.4,119,189.3,121.5,189.7z M227.7,227.3
		c8.4-0.2,15.4-4,20.3-11.3c2.1-3.1,2-6-0.4-7.5c-2.9-2-4.9-0.4-6.9,1.8c-6.3,6.9-15.6,8.6-23,4.5c-2.6-1.5-4.7-3.5-6.7-5.7
		c-1.7-1.9-3.6-2-5.6-0.8c-1.9,1.2-2.4,3-1.7,5.2c1,3.2,2.9,5.7,5.5,7.7C214.4,225.3,220.5,227.2,227.7,227.3z M67.8,169.2
		c0.4,1.4,0.6,3,2.9,2.9c2.2-0.1,3-1.8,2.9-3.5c-0.1-1.6-1-3.5-2.7-3.5C68.9,165.2,67.8,166.9,67.8,169.2z M80.4,138.3
		c0,0.8,0.5,2.1,2.4,1.9c1.8-0.2,2.7-1.4,2.7-3.3c0-1.7-0.8-3.1-2.4-3.1C81,133.8,80.4,135.5,80.4,138.3z M54.5,292
		c0-1.7-0.5-3-2.5-2.8c-1.9,0.2-2.6,1.8-2.5,3.4c0,1.6,1.1,3,2.7,2.9C54.1,295.4,54.5,293.7,54.5,292z M50,193
		c-0.1,1.8,0.7,2.8,2.6,2.8c2,0,2.5-1.4,2.5-3c0-1.7-1.1-2.8-2.8-2.8C50.2,189.9,50,191.4,50,193z M70,318.9c0,1.5,0.4,2.8,2.2,2.7
		c1.9-0.1,3-1.2,2.9-3.1c-0.1-1.7-1.2-2.7-2.9-2.7C70.2,315.9,70,317.3,70,318.9z M106.3,117c-0.3,1.9,0.6,3.1,2.5,3.2
		c1.5,0,2.6-1.1,2.5-2.6c-0.2-1.6-0.9-3.1-2.9-3.2C106.5,114.2,106.2,115.4,106.3,117z M80.3,200c-0.4-1.3-0.6-3.2-2.6-3.2
		c-1.6,0-2.4,1.4-2.5,3c-0.1,1.8,0.8,2.7,2.6,2.7C79.4,202.5,80.3,201.8,80.3,200z M111.3,361.6c-0.6-1.6-1.2-3.2-3-3.4
		c-1.7-0.2-2.4,1.4-2.4,2.7c-0.1,1.5,0.7,2.9,2.5,3C110,363.9,110.9,363.1,111.3,361.6z M65,222.5c1.5,0,2.7-0.5,2.7-2.2
		c0-1.8-0.9-3.2-2.7-3.4c-1.5-0.1-2.3,1.2-2.4,2.7C62.5,221.3,63.1,222.5,65,222.5z M101.6,327.6c1.3-0.5,2.5-1.3,2.3-2.8
		c-0.3-1.5-1-3.1-3-3c-1.8,0.2-2.1,1.5-1.9,2.9C99,326.3,100,327.3,101.6,327.6z M98.1,157.9c-0.2-1.2-0.8-2.6-2.6-2.4
		c-1.3,0.2-2.8,0.9-2.4,2.6c0.3,1.4,0.9,2.9,2.8,2.9C97.7,160.9,98.2,159.8,98.1,157.9z M41.1,238.6c0,1.4,0,3,1.8,3
		c1.9-0.1,2.6-1.5,2.6-3.3c0-1.6-0.9-2.4-2.5-2.4C41,235.8,41.1,237.2,41.1,238.6z M80.3,343.8c-0.2-1.5-1.1-2.6-2.7-2.8
		c-1.6-0.2-2.4,0.8-2.4,2.4c0,1.9,1.3,2.5,2.8,2.6C79.4,346.2,80.3,345.4,80.3,343.8z M78.9,289c0.1-1.5-0.7-2.5-2-2.5
		c-1.6,0-2.3,1.2-2.3,2.7c0,1.5,1,2.1,2.4,2.1C78.6,291.4,79,290.4,78.9,289z"/>
	<path class="st1" d="M307.7,163.4c-0.2-42.9,35-80.5,80.7-79.4c41.9,1,78.8,35.5,78.5,81.3c-0.3,42.3-33.6,79-79,79.2
		C342,244.6,307.3,207.6,307.7,163.4z M347.8,197.1c0.2,2.3,1.8,4.7,4.8,6.1c3.3,1.6,6.2,0.7,8.7-1.7c8.1-8,16.2-15.9,24.1-24
		c1.5-1.5,2.2-1.5,3.6,0c7.7,7.8,15.5,15.6,23.2,23.3c4,4,8.5,4.2,12,0.8c3.6-3.4,3.3-7.8-0.9-12c-7.8-7.8-15.5-15.5-23.4-23.2
		c-1.6-1.5-1.9-2.1-0.1-3.8c7.9-7.5,15.5-15.2,23.3-22.8c2.2-2.1,3.9-4.4,3.4-7.7c-0.5-3.2-2.4-5.4-5.4-6.5c-3.2-1.2-6-0.2-8.4,2.2
		c-7.8,7.7-15.7,15.4-23.3,23.2c-1.9,1.9-2.8,1.7-4.5-0.1c-7.3-7.5-14.7-14.9-22.2-22.3c-4.4-4.4-8.8-4.7-12.5-0.9
		c-3.6,3.7-3.3,7.7,1.1,12.2c7.6,7.6,15.1,15.2,22.8,22.7c1.8,1.7,1.6,2.6-0.1,4.2c-7.8,7.4-15.3,15-23,22.5
		C349.3,191.2,347.7,193.1,347.8,197.1z"/>
	<path class="st2" d="M251.3,448.5c1.4-1.6,3.3-1,4.8-0.8c11.1,1.4,22.1,2.7,33.1,4.4c9.8,1.5,19.7,3.1,28.8,7.4
		c2.1,1,4.5,2,4.4,4.9c-0.2,3-2.6,4.3-5,5.3c-10.9,4.4-22.3,6.6-33.9,8.2c-15.4,2.2-30.9,3.6-46.4,4.6c-11,0.7-22.1,0.9-33.1,1.5
		c-13.3,0.8-26.6,0.5-39.9,0.5c-13.5-0.1-27.1-0.5-40.5-1.5c-22.2-1.6-44.5-3.4-66.3-8.1c-6.4-1.4-12.7-2.8-18.4-6.3
		c-1.8-1.1-3.7-2.1-3.6-4.6c0.1-2.3,2-2.9,3.6-3.8c8.2-4.4,17.3-5.5,26.2-7.1c12.1-2.2,24.2-3.8,36.5-4.1c2-0.1,3.3,0.4,4,2.2
		c0.2,0.9,0.1,1.8-0.5,2.5c-0.2-0.4-0.7-1-0.7-0.9c0.1,2.2-1,4.5,0.7,6.5c1.6,4.8,5.2,7.4,10,8.1c9.4,1.3,18.8,2.2,28.3,1.6
		c9-0.6,12.6-7.2,8.3-15.2c-1.6-3-4-5.2-6.2-7.7c10.4-0.1,20.8-1.6,31.2-0.7c9.8,0.9,19.6,0.4,29.4,0.6c2.7,0,3.5,1,3.3,3.5
		c0,2-0.1,3.9-0.1,5.9c0,6.9,3,10.9,9.8,12c9.4,1.5,18.8,2.2,28.3,1.6c8.2-0.6,11.8-7,7.9-14.4C254.2,452.5,252.7,450.6,251.3,448.5
		z"/>
	<path class="st3" d="M145.3,26.9c1.6,1.5,3.2,3,4.7,4.5c-2.9,0.5-5.6-0.6-8.4-0.8c-16.3-0.8-31.7,3.5-47.1,7.8
		c-11.2,3.2-21.4,8.7-31.8,13.7c-8,3.8-15.9,7.8-24.2,10.9c-0.7,0.3-2,0.3-1.7,1.5c0.4,1.5,1.6,0.6,2.5,0.4
		c4.9-1.1,9.7-2.8,14.4-4.7c10.2-4.1,20.1-8.6,30.4-12.4c15.3-5.7,31.1-9.2,47.3-10.3c6.5-0.5,13-0.8,19.4,1.4
		c-1.7,6.5-5.7,11.6-10.4,16.2c-2.9,2.8-5.9,5.5-8.9,8.2c-0.2-0.1-0.3-0.2-0.5-0.3c0.1,0.2,0.2,0.3,0.3,0.5c0,0-0.2,0.2-0.2,0.2
		c-1.7-0.4-2.1,0.7-2.4,1.9c0,0,0.1-0.1,0.1-0.1c-0.3,0.3-0.6,0.6-0.9,0.8c-0.2,0.2-0.4,0.4-0.7,0.6c-1.6,0-2.6,0.9-3,2.4
		c0,0,0.1-0.1,0.1-0.1c-0.7,0-1.5-0.1-1,1c0,0-0.3,0.2-0.3,0.2c-2.6-0.4-3.7,1.4-4.7,3.3c0,0,0.1-0.1,0.1-0.1
		c-1.2-0.1-2,0.3-2.3,1.6c0,0,0.1-0.1,0.1-0.1c-1.2-0.1-2,0.3-2.3,1.6c0,0,0.1-0.1,0.1-0.1c-0.8,0.2-1.7,0.3-2.4,0.7
		c-9.3,5.2-19.1,9.1-29.6,11.5c-0.9,0.2-2.1,0.2-2.1,1.6c-1.8,0.3-3.5,0.6-5.3,0.8c-6.4-1-12.8,0.1-19.2,0.7c-0.3,0-0.5,0-0.8,0
		c-0.1-0.6-0.4-1.3-1.1-1.3c-3.1,0.2-5.9-0.8-8.8-1.5c-1.3-0.3-2.9-0.6-4.1,0.5c-0.3,0-0.5-0.1-0.8-0.1c-3.1-2.2-6.5-3.3-10.3-2.9
		c-3.6-1.1-7.1-2.3-10.4-4.1c-4.3-3.9-9.6-5.6-14.9-7.5c0,0,0.1,0.1,0.1,0.1c-0.3-0.5-0.6-1.2-1-1.4c-2.6-1.3-2-2.7-0.2-4.1
		c1.1-0.9,2.4-1.6,3.6-2.5c1.6-1.2,3.7-1.8,4.3-4.1c0,0,0,0,0,0c1.2,0,2-0.4,2.2-1.6c0,0-0.1,0.1-0.1,0.1c1.7,0.1,2.5-0.9,3-2.3
		c0,0-0.1,0.1-0.1,0.1c1.7,0.1,2.6-0.8,3-2.3c0,0-0.1,0.1-0.1,0.1c0.3-0.3,0.6-0.5,0.9-0.8c0,0-0.1,0.1-0.1,0.1
		c0.4,0,0.7-0.1,1.1-0.1c-0.1-0.2-0.2-0.4-0.3-0.6c13.9-12.5,27.7-25.2,45.1-33c0.8-0.3,1.6-0.6,2.4-0.9c0.8,1,1.6,0.2,2.3,0
		c3.5-1.1,6.9-2.5,10.5-3.4c13.8-3.8,27.8-4.5,41.9-1.5c5.2,1.1,9.7,4.1,15,4.8c0,0,0,0,0,0c0.8,1.6,2.2,2.1,3.9,2.1
		c0,0-0.1-0.1-0.1-0.1c0.3,1.3,1.1,1.7,2.3,1.6c0,0-0.1-0.1-0.1-0.1c0.1,0.5,0.4,0.7,0.9,0.7c0,0-0.1-0.1-0.1-0.1
		C144.2,26.7,144.7,26.9,145.3,26.9z"/>
	<path class="st4" d="M293.7,303.8c3.2-11.4,7.4-22.6,8.3-34.6c0-0.6,0.4-1.1,0.7-1.7c1.1,1.1,2.3,2.3,3.4,3.4
		c5.7,5.8,10.5,6.4,17.5,2.3c5.5-3.2,10.9-6.7,16.6-9.5c5.7-2.9,11.6-5,18.4-3.5c10.3,2.3,16.6,16.5,9.1,25.5
		c-6.4,7.7-14.6,12.7-23.3,17c-9.5,4.8-19.3,8.4-30.3,7.3C306.6,309.3,300,307.2,293.7,303.8z"/>
	<path class="st0" d="M31.4,337.5c11.4,4.5,17,13.9,20.8,24.8c1.1,3.1,1.4,6.2-1.4,8.5c-3,2.5-6.2,1.4-9.3-0.2
		c-0.7-0.4-1.4-0.9-2.5-1.6c0.8,3.5,1.1,6.7,0.4,9.8c-1.1,5.3-4.4,9-9.6,10.1c-5.7,1.3-10.4-1.1-13.9-5.6c-4.7-5.9-4.6-13.1-4.9-20
		c-0.2-3.8,0.2-7.6,0.5-11.4c0.4-4.7,2.9-8.3,6.6-11.1c1.1-0.8,2.1-1.7,3.1-2.6C24.6,337.3,28,337,31.4,337.5z"/>
	<path class="st5" d="M105,453.8c0.6-0.8,0.7-1.6,0.5-2.5c0.6-2.8,1.7-5.4,3.9-7.3c3.7-2.8,8.2-3.1,12.4-4.6
		c8.6-0.4,16.6,1.6,23.6,6.8c2.2,2.5,4.6,4.7,6.2,7.7c4.3,8,0.6,14.7-8.3,15.2c-9.5,0.6-18.9-0.3-28.3-1.6c-4.8-0.7-8.4-3.3-10-8.1
		C105,457.6,105,455.7,105,453.8z"/>
	<path class="st5" d="M251.3,448.5c1.3,2,2.8,4,3.9,6.1c3.8,7.4,0.3,13.8-7.9,14.4c-9.5,0.6-19-0.1-28.3-1.6
		c-6.9-1.1-9.9-5.1-9.8-12c0-2,0-3.9,0.1-5.9c0.5-0.9,1-1.8,1.4-2.6c1.3-1.2,2.5-2.4,3.8-3.6c1.3-0.6,2.6-1.2,3.9-1.9
		c1.1-0.4,2.3-0.8,3.4-1.2c5-0.4,9.9-0.9,14.9,0.3C242.4,441.9,247,445,251.3,448.5z"/>
	<path class="st6" d="M157.6,44.7c-1.1-2.6-3.6-3.9-5.5-5.9c1.4-1.2,1.1-4.2,4-3.9c0,0,0,0,0,0c0.2,0.3,0.4,0.6,0.6,0.9
		c1.3,1.1,1.3,0.1,1.4-0.8c0,0,0,0.1,0,0.1c1.2-0.8,1.4-2.1,1.5-3.2c0.4-5.2,2-10.3,2.9-15.4c0.8-4.5,3.1-8.6,3.1-13.3c0,0,0,0,0,0
		c1.1,0.2,1.8-0.3,2.6-0.9c3-2,6-0.8,8.5,0.7c2.6,1.6,2.7,4.2,1.7,7.2c-0.9,2.6-2.8,5-2.2,8c0,0,0.1-0.1,0.1-0.1
		c-3.8,4.8-3.6,10.8-4.4,16.3c-0.8,5.4-2.5,10.8-2,16.5c0.2,2.3,0,5.6-1.1,7.6c-1.5,2.9-4.9-0.5-7.5,0.3c-1.8,0.6-2.4-0.1-2.3-2
		c0.3-3.7-0.5-7.4,0.5-11C159.9,43.9,158.9,44,157.6,44.7z"/>
	<path class="st7" d="M156.1,35c-2.9-0.3-2.6,2.7-4,3.9c-0.4,0-0.9,0-1.3,0c-6.3-2.2-12.9-1.9-19.4-1.4
		c-16.2,1.1-32.1,4.7-47.3,10.3c-10.3,3.8-20.2,8.3-30.4,12.4c-4.7,1.9-9.4,3.6-14.4,4.7c-0.9,0.2-2,1.1-2.5-0.4
		c-0.4-1.2,0.9-1.2,1.7-1.5c8.3-3.1,16.2-7.1,24.2-10.9c10.4-5,20.6-10.5,31.8-13.7c15.4-4.4,30.8-8.6,47.1-7.8
		c2.8,0.1,5.6,1.2,8.4,0.8C152.1,32.6,154.1,33.8,156.1,35z"/>
	<path class="st8" d="M31.4,337.5c-3.4-0.5-6.9-0.3-10.2,0.7c-1.9-18.2,0.7-35.7,8-52.5c0.7-1.1,1.4-2.2,2.1-3.3
		c0.2,0.9,0.2,1.7-0.3,2.5c-3.8,7.3-5.4,15.3-7.6,23.2c-2.4,8.6,0.2,17.6-1.5,26.3c-0.4,1.9,1.5,2.4,3.1,2.2
		c1.5-0.2,4.2,1.1,4.3-1.3c0.1-2.3,0.8-4.5,0.7-6.9c-0.2-3.5-1.1-7.3-0.5-10.6c1.6-9,2.9-18.2,7.4-26.3c1.1-1.9,1-5,4-5.7
		c-2.9,5.7-5.6,11.4-7,17.6c-2.7,10-3.7,20.2-2.7,30.6C31.2,335.1,31.3,336.3,31.4,337.5z"/>
	<path class="st8" d="M121.7,439.5c-4.2,1.4-8.7,1.8-12.4,4.6c1-10.8,2.1-21.5,3.1-32.3c0.6-6.1,1.3-12.2,2-18.3
		c1.8,0.2,3,1.4,4.5,2.3c-2.3-0.2-3.6,0.3-4,3.3c-0.4,2.6,0.5,5.1-0.5,7.6c-1.3,3.5-1.1,7.3-1.3,10.9c-0.4,6.6-1,13.1-1.9,19.6
		c-0.4,3,0.5,4.1,3.4,3.2c1.3-0.4,2.6-0.6,3.9-0.9c1.3-0.3,2.6-1.2,2.3-2.4c-1.3-5.4,1.4-10.4,1.1-15.7c-0.2-3.7,0.9-7.5,1-11.3
		c0.1-4.5,3.4-9.3-1.1-13.4c1.4,0.5,2.8,1,3.8,2.1C124.4,412.3,123.1,425.9,121.7,439.5z"/>
	<path class="st9" d="M157.6,44.7c1.3-0.7,2.3-0.8,1.8,1.1c-1,3.6-0.2,7.3-0.5,11c-0.2,1.8,0.5,2.5,2.3,2c2.6-0.8,5.9,2.5,7.5-0.3
		c1.1-2,1.3-5.2,1.1-7.6c-0.5-5.7,1.2-11.1,2-16.5c0.8-5.5,0.6-11.5,4.4-16.3c-3.7,13.8-4.9,27.9-6.1,42c-4.2,0-8.4,0-12.6,0
		c0-3.2,0.1-6.3,0.1-9.5c0.1-0.1,0.3-0.2,0.2-0.2c0-0.2-0.1-0.4-0.2-0.5C157.5,48.2,157.6,46.5,157.6,44.7z"/>
	<path class="st10" d="M137.4,21.8c-5.3-0.7-9.8-3.7-15-4.8c-14.1-3-28.1-2.3-41.9,1.5c-3.5,1-7,2.3-10.5,3.4c-0.7,0.2-1.5,1-2.3,0
		c22.2-9.2,44.5-11.8,67.1-1.5C135.8,20.7,136.6,21.3,137.4,21.8z"/>
	<path class="st8" d="M221.9,440.2c-1.1,0.4-2.3,0.8-3.4,1.2c-0.1-0.2-0.2-0.3-0.3-0.5c1.9-1.2,2.6-2.8,2.2-5
		c-0.2-1.4-0.6-2.9-0.7-4.3c-0.8-7.9-1.7-15.9-2.2-23.8c-0.2-3.5-1.6-6.9-1.2-10.1c0.5-3.6-0.5-3.9-3.3-3.4l-0.1-0.2
		c1.4-0.9,2.8-1.9,4.5-2.1C218.8,408.1,220.3,424.2,221.9,440.2z"/>
	<path class="st10" d="M79.7,90.5c0.1-1.4,1.3-1.4,2.1-1.6c10.4-2.3,20.3-6.3,29.6-11.5c0.7-0.4,1.6-0.5,2.4-0.7
		C103.5,83.8,91.9,87.9,79.7,90.5z"/>
	<path class="st9" d="M165.5,3.2c0.1,4.7-2.3,8.8-3.1,13.3c-0.9,5.1-2.5,10.1-2.9,15.4c-0.1,1.1-0.3,2.5-1.5,3.2
		c0.7-10,3.2-19.6,5.9-29.1C164.3,4.9,164.6,3.9,165.5,3.2z"/>
	<path class="st9" d="M176,18.2c-0.6-3,1.4-5.4,2.2-8c1-2.9,0.9-5.6-1.7-7.2c-2.5-1.6-5.5-2.8-8.5-0.7c-0.9,0.6-1.6,1.1-2.6,0.9
		c4-4.6,10.7-4.2,13.9,0.9c0.9,1.5,1.4,3,0.6,4.9C178.5,12,177.3,15.1,176,18.2z"/>
	<path class="st5" d="M303.2,261.7c-1.3-2.9-0.8-6.1-0.5-9c0.8-6.6,1-13.1-0.1-19.7c-0.2-1.1-0.7-2.5,1.1-3.1
		C304.3,240.5,304.4,251.1,303.2,261.7z"/>
	<path class="st10" d="M10.7,63.2c-0.6,2.3-2.7,2.9-4.3,4.1c-1.2,0.8-2.5,1.6-3.6,2.5C1,71.2,0.4,72.6,3,73.9c0.5,0.2,0.7,0.9,1,1.4
		c-1.7-0.6-3.7-1.1-4-3.2c-0.3-2.4,1.8-3.2,3.4-4.2C5.8,66.2,8.3,64.7,10.7,63.2z"/>
	<path class="st10" d="M4,75.2c5.3,1.9,10.6,3.7,14.9,7.5C13.7,80.6,8.7,78.2,4,75.2z"/>
	<path class="st10" d="M40.4,89.8c1.2-1.2,2.8-0.8,4.1-0.5c2.9,0.7,5.8,1.7,8.8,1.5c0.7,0,1,0.6,1.1,1.3
		C49.7,91.6,45,91.1,40.4,89.8z"/>
	<path class="st10" d="M55.2,92c6.4-0.7,12.8-1.7,19.2-0.7C68.1,92.6,61.6,92.3,55.2,92z"/>
	<path class="st10" d="M29.3,86.9c3.8-0.4,7.2,0.7,10.3,2.9C36.1,88.9,32.6,88.3,29.3,86.9z"/>
	<path class="st10" d="M118.2,73.8c1-1.8,2.1-3.7,4.7-3.3C121.4,71.6,119.8,72.7,118.2,73.8z"/>
	<path class="st10" d="M141.3,23.9c-1.7,0-3.1-0.6-3.9-2.1C138.9,22.1,140.2,22.8,141.3,23.9z"/>
	<path class="st4" d="M302.5,266.9c-1-1.1-0.7-2.4-0.3-4.4c0.2,1.2,0.3,1.8,0.4,2.4C302.6,265.6,302.5,266.2,302.5,266.9z"/>
	<path class="st10" d="M124.2,69.4c0.4-1.5,1.4-2.4,3-2.4C126.4,68.1,125.3,68.8,124.2,69.4z"/>
	<path class="st10" d="M15.9,59.4c-0.5,1.4-1.4,2.4-3,2.3C13.9,60.9,14.9,60.2,15.9,59.4z"/>
	<path class="st10" d="M18.8,57.1c-0.4,1.5-1.3,2.4-3,2.3C16.6,58.4,17.6,57.6,18.8,57.1z"/>
	<path class="st10" d="M128.7,65.7c0.3-1.3,0.8-2.4,2.4-1.9C130.3,64.4,129.5,65.1,128.7,65.7z"/>
	<path class="st10" d="M12.9,61.6c-0.2,1.2-1.1,1.6-2.2,1.6C11.4,62.7,12.2,62.1,12.9,61.6z"/>
	<path class="st9" d="M158.1,35c-0.1,0.9-0.2,1.9-1.4,0.8c0-0.2,0-0.4,0-0.7C157.1,35.1,157.6,35.1,158.1,35z"/>
	<path class="st10" d="M143.5,25.4c-1.2,0.2-2-0.3-2.3-1.6C142.1,24.1,142.9,24.5,143.5,25.4z"/>
	<path class="st10" d="M113.8,76.8c0.3-1.3,1.1-1.7,2.3-1.6C115.5,76.1,114.7,76.5,113.8,76.8z"/>
	<path class="st10" d="M116,75.3c0.3-1.2,1.1-1.7,2.3-1.6C117.8,74.6,116.9,75,116,75.3z"/>
	<path class="st10" d="M145.3,26.9c-0.6,0-1.1-0.2-1.1-1C144.7,26.2,145.3,26.2,145.3,26.9z"/>
	<path class="st10" d="M123.2,70.3c-0.4-1.1,0.4-1,1-1C123.9,69.6,123.5,70,123.2,70.3z"/>
	<path class="st10" d="M20.3,55.8c0.1,0.2,0.2,0.4,0.3,0.6c-0.4,0-0.7,0.1-1.1,0.1C19.8,56.3,20,56,20.3,55.8z"/>
	<path class="st10" d="M144.3,26.1c-0.5,0-0.8-0.2-0.9-0.7C143.7,25.6,144,25.8,144.3,26.1z"/>
	<path class="st7" d="M156.6,35.2c0,0.2,0,0.4,0,0.7c-0.2-0.3-0.4-0.6-0.6-0.9C156.3,34.9,156.5,35,156.6,35.2z"/>
	<path class="st10" d="M19.6,56.5c-0.3,0.3-0.6,0.5-0.9,0.8C19,57,19.3,56.7,19.6,56.5z"/>
	<path class="st10" d="M127.8,66.4c0.3-0.3,0.6-0.6,0.9-0.8C128.4,65.9,128.1,66.2,127.8,66.4z"/>
	<path class="st10" d="M131.3,63.5c-0.1-0.2-0.2-0.3-0.3-0.5c0.2,0.1,0.3,0.2,0.5,0.3C131.5,63.3,131.3,63.5,131.3,63.5z"/>
	<path class="st6" d="M157.5,49.9c0.1,0.2,0.2,0.3,0.2,0.5c0,0-0.2,0.1-0.2,0.2C157.5,50.4,157.5,50.2,157.5,49.9z"/>
	<path class="st11" d="M121.7,439.5c1.3-13.6,2.6-27.2,4-40.8c6.2,2.8,10.3,7.7,14,13.2c5.1,7.5,12.1,12.2,21.1,13.6
		c12,1.9,21.6-2.7,29.5-11.5c5-5.5,9.3-11.8,15.7-16c0.3,3.8,0.6,7.6,1,11.3c1.2,12.5,2.5,25.1,3.7,37.6c-0.5,0.9-1,1.8-1.4,2.6
		c0.3-2.4-0.6-3.4-3.3-3.5c-9.8-0.1-19.6,0.3-29.4-0.6c-10.4-0.9-20.8,0.6-31.2,0.7C138.3,441.1,130.4,439.1,121.7,439.5z"/>
	<path class="st6" d="M213.7,250.6c6.2,5.3,9.7,12,10.5,20c-0.1,1.5-0.9,2.5-1.7,3.7c0,0,0,0,0,0c-2.1,1.2-4.3,1.7-6.6,0.6
		c-0.2-0.2-0.5-0.4-0.7-0.6c-0.3-0.3-0.5-0.5-0.8-0.8c0,0,0.1,0,0.1,0c-1-2.5-1.2-5.3-2.9-7.5c0,0,0.1,0,0.1,0
		c-0.2-0.3-0.3-0.6-0.5-0.9c0,0,0-0.3,0-0.3c-0.4-1-0.8-2-1.8-2.6c0,0,0.1,0.1,0.1,0.1c-0.5-1.3-1.4-2.4-2.6-3.2
		c0,0-0.2-0.2-0.2-0.2c-0.2-0.2-0.4-0.4-0.6-0.5c0,0-0.2-0.2-0.2-0.2c-0.2-0.2-0.4-0.4-0.6-0.6c0,0-0.2-0.2-0.2-0.2
		c-0.6-0.9-1.4-1.5-2.5-1.8c0,0,0.1,0.1,0.1,0.1c-1-1.2-2.3-1.9-3.7-2.3c0,0,0.1,0.1,0.1,0.1c-11.3-5.5-22.5-5.2-33.6,0.7
		c0,0,0.1-0.1,0.1-0.1c-0.6,0.1-1.2,0.2-1.5,0.8c0,0,0.1-0.1,0.1-0.1c-1.3,0.3-2.3,1-3.1,2c0,0-0.2,0-0.2,0c-0.4,0.3-0.8,0.7-1.2,1
		c0,0,0.1,0,0.1,0c-0.4,0.3-0.7,0.6-1.1,0.9c-4.5,3.1-7.2,7.5-9.1,12.6c-1.5,4-3.8,5.5-7,4.6c-3.3-0.9-4.7-3.6-3.4-7.7
		c2.5-7.9,7.2-14.4,14.1-19.2c0.2-0.2,0.4-0.4,0.7-0.5c0.1-0.2,0.3-0.3,0.5-0.3c0.3-0.3,0.7-0.5,1-0.8c0.2-0.5,0.6-0.7,1.1-0.7
		c0.4-0.2,0.7-0.5,1.1-0.7c0,0,0,0,0,0c0.6,0,1.3-0.1,1.5-0.8l-0.1,0c0.7,0,1.3,0,1.5-0.8l-0.1,0.1c0.7,0.1,1.3,0,1.6-0.8
		c0,0-0.1,0.1-0.1,0.1c1.4,0.3,2.6-0.1,3.9-0.6c4.8-2.1,9.8-2.8,15.1-3.1c6.2-0.3,12.2,1.1,18.3,1.5l0-0.1c0.5,1.6,1.6,1.9,3.1,1.2
		l0.2,0c0,1.6,1.2,1,2,1.1l-0.1,0c0.4,1.5,1.6,1.6,2.9,1.6c0,0,0,0,0,0c0.3,1.8,1.6,2,3,2.2c0,0,0,0,0,0c0.3,0.2,0.6,0.5,0.8,0.7
		c0,0-0.1-0.1-0.1-0.1C211.3,249.6,212.2,250.6,213.7,250.6z"/>
	<path class="st6" d="M40.9,285.7c-2.9,0.7-2.9,3.7-4,5.7c-4.4,8.2-5.8,17.4-7.4,26.3c-0.6,3.3,0.3,7,0.5,10.6
		c0.1,2.4-0.6,4.6-0.7,6.9c-0.1,2.4-2.8,1.1-4.3,1.3c-1.6,0.2-3.4-0.2-3.1-2.2c1.6-8.7-0.9-17.7,1.5-26.3c2.2-7.8,3.8-15.9,7.6-23.2
		c0.4-0.8,0.5-1.6,0.3-2.5c0,0,0,0.1,0,0.1c0.8-0.3,0.9-0.9,0.8-1.7c0-0.2,0-0.4,0.2-0.5c0.2-0.3,0.4-0.5,0.6-0.8c0,0,0,0,0,0
		c1.7-0.3,2.6-1.1,1.6-2.9c2.4-5.2,6.5-9.2,9.6-13.9c0.5-0.5,1-1.1,1.5-1.6c0,0,0,0,0,0c0.4-0.3,0.7-0.7,1.1-1c0,0,0.2-0.2,0.2-0.2
		c0.3-0.4,0.7-0.7,1-1.1c0,0-0.1,0-0.1,0c0.3-0.3,0.5-0.5,0.8-0.8c0,0-0.1,0.1-0.1,0.1c0.3-0.2,0.6-0.5,0.9-0.7c0,0-0.1,0.1-0.1,0.1
		c5-1.3,6.5-0.6,8.2,4.2c0,1.3-0.3,2.4-1.3,3.3c-6.2,5.7-10.8,12.6-15.1,19.8c-0.2-0.1-0.5-0.3-0.5-0.2
		C40.3,285,40.6,285.3,40.9,285.7L40.9,285.7z"/>
	<path class="st6" d="M121.5,189.7c-2.5-0.3-5.5-0.3-8.2-1.4c-2.7-1.1-4.2-4-3.1-6.6c1.1-2.6,2.9-4,6.1-3.2
		c12.4,2.8,21.2-1.7,26.8-13.2c1.9-3.9,4.5-5.2,7.5-3.8c3,1.4,3.8,4.3,2,8.2C146.5,182.6,136,188.9,121.5,189.7z"/>
	<path class="st6" d="M227.7,227.3c-7.2-0.1-13.3-2.1-18.6-6.2c-2.6-2-4.5-4.5-5.5-7.7c-0.7-2.1-0.2-4,1.7-5.2
		c2-1.2,3.9-1.1,5.6,0.8c2,2.2,4.1,4.2,6.7,5.7c7.4,4.2,16.8,2.4,23-4.5c2-2.2,4-3.7,6.9-1.8c2.3,1.6,2.5,4.4,0.4,7.5
		C243.1,223.4,236.1,227.2,227.7,227.3z"/>
	<path class="st6" d="M123.9,224c-0.6,0-1.1-0.1-1.3-0.7c-0.1-0.9-0.1-1.9-1.4-0.9c-2.7-1.7-5.1-3.9-6.9-6.5
		c-1.6-2.5-2.3-5.1,0.4-7.2c2.6-2,4.8-0.8,6.8,1.2c5.4,5.4,11.8,8.5,19.6,6.7c4.5-1,7.7-4.2,10.8-7.4c1.2-1.3,2.4-2.5,4.3-2.6
		c3.1,0,5.1,3.2,3.6,6.4c-2.3,5.2-6.1,9.2-11.6,11.1c-0.8,0.1-1.8,0-2.5,0.3c-4.9,1.8-9.9,2.4-15.1,1.2
		C128.4,225.1,126.3,223.7,123.9,224z"/>
	<path class="st6" d="M216.7,180.1c-0.9-0.9-1.9-1.9-2.8-2.8c-0.3-0.3-0.6-0.6-0.8-0.8c0,0,0.1,0,0.1,0c-0.7-1-1.5-2-2.2-3
		c0,0,0.1,0.1,0.1,0.1c-0.3-0.7-0.6-1.4-0.8-2.2c0.1-3-1.2-6.1,0.5-9l0,0c2.1,1,4.2,0.9,6.3,0.1c0.2,0,0.4,0,0.5,0.1
		c0,0.2,0.1,0.4,0.1,0.6c0.2,1.8-0.2,3.9,2.2,4.6c0.2,0.4,0.5,0.8,0.7,1.3c0.2,0.3,0.5,0.6,0.7,0.9c0,0,0,0,0,0
		c0.3,2.1,1.6,3.3,3.6,3.8c0.3,0.2,0.5,0.5,0.8,0.7c0.3,0.2,0.6,0.5,0.8,0.8c0,0-0.1-0.1-0.1-0.1c0,1.7,1.1,1.6,2.3,1.5
		c0,0-0.1-0.1-0.1-0.1c0.4,1.1,1.1,1.8,2.4,1.3c0,0,0.1,0,0.1,0c1.3,2.4,3.8,2.3,6,2.6c4.2,0.5,8.3-0.9,12.5-0.8
		c0.2,0.2,0.4,0.4,0.6,0.5c0.2,0.3,0.5,0.7,0.7,1l0,0c-0.2,2-0.5,4.1-0.7,6.1c0,0,0,0,0,0c-0.6,0-1.3-0.2-1.8,0
		c-5.1,2.3-10.3,1.5-15.6,0.4c-2.5-0.5-4.7-2.2-7.3-1.8l0,0.1c-0.1-0.5-0.3-0.8-0.9-0.5l-0.3-0.1c0.2-1.7-1-1-1.8-1.1l0,0
		c-0.3-0.2-0.6-0.5-0.9-0.7l0.1,0.1c-0.2-1.3-1-1.8-2.2-1.6l0.1,0.1c-0.3-0.2-0.6-0.5-0.9-0.7c0,0,0.1,0.1,0.1,0.1
		c-0.1-0.8-0.1-1.7-1.3-1C217.1,180.3,216.9,180.2,216.7,180.1z"/>
	<path class="st6" d="M121.9,396.6c4.5,4.1,1.2,8.9,1.1,13.4c-0.1,3.8-1.2,7.6-1,11.3c0.3,5.3-2.4,10.3-1.1,15.7
		c0.3,1.2-1,2.1-2.3,2.4c-1.3,0.3-2.6,0.5-3.9,0.9c-2.9,0.8-3.9-0.2-3.4-3.2c0.9-6.5,1.6-13,1.9-19.6c0.2-3.6,0-7.4,1.3-10.9
		c0.9-2.5,0.1-5,0.5-7.6c0.5-2.9,1.7-3.4,4-3.3c0,0,0,0,0,0c0.6,1,1.5,0.8,2.4,0.8C121.5,396.4,121.7,396.4,121.9,396.6z"/>
	<path class="st8" d="M210.7,446.9c-1.3-12.5-2.5-25-3.7-37.6c-0.4-3.8-0.6-7.6-1-11.3c1.1-1.1,2.4-1.8,3.9-2.3c0,0,0.1,0.1,0.1,0.1
		c-0.6,1.8-3.3,2.1-3,4.7c1.1,8.1,2.4,16.2,2.7,24.4c0.2,4.7,1.8,9.3,1.4,14.1c-0.2,1.6,0,4.6,3.3,4.1l0.1,0.1
		C213.3,444.5,212,445.7,210.7,446.9z"/>
	<path class="st12" d="M169.2,240.3c1.3-1.9,3.6-1.6,5.4-1.9c9.9-1.4,19.6-0.9,28.6,3.7c0.9,0.5,2.6,0.5,2.4,2.3
		c-0.5-0.2-1-0.4-1.6-0.6c0,0,0.1,0,0.1,0c-0.7-0.4-1.3-0.7-2-1.1c0,0-0.2,0-0.2,0c-0.9-0.8-1.9-1.2-3.1-1.2c0,0,0,0.1,0,0.1
		c-0.3-0.2-0.6-0.5-0.9-0.6c-9.5-3.1-19.1-2.8-28.7-0.6L169.2,240.3z"/>
	<path class="st12" d="M248.9,188.2c-0.4,1.7-2,1.6-3.2,2c-8.2,2.5-22.9-2.3-28.3-9.1c0,0,0.1-0.1,0.1-0.1c0.4,0.1,0.8,0.3,1.2,0.4
		c0,0-0.1-0.1-0.1-0.1c0.3,0.2,0.6,0.5,0.9,0.7c0,0-0.1-0.1-0.1-0.1c0.5,0.8,1.3,1.4,2.2,1.6c0,0-0.1-0.1-0.1-0.1
		c0.3,0.2,0.6,0.5,0.9,0.7c0,0,0,0,0,0c0.6,0.4,1.2,0.8,1.8,1.1c0,0,0.3,0.1,0.3,0.1c0.3,0.2,0.6,0.3,0.9,0.5c0,0,0-0.1,0-0.1
		C232.8,189.7,240.7,190.9,248.9,188.2z"/>
	<path class="st12" d="M165.4,254.2c11.1-5.9,22.3-6.2,33.6-0.7c-2.9,0.2-5.4-1.5-8.1-2.1c-7.8-1.6-15.3-0.6-22.6,2.4
		C167.3,254.1,166.4,254.4,165.4,254.2z"/>
	<path class="st4" d="M67.8,169.2c0.1-2.3,1.1-4.1,3.1-4.2c1.7-0.1,2.6,1.9,2.7,3.5c0.1,1.8-0.7,3.4-2.9,3.5
		C68.4,172.2,68.1,170.6,67.8,169.2z"/>
	<path class="st8" d="M248.9,188.2c-8.2,2.7-16,1.5-23.5-2.6c2.7-0.4,4.9,1.3,7.3,1.8c5.2,1.1,10.4,1.9,15.6-0.4
		c0.5-0.2,1.2,0,1.8,0c-0.1,0.2-0.1,0.4-0.1,0.6c-0.3,0.2-0.6,0.5-0.9,0.7L248.9,188.2z"/>
	<path class="st4" d="M80.4,138.3c0-2.8,0.6-4.5,2.8-4.5c1.6,0,2.4,1.4,2.4,3.1c0,1.8-0.9,3.1-2.7,3.3
		C80.9,140.4,80.3,139,80.4,138.3z"/>
	<path class="st13" d="M123.9,224c2.4-0.3,4.5,1,6.8,1.5c5.2,1.1,10.2,0.5,15.1-1.2c0.8-0.3,1.7-0.2,2.5-0.3
		C140.1,228.5,132,228.4,123.9,224z"/>
	<path class="st4" d="M54.5,292c0,1.7-0.4,3.4-2.3,3.5c-1.6,0.1-2.7-1.3-2.7-2.9c0-1.6,0.6-3.2,2.5-3.4
		C53.9,289,54.5,290.3,54.5,292z"/>
	<path class="st4" d="M50,193c0-1.6,0.2-3.1,2.3-3c1.7,0.1,2.8,1.2,2.8,2.8c0,1.6-0.5,3-2.5,3C50.7,195.8,50,194.8,50,193z"/>
	<path class="st4" d="M70,318.9c0-1.6,0.2-3.1,2.2-3.1c1.7,0,2.8,1.1,2.9,2.7c0.1,1.9-1,3-2.9,3.1C70.4,321.7,70,320.4,70,318.9z"/>
	<path class="st4" d="M106.3,117c-0.1-1.6,0.2-2.7,2.1-2.6c2,0.1,2.7,1.6,2.9,3.2c0.1,1.5-1,2.6-2.5,2.6
		C106.9,120.1,106,118.9,106.3,117z"/>
	<path class="st4" d="M80.3,200c0,1.8-0.9,2.5-2.5,2.5c-1.8,0-2.6-0.9-2.6-2.7c0.1-1.7,0.9-3,2.5-3C79.7,196.7,79.9,198.6,80.3,200z
		"/>
	<path class="st4" d="M111.3,361.6c-0.4,1.4-1.3,2.3-2.9,2.3c-1.9-0.1-2.6-1.5-2.5-3c0-1.3,0.7-2.9,2.4-2.7
		C110.1,358.4,110.7,360,111.3,361.6z"/>
	<path class="st4" d="M65,222.5c-1.9,0-2.5-1.2-2.4-2.9c0.1-1.5,0.8-2.8,2.4-2.7c1.8,0.1,2.7,1.6,2.7,3.4
		C67.7,222,66.6,222.5,65,222.5z"/>
	<path class="st8" d="M249.4,179.5c-4.2-0.1-8.3,1.3-12.5,0.8c-2.2-0.3-4.7-0.1-6-2.6c5.6,2.3,11.4,1.3,17.1,0.4
		C248.5,178.6,249,179,249.4,179.5z"/>
	<path class="st4" d="M101.6,327.6c-1.7-0.3-2.6-1.2-2.7-2.9c-0.1-1.4,0.2-2.7,1.9-2.9c2.1-0.2,2.7,1.4,3,3
		C104.2,326.3,103,327.1,101.6,327.6z"/>
	<path class="st4" d="M98.1,157.9c0.1,1.9-0.4,3.1-2.2,3.1c-1.9,0-2.5-1.5-2.8-2.9c-0.4-1.8,1.1-2.5,2.4-2.6
		C97.3,155.2,97.9,156.7,98.1,157.9z"/>
	<path class="st4" d="M41.1,238.6c0-1.4-0.1-2.8,1.9-2.8c1.6,0,2.5,0.8,2.5,2.4c0,1.8-0.7,3.3-2.6,3.3
		C41.1,241.6,41.1,240,41.1,238.6z"/>
	<path class="st4" d="M80.3,343.8c-0.1,1.6-0.9,2.4-2.3,2.3c-1.5-0.1-2.8-0.7-2.8-2.6c0-1.6,0.8-2.6,2.4-2.4
		C79.3,341.2,80.2,342.3,80.3,343.8z"/>
	<path class="st4" d="M78.9,289c0.1,1.4-0.3,2.4-2,2.4c-1.4,0-2.4-0.6-2.4-2.1c0-1.5,0.7-2.8,2.3-2.7C78.2,286.5,79,287.5,78.9,289z
		"/>
	<path class="st12" d="M57.6,261.7c-1.7-4.8-3.3-5.6-8.2-4.2c1.3-2.8,3.8-2,5.6-1.2C56.8,257.2,58.8,258.9,57.6,261.7z"/>
	<path class="st12" d="M217.4,162.5c-0.2,0-0.4-0.1-0.5-0.1c-2.1-1.9-4.2-1.9-6.3-0.1c0,0,0,0,0,0c-0.5,0.5-1,0.9-1.6,1.4
		c-0.2-0.2-0.4-0.3-0.6-0.5c2.6-3.1,5.5-3.9,8.4-2.1C217.4,161.4,218,161.8,217.4,162.5z"/>
	<path class="st12" d="M210.1,171.4c0.3,0.7,0.6,1.4,0.8,2.2c-3.3-2.7-4.3-6.6-2.4-10.3c0.2,0.2,0.4,0.3,0.6,0.5
		C207.7,166.5,208.7,169,210.1,171.4z"/>
	<path class="st12" d="M249.4,179.5c-0.5-0.4-0.9-0.9-1.4-1.3c4.6,1.2,6,4.9,3.1,8c0.5-1.8,1-3.5-0.4-5.1c0,0,0,0,0,0
		c-0.2-0.3-0.5-0.7-0.7-1C249.8,179.8,249.6,179.6,249.4,179.5z"/>
	<path class="st12" d="M211.6,266c1.7,2.2,1.9,5,2.9,7.5C211.5,271.8,212.1,268.7,211.6,266z"/>
	<path class="st12" d="M215.9,274.9c2.3,1.1,4.5,0.6,6.6-0.6C220.6,277.2,218.4,277.4,215.9,274.9z"/>
	<path class="st12" d="M158.8,244.7c1.5-1.9,3.5-2.8,6-2.9c0,0,0.2,0.3,0.2,0.3c-1.1,0.6-2.2,1.2-3.3,1.9c0,0,0.1-0.1,0.1-0.1
		c-0.6,0.1-1.2,0.2-1.6,0.8c0,0,0.1-0.1,0.1-0.1c-0.5,0.1-0.9,0.2-1.3,0.2L158.8,244.7z"/>
	<path class="st8" d="M219.7,167.7c-2.5-0.7-2-2.8-2.2-4.6C218.7,164.3,219.1,166.1,219.7,167.7z"/>
	<path class="st8" d="M250.8,180.9c1.4,1.6,0.9,3.4,0.4,5.1c-0.4,0.3-0.7,0.6-1.1,0.9C250.3,185,250.5,183,250.8,180.9z"/>
	<path class="st8" d="M224.8,173.6c-2-0.4-3.3-1.6-3.6-3.8C222.3,171.1,223.5,172.4,224.8,173.6z"/>
	<path class="st12" d="M154.2,248.3c-0.2,0-0.4,0.1-0.5,0.3c-0.2,0-0.4,0-0.6,0.1c0.6-2.2,2.4-2.9,4.4-3.3l0.1,0.2
		c0,0.2-0.1,0.4-0.2,0.6c0,0,0,0,0,0c-0.4,0.2-0.7,0.5-1.1,0.7c-0.5,0-0.9,0.2-1.1,0.7C154.8,247.8,154.5,248.1,154.2,248.3z"/>
	<path class="st12" d="M198.9,253.4c1.5,0.4,2.8,1.1,3.7,2.3C200.8,256,199.6,255.2,198.9,253.4z"/>
	<path class="st12" d="M164.8,241.7c1-2,2.8-1.4,4.4-1.5c0,0,0.2,0.2,0.2,0.2c-1.5,0.5-2.9,1-4.4,1.5L164.8,241.7z"/>
	<path class="st8" d="M34.5,276.6c1,1.8,0.1,2.6-1.6,2.9C33.1,278.3,33.8,277.4,34.5,276.6z"/>
	<path class="st12" d="M210.8,173.4c0.7,1,1.5,2,2.2,3C211.1,176.4,210.9,175,210.8,173.4z"/>
	<path class="st12" d="M206.8,259.2c1.2,0.8,2,1.9,2.6,3.2C208.1,261.7,206.5,261.2,206.8,259.2z"/>
	<path class="st12" d="M222.5,274.3c0.7-1.1,1.6-2.2,1.7-3.7C225.2,272.6,224.5,273.7,222.5,274.3z"/>
	<path class="st8" d="M213.7,250.6c-1.6-0.1-2.4-1-2.9-2.3C212,248.8,213,249.5,213.7,250.6z"/>
	<path class="st12" d="M160.8,256.9c0.8-1,1.9-1.6,3.1-2C163.5,256.4,162.4,257,160.8,256.9z"/>
	<path class="st8" d="M204.1,243.8c0.5,0.2,1,0.4,1.6,0.6c0.2,0.1,0.3,0,0.4-0.1c0.3,0.3,0.6,0.6,0.9,0.8c0,0,0,0.3,0,0.3
		C205.7,245.5,204.5,245.3,204.1,243.8z"/>
	<path class="st8" d="M210,247.6c-1.4-0.2-2.8-0.4-3-2.2C208,246.2,209,246.9,210,247.6z"/>
	<path class="st8" d="M209.9,395.7c0.8-0.9,1.8-1.3,2.9-1.5c0,0,0.1,0.2,0.1,0.2c-0.6,1.3-1.7,1.5-3,1.5L209.9,395.7z"/>
	<path class="st12" d="M209.3,262.4c1,0.6,1.4,1.6,1.8,2.6C209.3,264.9,209.5,263.5,209.3,262.4z"/>
	<path class="st8" d="M228.6,176.5c-1.2,0.1-2.3,0.2-2.3-1.5C227.1,175.5,227.9,176,228.6,176.5z"/>
	<path class="st12" d="M202.6,255.7c1,0.3,1.9,0.9,2.5,1.8C203.5,258,203.1,256.7,202.6,255.7z"/>
	<path class="st8" d="M230.9,177.7c-1.3,0.6-2-0.1-2.4-1.3C229.3,176.9,230.1,177.3,230.9,177.7z"/>
	<path class="st13" d="M121.1,222.4c1.3-1,1.3-0.1,1.4,0.9C122.1,223,121.6,222.7,121.1,222.4z"/>
	<path class="st8" d="M121.3,396.5c-0.9,0-1.9,0.3-2.4-0.8C119.7,395.9,120.7,395.5,121.3,396.5z"/>
	<path class="st12" d="M45.6,261c-0.5,0.5-1,1.1-1.5,1.6C44.1,261.6,44.5,261,45.6,261z"/>
	<path class="st12" d="M163.9,255c0.3-0.7,1-0.7,1.5-0.8C165.3,255,164.6,255,163.9,255z"/>
	<path class="st12" d="M46.7,260c-0.4,0.3-0.7,0.7-1.1,1C45.7,260.4,45.6,259.6,46.7,260z"/>
	<path class="st12" d="M47.9,258.8c-0.3,0.3-0.7,0.7-1,1.1C46.4,258.8,47.2,258.9,47.9,258.8z"/>
	<path class="st8" d="M32.2,280.7c0,0.7,0,1.4-0.8,1.7C31.4,281.8,31.5,281.1,32.2,280.7z"/>
	<path class="st12" d="M159.5,257.9c0.4-0.3,0.8-0.7,1.2-1C160.9,258,160.2,257.9,159.5,257.9z"/>
	<path class="st12" d="M157.4,245.4c0.3-0.6,0.8-0.7,1.4-0.8c0,0,0.1,0.1,0.1,0.1c-0.1,0.2-0.1,0.4-0.2,0.6c0,0,0.1,0,0.1,0
		c-0.4,0.1-0.9,0.2-1.3,0.3L157.4,245.4z"/>
	<path class="st8" d="M40.9,285.7c-0.3-0.3-0.5-0.7-0.2-1.1c0,0,0.3,0.2,0.5,0.2C41.1,285.1,41,285.4,40.9,285.7z"/>
	<path class="st12" d="M206,258.5c0.2,0.2,0.4,0.4,0.6,0.5C206,259.3,205.8,259.1,206,258.5z"/>
	<path class="st8" d="M153.1,248.7c0.2-0.1,0.4-0.1,0.6-0.1c-0.2,0.2-0.4,0.4-0.7,0.5C153,249,153.1,248.8,153.1,248.7z"/>
	<path class="st8" d="M210.8,248.3c-0.3-0.2-0.6-0.5-0.8-0.7C210.3,247.9,210.6,248.1,210.8,248.3z"/>
	<path class="st12" d="M213,176.4c0.3,0.3,0.6,0.6,0.8,0.8C213.6,177,213.3,176.7,213,176.4z"/>
	<path class="st8" d="M221.1,169.9c-0.2-0.3-0.5-0.6-0.7-0.9C220.7,169.2,220.9,169.6,221.1,169.9z"/>
	<path class="st12" d="M211.2,265.2c0.2,0.3,0.3,0.6,0.5,0.9C211.2,266,210.9,265.7,211.2,265.2z"/>
	<path class="st12" d="M249,188.2c0.3-0.2,0.6-0.5,0.9-0.7C249.6,187.8,249.3,188,249,188.2z"/>
	<path class="st12" d="M216.7,180.1c0.2,0.1,0.5,0.1,0.7,0.2c0.1,0.2,0.1,0.4,0.1,0.6c0,0-0.1,0.1-0.1,0.1
		C217.1,180.7,216.9,180.4,216.7,180.1z"/>
	<path class="st12" d="M207,245.1c-0.3-0.3-0.6-0.6-0.9-0.8C206.6,244.2,206.9,244.6,207,245.1z"/>
	<path class="st8" d="M32.9,279.4c-0.2,0.3-0.4,0.5-0.6,0.8C32.6,280,32.8,279.7,32.9,279.4z"/>
	<path class="st8" d="M226.4,175c-0.3-0.3-0.6-0.5-0.8-0.8C225.8,174.5,226.1,174.8,226.4,175z"/>
	<path class="st12" d="M205.3,257.7c0.2,0.2,0.4,0.4,0.6,0.6C205.2,258.5,205.1,258.3,205.3,257.7z"/>
	<path class="st12" d="M158.5,258.7c0.4-0.3,0.7-0.6,1.1-0.9C159.2,258.2,158.8,258.5,158.5,258.7z"/>
	<path class="st12" d="M48.6,258.1c-0.3,0.3-0.5,0.5-0.8,0.8C48.1,258.6,48.3,258.3,48.6,258.1z"/>
	<path class="st12" d="M49.4,257.4c-0.3,0.2-0.6,0.5-0.9,0.7C48.8,257.9,49.1,257.6,49.4,257.4z"/>
	<path class="st12" d="M214.4,273.5c0.3,0.3,0.5,0.5,0.8,0.8C215,274,214.7,273.8,214.4,273.5z"/>
	<path class="st14" d="M347.8,197.1c-0.1-3.9,1.5-5.9,3.4-7.8c7.7-7.5,15.2-15.1,23-22.5c1.7-1.7,1.9-2.5,0.1-4.2
		c-7.7-7.5-15.2-15.1-22.8-22.7c-4.4-4.4-4.8-8.5-1.1-12.2c3.7-3.8,8.1-3.5,12.5,0.9c7.4,7.4,14.9,14.8,22.2,22.3
		c1.7,1.8,2.6,2,4.5,0.1c7.7-7.9,15.6-15.5,23.3-23.2c2.4-2.4,5.2-3.4,8.4-2.2c2.9,1.1,4.8,3.3,5.4,6.5c0.6,3.3-1.2,5.6-3.4,7.7
		c-7.7,7.6-15.4,15.3-23.3,22.8c-1.8,1.7-1.5,2.3,0.1,3.8c7.9,7.6,15.6,15.4,23.4,23.2c4.1,4.1,4.4,8.5,0.9,12
		c-3.5,3.4-8.1,3.1-12-0.8c-7.8-7.7-15.6-15.5-23.2-23.3c-1.5-1.5-2.1-1.5-3.6,0c-8,8.1-16.1,16-24.1,24c-2.5,2.5-5.4,3.3-8.7,1.7
		C349.5,201.8,347.9,199.4,347.8,197.1z"/>
	<path class="st11" d="M105,453.8c0,1.9,0,3.7,0,5.6c-1.7-2-0.6-4.3-0.7-6.5C104.3,452.9,104.8,453.5,105,453.8z"/>
	<path class="st8" d="M218.5,441.4c-1.3,0.6-2.6,1.2-3.9,1.9c0,0-0.1-0.1-0.1-0.1c0.8-1.5,1.9-2.4,3.7-2.2
		C218.3,441.1,218.4,441.3,218.5,441.4z"/>
	<path class="st6" d="M218.1,441c-1.8-0.2-2.9,0.7-3.7,2.2c-3.3,0.4-3.5-2.5-3.3-4.1c0.5-4.8-1.2-9.4-1.4-14.1
		c-0.3-8.2-1.6-16.3-2.7-24.4c-0.3-2.6,2.3-2.9,3-4.7c1.2,0,2.4-0.2,3-1.5c2.8-0.5,3.8-0.2,3.3,3.4c-0.4,3.2,1,6.7,1.2,10.1
		c0.5,8,1.4,15.9,2.2,23.8c0.1,1.5,0.5,2.9,0.7,4.3C220.7,438.1,220,439.8,218.1,441z"/>
	<path class="st8" d="M165,242c1.5-0.5,2.9-1,4.4-1.5c9.6-2.2,19.2-2.5,28.7,0.6c0.3,0.1,0.6,0.4,0.9,0.6
		c-6.1-0.4-12.1-1.7-18.3-1.5c-5.2,0.2-10.3,1-15.1,3.1c-1.3,0.6-2.5,0.9-3.9,0.6C162.8,243.2,163.9,242.6,165,242z"/>
	<path class="st8" d="M199,241.6c1.2,0.1,2.2,0.5,3.1,1.2C200.5,243.5,199.5,243.2,199,241.6z"/>
	<path class="st8" d="M202.2,242.8c0.7,0.4,1.3,0.7,2,1.1C203.3,243.8,202.2,244.4,202.2,242.8z"/>
	<path class="st8" d="M157.6,245.6c0.4-0.1,0.9-0.2,1.3-0.3c-0.2,0.7-0.8,0.8-1.5,0.8C157.5,246,157.5,245.8,157.6,245.6z"/>
	<path class="st8" d="M158.8,245.4c0.1-0.2,0.1-0.4,0.2-0.6c0.4-0.1,0.9-0.2,1.3-0.2C160.1,245.3,159.4,245.4,158.8,245.4z"/>
	<path class="st8" d="M160.2,244.6c0.3-0.7,1-0.7,1.6-0.8C161.5,244.6,160.9,244.7,160.2,244.6z"/>
	<path class="st8" d="M154.2,248.3c0.3-0.3,0.7-0.5,1-0.8C154.8,247.8,154.5,248.1,154.2,248.3z"/>
	<path class="st8" d="M156.3,246.9c0.4-0.2,0.7-0.5,1.1-0.7C157,246.4,156.6,246.6,156.3,246.9z"/>
	<path class="st8" d="M210.1,171.4c-1.4-2.4-2.3-4.9-1-7.6c0.5-0.5,1-0.9,1.6-1.4C208.9,165.3,210.2,168.4,210.1,171.4z"/>
	<path class="st8" d="M210.6,162.4c2.1-1.8,4.2-1.9,6.3,0.1C214.7,163.3,212.6,163.4,210.6,162.4z"/>
	<path class="st8" d="M221.7,183.5c-0.9-0.3-1.7-0.8-2.2-1.6C220.7,181.7,221.5,182.2,221.7,183.5z"/>
	<path class="st8" d="M217.5,180.9c0-0.2-0.1-0.4-0.1-0.6c1.2-0.7,1.2,0.2,1.3,1C218.3,181.1,217.9,181,217.5,180.9z"/>
	<path class="st8" d="M224.2,185.2c-0.6-0.4-1.2-0.8-1.8-1.1C223.2,184.2,224.5,183.5,224.2,185.2z"/>
	<path class="st8" d="M222.5,184.1c-0.3-0.2-0.6-0.5-0.9-0.7C221.9,183.6,222.2,183.8,222.5,184.1z"/>
	<path class="st8" d="M225.4,185.7c-0.3-0.2-0.6-0.3-0.9-0.5C225.1,184.9,225.3,185.2,225.4,185.7z"/>
	<path class="st8" d="M250,180c0.2,0.3,0.5,0.7,0.7,1C250.5,180.7,250.3,180.3,250,180z"/>
	<path class="st8" d="M219.5,181.9c-0.3-0.2-0.6-0.5-0.9-0.7C218.9,181.4,219.2,181.7,219.5,181.9z"/>
</g>
</svg>
